<ttFont>
<head>
    <!-- Most of this table will be recalculated by the compiler -->
    <tableVersion value="1.0"/>
    <fontRevision value="0.0"/>
    <checkSumAdjustment value="0x50059d8c"/>
    <magicNumber value="0x5f0f3cf5"/>
    <flags value="00000000 00000001"/>
    <unitsPerEm value="2000"/>
    <created value="Mon Oct 14 19:58:02 2019"/>
    <modified value="Mon Oct 14 19:58:03 2019"/>
    <xMin value="-19"/>
    <yMin value="-490"/>
    <xMax value="1942"/>
    <yMax value="1566"/>
    <macStyle value="00000000 00000000"/>
    <lowestRecPPEM value="6"/>
    <fontDirectionHint value="2"/>
    <indexToLocFormat value="0"/>
    <glyphDataFormat value="0"/>
  </head>
    <TTGlyph name=".notdef" xMin="100" yMin="-490" xMax="900" yMax="1510">
      <contour>
        <pt x="100" y="-490" on="1"/>
        <pt x="900" y="-490" on="1"/>
        <pt x="900" y="1510" on="1"/>
        <pt x="100" y="1510" on="1"/>
      </contour>
      <contour>
        <pt x="200" y="-390" on="1"/>
        <pt x="200" y="1410" on="1"/>
        <pt x="800" y="1410" on="1"/>
        <pt x="800" y="-390" on="1"/>
      </contour>
    </TTGlyph>
    <TTGlyph name="A" xMin="36" yMin="0" xMax="1301" yMax="1400">
      <contour>
        <pt x="344" y="540" on="1"/>
        <pt x="958" y="540" on="1"/>
        <pt x="970" y="482" on="1"/>
        <pt x="326" y="482" on="1"/>
      </contour>
      <contour>
        <pt x="423" y="24" on="1"/>
        <pt x="423" y="12" on="0"/>
        <pt x="406" y="0" on="0"/>
        <pt x="389" y="0" on="1"/>
        <pt x="70" y="0" on="1"/>
        <pt x="54" y="0" on="0"/>
        <pt x="36" y="12" on="0"/>
        <pt x="36" y="24" on="1"/>
        <pt x="36" y="44" on="0"/>
        <pt x="74" y="52" on="1"/>
        <pt x="121" y="61" on="1"/>
        <pt x="150" y="66" on="0"/>
        <pt x="172" y="102" on="0"/>
        <pt x="185" y="142" on="1"/>
        <pt x="586" y="1298" on="1"/>
        <pt x="595" y="1324" on="0"/>
        <pt x="579" y="1341" on="0"/>
        <pt x="547" y="1348" on="1"/>
        <pt x="518" y="1353" on="0"/>
        <pt x="487" y="1364" on="0"/>
        <pt x="487" y="1376" on="1"/>
        <pt x="487" y="1388" on="0"/>
        <pt x="505" y="1400" on="0"/>
        <pt x="521" y="1400" on="1"/>
        <pt x="805" y="1400" on="1"/>
        <pt x="822" y="1400" on="0"/>
        <pt x="839" y="1387" on="0"/>
        <pt x="839" y="1376" on="1"/>
        <pt x="839" y="1359" on="0"/>
        <pt x="780" y="1348" on="1"/>
        <pt x="755" y="1343" on="0"/>
        <pt x="740" y="1330" on="0"/>
        <pt x="747" y="1308" on="1"/>
        <pt x="1166" y="110" on="1"/>
        <pt x="1175" y="85" on="0"/>
        <pt x="1217" y="61" on="0"/>
        <pt x="1255" y="53" on="1"/>
        <pt x="1282" y="48" on="0"/>
        <pt x="1301" y="35" on="0"/>
        <pt x="1301" y="24" on="1"/>
        <pt x="1301" y="12" on="0"/>
        <pt x="1284" y="0" on="0"/>
        <pt x="1267" y="0" on="1"/>
        <pt x="944" y="0" on="1"/>
        <pt x="928" y="0" on="0"/>
        <pt x="910" y="12" on="0"/>
        <pt x="910" y="24" on="1"/>
        <pt x="910" y="49" on="0"/>
        <pt x="948" y="52" on="1"/>
        <pt x="1050" y="62" on="1"/>
        <pt x="1076" y="64" on="0"/>
        <pt x="1083" y="98" on="0"/>
        <pt x="1070" y="134" on="1"/>
        <pt x="645" y="1348" on="1"/>
        <pt x="669" y="1354" on="1"/>
        <pt x="247" y="144" on="1"/>
        <pt x="238" y="117" on="0"/>
        <pt x="237" y="83" on="0"/>
        <pt x="259" y="65" on="0"/>
        <pt x="283" y="62" on="1"/>
        <pt x="385" y="52" on="1"/>
        <pt x="403" y="51" on="0"/>
        <pt x="423" y="36" on="0"/>
      </contour>
    </TTGlyph>
    <TTGlyph name="B" xMin="118" yMin="0" xMax="1167" yMax="1400">
      <contour>
        <pt x="1167" y="338" on="1"/>
        <pt x="1167" y="194" on="0"/>
        <pt x="916" y="0" on="0"/>
        <pt x="677" y="0" on="1"/>
        <pt x="152" y="0" on="1"/>
        <pt x="136" y="0" on="0"/>
        <pt x="118" y="12" on="0"/>
        <pt x="118" y="24" on="1"/>
        <pt x="118" y="44" on="0"/>
        <pt x="156" y="52" on="1"/>
        <pt x="208" y="62" on="1"/>
        <pt x="247" y="70" on="0"/>
        <pt x="290" y="111" on="0"/>
        <pt x="290" y="150" on="1"/>
        <pt x="290" y="1250" on="1"/>
        <pt x="290" y="1289" on="0"/>
        <pt x="247" y="1331" on="0"/>
        <pt x="208" y="1338" on="1"/>
        <pt x="156" y="1348" on="1"/>
        <pt x="118" y="1356" on="0"/>
        <pt x="118" y="1376" on="1"/>
        <pt x="118" y="1388" on="0"/>
        <pt x="136" y="1400" on="0"/>
        <pt x="152" y="1400" on="1"/>
        <pt x="557" y="1400" on="1"/>
        <pt x="731" y="1400" on="0"/>
        <pt x="967" y="1298" on="0"/>
        <pt x="1087" y="1119" on="0"/>
        <pt x="1087" y="1003" on="1"/>
        <pt x="1087" y="902" on="0"/>
        <pt x="986" y="742" on="0"/>
        <pt x="772" y="650" on="0"/>
        <pt x="601" y="650" on="1"/>
        <pt x="689" y="676" on="1"/>
        <pt x="842" y="676" on="0"/>
        <pt x="1056" y="589" on="0"/>
        <pt x="1167" y="436" on="0"/>
      </contour>
      <contour>
        <pt x="625" y="634" on="1"/>
        <pt x="342" y="634" on="1"/>
        <pt x="342" y="692" on="1"/>
        <pt x="627" y="692" on="1"/>
        <pt x="742" y="692" on="0"/>
        <pt x="908" y="767" on="0"/>
        <pt x="997" y="906" on="0"/>
        <pt x="997" y="1002" on="1"/>
        <pt x="997" y="1101" on="0"/>
        <pt x="901" y="1254" on="0"/>
        <pt x="706" y="1342" on="0"/>
        <pt x="557" y="1342" on="1"/>
        <pt x="372" y="1342" on="1"/>
        <pt x="372" y="150" on="1"/>
        <pt x="372" y="104" on="0"/>
        <pt x="431" y="58" on="0"/>
        <pt x="495" y="58" on="1"/>
        <pt x="667" y="58" on="1"/>
        <pt x="806" y="58" on="0"/>
        <pt x="986" y="130" on="0"/>
        <pt x="1073" y="257" on="0"/>
        <pt x="1073" y="338" on="1"/>
        <pt x="1073" y="467" on="0"/>
        <pt x="853" y="634" on="0"/>
      </contour>
    </TTGlyph>
    <TTGlyph name="C" xMin="110" yMin="-34" xMax="1295" yMax="1428">
      <contour>
        <pt x="1283" y="318" on="1"/>
        <pt x="1282" y="274" on="0"/>
        <pt x="1216" y="155" on="0"/>
        <pt x="1089" y="41" on="0"/>
        <pt x="899" y="-34" on="0"/>
        <pt x="772" y="-34" on="1"/>
        <pt x="565" y="-34" on="0"/>
        <pt x="269" y="155" on="0"/>
        <pt x="110" y="484" on="0"/>
        <pt x="110" y="693" on="1"/>
        <pt x="110" y="852" on="0"/>
        <pt x="204" y="1120" on="0"/>
        <pt x="376" y="1319" on="0"/>
        <pt x="610" y="1428" on="0"/>
        <pt x="750" y="1428" on="1"/>
        <pt x="858" y="1428" on="0"/>
        <pt x="997" y="1380" on="0"/>
        <pt x="1074" y="1331" on="0"/>
        <pt x="1087" y="1331" on="1"/>
        <pt x="1099" y="1331" on="0"/>
        <pt x="1108" y="1370" on="0"/>
        <pt x="1123" y="1408" on="0"/>
        <pt x="1143" y="1408" on="1"/>
        <pt x="1154" y="1408" on="0"/>
        <pt x="1170" y="1395" on="0"/>
        <pt x="1175" y="1378" on="1"/>
        <pt x="1290" y="1029" on="1"/>
        <pt x="1295" y="1014" on="0"/>
        <pt x="1282" y="990" on="0"/>
        <pt x="1268" y="990" on="1"/>
        <pt x="1258" y="990" on="0"/>
        <pt x="1243" y="1005" on="0"/>
        <pt x="1238" y="1015" on="1"/>
        <pt x="1176" y="1139" on="0"/>
        <pt x="1025" y="1295" on="0"/>
        <pt x="839" y="1368" on="0"/>
        <pt x="726" y="1368" on="1"/>
        <pt x="617" y="1368" on="0"/>
        <pt x="425" y="1271" on="0"/>
        <pt x="279" y="1096" on="0"/>
        <pt x="195" y="858" on="0"/>
        <pt x="195" y="718" on="1"/>
        <pt x="195" y="512" on="0"/>
        <pt x="354" y="212" on="0"/>
        <pt x="621" y="49" on="0"/>
        <pt x="784" y="49" on="1"/>
        <pt x="907" y="49" on="0"/>
        <pt x="1088" y="122" on="0"/>
        <pt x="1147" y="174" on="1"/>
        <pt x="1195" y="216" on="0"/>
        <pt x="1240" y="289" on="0"/>
        <pt x="1261" y="333" on="0"/>
        <pt x="1272" y="333" on="1"/>
        <pt x="1283" y="333" on="0"/>
      </contour>
    </TTGlyph>
    <TTGlyph name="D" xMin="118" yMin="0" xMax="1392" yMax="1400">
      <contour>
        <pt x="118" y="24" on="1"/>
        <pt x="118" y="44" on="0"/>
        <pt x="156" y="52" on="1"/>
        <pt x="208" y="62" on="1"/>
        <pt x="247" y="70" on="0"/>
        <pt x="290" y="111" on="0"/>
        <pt x="290" y="150" on="1"/>
        <pt x="290" y="1250" on="1"/>
        <pt x="290" y="1289" on="0"/>
        <pt x="247" y="1331" on="0"/>
        <pt x="208" y="1338" on="1"/>
        <pt x="156" y="1348" on="1"/>
        <pt x="118" y="1356" on="0"/>
        <pt x="118" y="1376" on="1"/>
        <pt x="118" y="1388" on="0"/>
        <pt x="136" y="1400" on="0"/>
        <pt x="152" y="1400" on="1"/>
        <pt x="560" y="1400" on="1"/>
        <pt x="748" y="1400" on="0"/>
        <pt x="1054" y="1291" on="0"/>
        <pt x="1273" y="1094" on="0"/>
        <pt x="1392" y="830" on="0"/>
        <pt x="1392" y="674" on="1"/>
        <pt x="1392" y="532" on="0"/>
        <pt x="1297" y="286" on="0"/>
        <pt x="1108" y="103" on="0"/>
        <pt x="825" y="0" on="0"/>
        <pt x="637" y="0" on="1"/>
        <pt x="152" y="0" on="1"/>
        <pt x="136" y="0" on="0"/>
        <pt x="118" y="12" on="0"/>
      </contour>
      <contour>
        <pt x="642" y="58" on="1"/>
        <pt x="857" y="58" on="0"/>
        <pt x="1151" y="217" on="0"/>
        <pt x="1303" y="498" on="0"/>
        <pt x="1303" y="679" on="1"/>
        <pt x="1303" y="872" on="0"/>
        <pt x="1113" y="1171" on="0"/>
        <pt x="773" y="1342" on="0"/>
        <pt x="547" y="1342" on="1"/>
        <pt x="372" y="1342" on="1"/>
        <pt x="372" y="150" on="1"/>
        <pt x="372" y="104" on="0"/>
        <pt x="431" y="58" on="0"/>
        <pt x="495" y="58" on="1"/>
      </contour>
    </TTGlyph>
    <TTGlyph name="E" xMin="118" yMin="-40" xMax="1149" yMax="1456">
      <contour>
        <pt x="342" y="714" on="1"/>
        <pt x="728" y="714" on="1"/>
        <pt x="796" y="714" on="0"/>
        <pt x="845" y="757" on="0"/>
        <pt x="847" y="815" on="1"/>
        <pt x="849" y="856" on="0"/>
        <pt x="865" y="859" on="1"/>
        <pt x="889" y="864" on="0"/>
        <pt x="897" y="832" on="1"/>
        <pt x="966" y="566" on="1"/>
        <pt x="974" y="533" on="0"/>
        <pt x="951" y="527" on="1"/>
        <pt x="931" y="522" on="0"/>
        <pt x="916" y="554" on="1"/>
        <pt x="899" y="591" on="0"/>
        <pt x="864" y="636" on="0"/>
        <pt x="817" y="656" on="0"/>
        <pt x="780" y="656" on="1"/>
        <pt x="342" y="656" on="1"/>
      </contour>
      <contour>
        <pt x="118" y="1376" on="1"/>
        <pt x="118" y="1388" on="0"/>
        <pt x="136" y="1400" on="0"/>
        <pt x="152" y="1400" on="1"/>
        <pt x="910" y="1400" on="1"/>
        <pt x="925" y="1400" on="0"/>
        <pt x="953" y="1428" on="0"/>
        <pt x="982" y="1456" on="0"/>
        <pt x="998" y="1456" on="1"/>
        <pt x="1012" y="1456" on="0"/>
        <pt x="1028" y="1441" on="0"/>
        <pt x="1032" y="1426" on="1"/>
        <pt x="1106" y="1141" on="1"/>
        <pt x="1111" y="1123" on="0"/>
        <pt x="1100" y="1104" on="0"/>
        <pt x="1088" y="1102" on="1"/>
        <pt x="1077" y="1100" on="0"/>
        <pt x="1058" y="1115" on="0"/>
        <pt x="1050" y="1133" on="1"/>
        <pt x="1020" y="1205" on="0"/>
        <pt x="967" y="1290" on="0"/>
        <pt x="912" y="1330" on="0"/>
        <pt x="849" y="1342" on="0"/>
        <pt x="810" y="1342" on="1"/>
        <pt x="372" y="1342" on="1"/>
        <pt x="372" y="150" on="1"/>
        <pt x="372" y="105" on="0"/>
        <pt x="430" y="58" on="0"/>
        <pt x="495" y="58" on="1"/>
        <pt x="823" y="58" on="1"/>
        <pt x="882" y="58" on="0"/>
        <pt x="969" y="99" on="0"/>
        <pt x="1050" y="220" on="0"/>
        <pt x="1099" y="338" on="1"/>
        <pt x="1105" y="352" on="0"/>
        <pt x="1120" y="364" on="0"/>
        <pt x="1130" y="362" on="1"/>
        <pt x="1141" y="361" on="0"/>
        <pt x="1149" y="341" on="0"/>
        <pt x="1145" y="324" on="1"/>
        <pt x="1072" y="-10" on="1"/>
        <pt x="1069" y="-25" on="0"/>
        <pt x="1052" y="-40" on="0"/>
        <pt x="1038" y="-40" on="1"/>
        <pt x="1016" y="-40" on="0"/>
        <pt x="978" y="0" on="0"/>
        <pt x="958" y="0" on="1"/>
        <pt x="152" y="0" on="1"/>
        <pt x="136" y="0" on="0"/>
        <pt x="118" y="12" on="0"/>
        <pt x="118" y="24" on="1"/>
        <pt x="118" y="44" on="0"/>
        <pt x="156" y="52" on="1"/>
        <pt x="208" y="62" on="1"/>
        <pt x="247" y="70" on="0"/>
        <pt x="290" y="111" on="0"/>
        <pt x="290" y="150" on="1"/>
        <pt x="290" y="1250" on="1"/>
        <pt x="290" y="1289" on="0"/>
        <pt x="247" y="1331" on="0"/>
        <pt x="208" y="1338" on="1"/>
        <pt x="156" y="1348" on="1"/>
        <pt x="118" y="1356" on="0"/>
      </contour>
    </TTGlyph>
    <TTGlyph name="F" xMin="118" yMin="0" xMax="1041" yMax="1456">
      <contour>
        <pt x="840" y="1400" on="1"/>
        <pt x="855" y="1400" on="0"/>
        <pt x="883" y="1428" on="0"/>
        <pt x="912" y="1456" on="0"/>
        <pt x="928" y="1456" on="1"/>
        <pt x="942" y="1456" on="0"/>
        <pt x="958" y="1441" on="0"/>
        <pt x="962" y="1426" on="1"/>
        <pt x="1036" y="1141" on="1"/>
        <pt x="1041" y="1123" on="0"/>
        <pt x="1030" y="1104" on="0"/>
        <pt x="1018" y="1102" on="1"/>
        <pt x="1007" y="1100" on="0"/>
        <pt x="988" y="1115" on="0"/>
        <pt x="980" y="1133" on="1"/>
        <pt x="940" y="1230" on="0"/>
        <pt x="870" y="1318" on="0"/>
        <pt x="793" y="1342" on="0"/>
        <pt x="740" y="1342" on="1"/>
        <pt x="372" y="1342" on="1"/>
        <pt x="372" y="150" on="1"/>
        <pt x="372" y="111" on="0"/>
        <pt x="415" y="67" on="0"/>
        <pt x="454" y="62" on="1"/>
        <pt x="546" y="52" on="1"/>
        <pt x="584" y="47" on="0"/>
        <pt x="584" y="24" on="1"/>
        <pt x="584" y="12" on="0"/>
        <pt x="567" y="0" on="0"/>
        <pt x="550" y="0" on="1"/>
        <pt x="152" y="0" on="1"/>
        <pt x="136" y="0" on="0"/>
        <pt x="118" y="12" on="0"/>
        <pt x="118" y="24" on="1"/>
        <pt x="118" y="44" on="0"/>
        <pt x="156" y="52" on="1"/>
        <pt x="208" y="62" on="1"/>
        <pt x="247" y="70" on="0"/>
        <pt x="290" y="111" on="0"/>
        <pt x="290" y="150" on="1"/>
        <pt x="290" y="1250" on="1"/>
        <pt x="290" y="1289" on="0"/>
        <pt x="247" y="1331" on="0"/>
        <pt x="208" y="1338" on="1"/>
        <pt x="156" y="1348" on="1"/>
        <pt x="118" y="1356" on="0"/>
        <pt x="118" y="1376" on="1"/>
        <pt x="118" y="1388" on="0"/>
        <pt x="136" y="1400" on="0"/>
        <pt x="152" y="1400" on="1"/>
      </contour>
      <contour>
        <pt x="312" y="684" on="1"/>
        <pt x="698" y="684" on="1"/>
        <pt x="766" y="684" on="0"/>
        <pt x="815" y="727" on="0"/>
        <pt x="817" y="785" on="1"/>
        <pt x="819" y="826" on="0"/>
        <pt x="835" y="829" on="1"/>
        <pt x="859" y="834" on="0"/>
        <pt x="867" y="802" on="1"/>
        <pt x="936" y="536" on="1"/>
        <pt x="944" y="503" on="0"/>
        <pt x="921" y="497" on="1"/>
        <pt x="901" y="492" on="0"/>
        <pt x="886" y="524" on="1"/>
        <pt x="869" y="561" on="0"/>
        <pt x="834" y="606" on="0"/>
        <pt x="787" y="626" on="0"/>
        <pt x="750" y="626" on="1"/>
        <pt x="312" y="626" on="1"/>
      </contour>
    </TTGlyph>
    <TTGlyph name="G" xMin="110" yMin="-34" xMax="1421" yMax="1428">
      <contour>
        <pt x="1249" y="25" on="1"/>
        <pt x="1249" y="-6" on="0"/>
        <pt x="1233" y="-34" on="0"/>
        <pt x="1217" y="-34" on="1"/>
        <pt x="1198" y="-34" on="0"/>
        <pt x="1181" y="-6" on="0"/>
        <pt x="1173" y="32" on="0"/>
        <pt x="1163" y="60" on="0"/>
        <pt x="1152" y="60" on="1"/>
        <pt x="1139" y="60" on="0"/>
        <pt x="1055" y="13" on="0"/>
        <pt x="904" y="-34" on="0"/>
        <pt x="789" y="-34" on="1"/>
        <pt x="631" y="-34" on="0"/>
        <pt x="380" y="74" on="0"/>
        <pt x="203" y="270" on="0"/>
        <pt x="110" y="535" on="0"/>
        <pt x="110" y="692" on="1"/>
        <pt x="110" y="852" on="0"/>
        <pt x="207" y="1121" on="0"/>
        <pt x="384" y="1319" on="0"/>
        <pt x="626" y="1428" on="0"/>
        <pt x="770" y="1428" on="1"/>
        <pt x="884" y="1428" on="0"/>
        <pt x="1030" y="1380" on="0"/>
        <pt x="1111" y="1331" on="0"/>
        <pt x="1125" y="1331" on="1"/>
        <pt x="1137" y="1331" on="0"/>
        <pt x="1146" y="1370" on="0"/>
        <pt x="1161" y="1408" on="0"/>
        <pt x="1181" y="1408" on="1"/>
        <pt x="1192" y="1408" on="0"/>
        <pt x="1207" y="1396" on="0"/>
        <pt x="1213" y="1378" on="1"/>
        <pt x="1328" y="1029" on="1"/>
        <pt x="1333" y="1014" on="0"/>
        <pt x="1320" y="990" on="0"/>
        <pt x="1306" y="990" on="1"/>
        <pt x="1296" y="990" on="0"/>
        <pt x="1281" y="1005" on="0"/>
        <pt x="1276" y="1015" on="1"/>
        <pt x="1212" y="1143" on="0"/>
        <pt x="1054" y="1298" on="0"/>
        <pt x="863" y="1368" on="0"/>
        <pt x="749" y="1368" on="1"/>
        <pt x="596" y="1368" on="0"/>
        <pt x="343" y="1210" on="0"/>
        <pt x="192" y="918" on="0"/>
        <pt x="192" y="717" on="1"/>
        <pt x="192" y="506" on="0"/>
        <pt x="356" y="199" on="0"/>
        <pt x="633" y="32" on="0"/>
        <pt x="804" y="32" on="1"/>
        <pt x="896" y="32" on="0"/>
        <pt x="1033" y="60" on="0"/>
        <pt x="1123" y="112" on="0"/>
        <pt x="1167" y="184" on="0"/>
        <pt x="1167" y="229" on="1"/>
        <pt x="1167" y="428" on="1"/>
        <pt x="1167" y="467" on="0"/>
        <pt x="1124" y="510" on="0"/>
        <pt x="1085" y="516" on="1"/>
        <pt x="1018" y="526" on="1"/>
        <pt x="1000" y="529" on="0"/>
        <pt x="980" y="542" on="0"/>
        <pt x="980" y="554" on="1"/>
        <pt x="980" y="566" on="0"/>
        <pt x="998" y="578" on="0"/>
        <pt x="1014" y="578" on="1"/>
        <pt x="1387" y="578" on="1"/>
        <pt x="1404" y="578" on="0"/>
        <pt x="1421" y="566" on="0"/>
        <pt x="1421" y="554" on="1"/>
        <pt x="1421" y="542" on="0"/>
        <pt x="1401" y="530" on="0"/>
        <pt x="1383" y="526" on="1"/>
        <pt x="1331" y="516" on="1"/>
        <pt x="1292" y="509" on="0"/>
        <pt x="1249" y="467" on="0"/>
        <pt x="1249" y="428" on="1"/>
      </contour>
    </TTGlyph>
    <TTGlyph name="H" xMin="118" yMin="0" xMax="1447" yMax="1400">
      <contour>
        <pt x="320" y="692" on="1"/>
        <pt x="1228" y="692" on="1"/>
        <pt x="1228" y="634" on="1"/>
        <pt x="320" y="634" on="1"/>
      </contour>
      <contour>
        <pt x="370" y="150" on="1"/>
        <pt x="370" y="111" on="0"/>
        <pt x="413" y="70" on="0"/>
        <pt x="452" y="62" on="1"/>
        <pt x="504" y="52" on="1"/>
        <pt x="542" y="44" on="0"/>
        <pt x="542" y="24" on="1"/>
        <pt x="542" y="12" on="0"/>
        <pt x="525" y="0" on="0"/>
        <pt x="508" y="0" on="1"/>
        <pt x="152" y="0" on="1"/>
        <pt x="136" y="0" on="0"/>
        <pt x="118" y="12" on="0"/>
        <pt x="118" y="24" on="1"/>
        <pt x="118" y="44" on="0"/>
        <pt x="156" y="52" on="1"/>
        <pt x="208" y="62" on="1"/>
        <pt x="247" y="70" on="0"/>
        <pt x="290" y="111" on="0"/>
        <pt x="290" y="150" on="1"/>
        <pt x="290" y="1250" on="1"/>
        <pt x="290" y="1289" on="0"/>
        <pt x="247" y="1331" on="0"/>
        <pt x="208" y="1338" on="1"/>
        <pt x="156" y="1348" on="1"/>
        <pt x="118" y="1356" on="0"/>
        <pt x="118" y="1376" on="1"/>
        <pt x="118" y="1388" on="0"/>
        <pt x="136" y="1400" on="0"/>
        <pt x="152" y="1400" on="1"/>
        <pt x="508" y="1400" on="1"/>
        <pt x="525" y="1400" on="0"/>
        <pt x="542" y="1388" on="0"/>
        <pt x="542" y="1376" on="1"/>
        <pt x="542" y="1356" on="0"/>
        <pt x="504" y="1348" on="1"/>
        <pt x="452" y="1338" on="1"/>
        <pt x="413" y="1331" on="0"/>
        <pt x="370" y="1289" on="0"/>
        <pt x="370" y="1250" on="1"/>
      </contour>
      <contour>
        <pt x="1275" y="150" on="1"/>
        <pt x="1275" y="111" on="0"/>
        <pt x="1318" y="70" on="0"/>
        <pt x="1357" y="62" on="1"/>
        <pt x="1409" y="52" on="1"/>
        <pt x="1447" y="44" on="0"/>
        <pt x="1447" y="24" on="1"/>
        <pt x="1447" y="12" on="0"/>
        <pt x="1430" y="0" on="0"/>
        <pt x="1413" y="0" on="1"/>
        <pt x="1057" y="0" on="1"/>
        <pt x="1041" y="0" on="0"/>
        <pt x="1023" y="12" on="0"/>
        <pt x="1023" y="24" on="1"/>
        <pt x="1023" y="44" on="0"/>
        <pt x="1061" y="52" on="1"/>
        <pt x="1113" y="62" on="1"/>
        <pt x="1152" y="70" on="0"/>
        <pt x="1195" y="111" on="0"/>
        <pt x="1195" y="150" on="1"/>
        <pt x="1195" y="1250" on="1"/>
        <pt x="1195" y="1289" on="0"/>
        <pt x="1152" y="1331" on="0"/>
        <pt x="1113" y="1338" on="1"/>
        <pt x="1061" y="1348" on="1"/>
        <pt x="1023" y="1356" on="0"/>
        <pt x="1023" y="1376" on="1"/>
        <pt x="1023" y="1388" on="0"/>
        <pt x="1041" y="1400" on="0"/>
        <pt x="1057" y="1400" on="1"/>
        <pt x="1413" y="1400" on="1"/>
        <pt x="1430" y="1400" on="0"/>
        <pt x="1447" y="1388" on="0"/>
        <pt x="1447" y="1376" on="1"/>
        <pt x="1447" y="1356" on="0"/>
        <pt x="1409" y="1348" on="1"/>
        <pt x="1357" y="1338" on="1"/>
        <pt x="1318" y="1331" on="0"/>
        <pt x="1275" y="1289" on="0"/>
        <pt x="1275" y="1250" on="1"/>
      </contour>
    </TTGlyph>
    <TTGlyph name="I" xMin="108" yMin="0" xMax="534" yMax="1400">
      <contour>
        <pt x="362" y="150" on="1"/>
        <pt x="362" y="111" on="0"/>
        <pt x="405" y="70" on="0"/>
        <pt x="444" y="62" on="1"/>
        <pt x="496" y="52" on="1"/>
        <pt x="534" y="44" on="0"/>
        <pt x="534" y="24" on="1"/>
        <pt x="534" y="12" on="0"/>
        <pt x="517" y="0" on="0"/>
        <pt x="500" y="0" on="1"/>
        <pt x="142" y="0" on="1"/>
        <pt x="126" y="0" on="0"/>
        <pt x="108" y="12" on="0"/>
        <pt x="108" y="24" on="1"/>
        <pt x="108" y="44" on="0"/>
        <pt x="146" y="52" on="1"/>
        <pt x="198" y="62" on="1"/>
        <pt x="237" y="70" on="0"/>
        <pt x="280" y="111" on="0"/>
        <pt x="280" y="150" on="1"/>
        <pt x="280" y="1250" on="1"/>
        <pt x="280" y="1289" on="0"/>
        <pt x="237" y="1331" on="0"/>
        <pt x="198" y="1338" on="1"/>
        <pt x="146" y="1348" on="1"/>
        <pt x="108" y="1356" on="0"/>
        <pt x="108" y="1376" on="1"/>
        <pt x="108" y="1388" on="0"/>
        <pt x="126" y="1400" on="0"/>
        <pt x="142" y="1400" on="1"/>
        <pt x="500" y="1400" on="1"/>
        <pt x="517" y="1400" on="0"/>
        <pt x="534" y="1388" on="0"/>
        <pt x="534" y="1376" on="1"/>
        <pt x="534" y="1356" on="0"/>
        <pt x="496" y="1348" on="1"/>
        <pt x="444" y="1338" on="1"/>
        <pt x="405" y="1331" on="0"/>
        <pt x="362" y="1289" on="0"/>
        <pt x="362" y="1250" on="1"/>
      </contour>
    </TTGlyph>
    <TTGlyph name="J" xMin="111" yMin="-26" xMax="664" yMax="1400">
      <contour>
        <pt x="598" y="198" on="1"/>
        <pt x="598" y="97" on="0"/>
        <pt x="445" y="-26" on="0"/>
        <pt x="331" y="-26" on="1"/>
        <pt x="222" y="-26" on="0"/>
        <pt x="111" y="85" on="0"/>
        <pt x="111" y="166" on="1"/>
        <pt x="111" y="205" on="0"/>
        <pt x="144" y="252" on="0"/>
        <pt x="175" y="252" on="1"/>
        <pt x="195" y="252" on="0"/>
        <pt x="218" y="222" on="0"/>
        <pt x="218" y="197" on="1"/>
        <pt x="218" y="152" on="1"/>
        <pt x="218" y="98" on="0"/>
        <pt x="275" y="34" on="0"/>
        <pt x="351" y="34" on="1"/>
        <pt x="427" y="34" on="0"/>
        <pt x="526" y="112" on="0"/>
        <pt x="526" y="191" on="1"/>
        <pt x="526" y="244" on="0"/>
        <pt x="491" y="317" on="0"/>
        <pt x="445" y="390" on="0"/>
        <pt x="410" y="488" on="0"/>
        <pt x="410" y="566" on="1"/>
        <pt x="410" y="1250" on="1"/>
        <pt x="410" y="1289" on="0"/>
        <pt x="367" y="1331" on="0"/>
        <pt x="328" y="1338" on="1"/>
        <pt x="276" y="1348" on="1"/>
        <pt x="258" y="1352" on="0"/>
        <pt x="238" y="1364" on="0"/>
        <pt x="238" y="1376" on="1"/>
        <pt x="238" y="1388" on="0"/>
        <pt x="256" y="1400" on="0"/>
        <pt x="272" y="1400" on="1"/>
        <pt x="630" y="1400" on="1"/>
        <pt x="647" y="1400" on="0"/>
        <pt x="664" y="1388" on="0"/>
        <pt x="664" y="1376" on="1"/>
        <pt x="664" y="1356" on="0"/>
        <pt x="626" y="1348" on="1"/>
        <pt x="574" y="1338" on="1"/>
        <pt x="535" y="1331" on="0"/>
        <pt x="492" y="1289" on="0"/>
        <pt x="492" y="1250" on="1"/>
        <pt x="492" y="576" on="1"/>
        <pt x="492" y="503" on="0"/>
        <pt x="524" y="406" on="0"/>
        <pt x="566" y="330" on="0"/>
        <pt x="598" y="252" on="0"/>
      </contour>
    </TTGlyph>
    <TTGlyph name="K" xMin="118" yMin="0" xMax="1385" yMax="1400">
      <contour>
        <pt x="311" y="527" on="1"/>
        <pt x="1067" y="1293" on="1"/>
        <pt x="1075" y="1301" on="0"/>
        <pt x="1077" y="1319" on="0"/>
        <pt x="1059" y="1334" on="0"/>
        <pt x="1037" y="1337" on="1"/>
        <pt x="957" y="1348" on="1"/>
        <pt x="919" y="1353" on="0"/>
        <pt x="919" y="1376" on="1"/>
        <pt x="919" y="1388" on="0"/>
        <pt x="937" y="1400" on="0"/>
        <pt x="953" y="1400" on="1"/>
        <pt x="1266" y="1400" on="1"/>
        <pt x="1283" y="1400" on="0"/>
        <pt x="1300" y="1388" on="0"/>
        <pt x="1300" y="1376" on="1"/>
        <pt x="1300" y="1364" on="0"/>
        <pt x="1279" y="1353" on="0"/>
        <pt x="1245" y="1346" on="1"/>
        <pt x="1223" y="1342" on="0"/>
        <pt x="1193" y="1330" on="0"/>
        <pt x="1168" y="1311" on="0"/>
        <pt x="1140" y="1283" on="0"/>
        <pt x="1120" y="1263" on="1"/>
        <pt x="328" y="463" on="1"/>
      </contour>
      <contour>
        <pt x="630" y="805" on="1"/>
        <pt x="693" y="857" on="1"/>
        <pt x="1193" y="120" on="1"/>
        <pt x="1213" y="92" on="0"/>
        <pt x="1277" y="65" on="0"/>
        <pt x="1308" y="59" on="1"/>
        <pt x="1355" y="49" on="0"/>
        <pt x="1385" y="38" on="0"/>
        <pt x="1385" y="24" on="1"/>
        <pt x="1385" y="12" on="0"/>
        <pt x="1368" y="0" on="0"/>
        <pt x="1351" y="0" on="1"/>
        <pt x="996" y="0" on="1"/>
        <pt x="980" y="0" on="0"/>
        <pt x="962" y="12" on="0"/>
        <pt x="962" y="24" on="1"/>
        <pt x="962" y="36" on="0"/>
        <pt x="982" y="50" on="0"/>
        <pt x="1000" y="52" on="1"/>
        <pt x="1080" y="62" on="1"/>
        <pt x="1107" y="65" on="0"/>
        <pt x="1110" y="96" on="0"/>
        <pt x="1098" y="114" on="1"/>
      </contour>
      <contour>
        <pt x="372" y="150" on="1"/>
        <pt x="372" y="111" on="0"/>
        <pt x="415" y="70" on="0"/>
        <pt x="454" y="62" on="1"/>
        <pt x="506" y="52" on="1"/>
        <pt x="544" y="44" on="0"/>
        <pt x="544" y="24" on="1"/>
        <pt x="544" y="14" on="0"/>
        <pt x="527" y="0" on="0"/>
        <pt x="510" y="0" on="1"/>
        <pt x="152" y="0" on="1"/>
        <pt x="136" y="0" on="0"/>
        <pt x="118" y="12" on="0"/>
        <pt x="118" y="24" on="1"/>
        <pt x="118" y="44" on="0"/>
        <pt x="156" y="52" on="1"/>
        <pt x="208" y="62" on="1"/>
        <pt x="247" y="70" on="0"/>
        <pt x="290" y="111" on="0"/>
        <pt x="290" y="150" on="1"/>
        <pt x="290" y="1250" on="1"/>
        <pt x="290" y="1289" on="0"/>
        <pt x="247" y="1331" on="0"/>
        <pt x="208" y="1338" on="1"/>
        <pt x="156" y="1348" on="1"/>
        <pt x="118" y="1356" on="0"/>
        <pt x="118" y="1376" on="1"/>
        <pt x="118" y="1388" on="0"/>
        <pt x="136" y="1400" on="0"/>
        <pt x="152" y="1400" on="1"/>
        <pt x="510" y="1400" on="1"/>
        <pt x="527" y="1400" on="0"/>
        <pt x="544" y="1387" on="0"/>
        <pt x="544" y="1376" on="1"/>
        <pt x="544" y="1356" on="0"/>
        <pt x="506" y="1348" on="1"/>
        <pt x="454" y="1338" on="1"/>
        <pt x="415" y="1331" on="0"/>
        <pt x="372" y="1289" on="0"/>
        <pt x="372" y="1250" on="1"/>
      </contour>
    </TTGlyph>
    <TTGlyph name="L" xMin="118" yMin="-40" xMax="1099" yMax="1400">
      <contour>
        <pt x="506" y="1348" on="1"/>
        <pt x="454" y="1338" on="1"/>
        <pt x="415" y="1331" on="0"/>
        <pt x="372" y="1289" on="0"/>
        <pt x="372" y="1250" on="1"/>
        <pt x="372" y="150" on="1"/>
        <pt x="372" y="105" on="0"/>
        <pt x="430" y="58" on="0"/>
        <pt x="495" y="58" on="1"/>
        <pt x="769" y="58" on="1"/>
        <pt x="823" y="58" on="0"/>
        <pt x="907" y="90" on="0"/>
        <pt x="973" y="167" on="0"/>
        <pt x="999" y="233" on="1"/>
        <pt x="1049" y="358" on="1"/>
        <pt x="1055" y="372" on="0"/>
        <pt x="1070" y="384" on="0"/>
        <pt x="1080" y="382" on="1"/>
        <pt x="1091" y="381" on="0"/>
        <pt x="1099" y="361" on="0"/>
        <pt x="1095" y="344" on="1"/>
        <pt x="1018" y="-10" on="1"/>
        <pt x="1015" y="-25" on="0"/>
        <pt x="998" y="-40" on="0"/>
        <pt x="984" y="-40" on="1"/>
        <pt x="962" y="-40" on="0"/>
        <pt x="924" y="0" on="0"/>
        <pt x="904" y="0" on="1"/>
        <pt x="152" y="0" on="1"/>
        <pt x="136" y="0" on="0"/>
        <pt x="118" y="12" on="0"/>
        <pt x="118" y="24" on="1"/>
        <pt x="118" y="44" on="0"/>
        <pt x="156" y="52" on="1"/>
        <pt x="208" y="62" on="1"/>
        <pt x="247" y="70" on="0"/>
        <pt x="290" y="111" on="0"/>
        <pt x="290" y="150" on="1"/>
        <pt x="290" y="1250" on="1"/>
        <pt x="290" y="1289" on="0"/>
        <pt x="247" y="1331" on="0"/>
        <pt x="208" y="1338" on="1"/>
        <pt x="156" y="1348" on="1"/>
        <pt x="118" y="1356" on="0"/>
        <pt x="118" y="1376" on="1"/>
        <pt x="118" y="1388" on="0"/>
        <pt x="136" y="1400" on="0"/>
        <pt x="152" y="1400" on="1"/>
        <pt x="510" y="1400" on="1"/>
        <pt x="527" y="1400" on="0"/>
        <pt x="544" y="1388" on="0"/>
        <pt x="544" y="1376" on="1"/>
        <pt x="544" y="1356" on="0"/>
      </contour>
    </TTGlyph>
    <TTGlyph name="M" xMin="68" yMin="0" xMax="1630" yMax="1400">
      <contour>
        <pt x="863" y="224" on="1"/>
        <pt x="831" y="196" on="1"/>
        <pt x="1324" y="1370" on="1"/>
        <pt x="1331" y="1387" on="0"/>
        <pt x="1353" y="1400" on="0"/>
        <pt x="1374" y="1400" on="1"/>
        <pt x="1504" y="1400" on="1"/>
        <pt x="1521" y="1400" on="0"/>
        <pt x="1538" y="1388" on="0"/>
        <pt x="1538" y="1376" on="1"/>
        <pt x="1538" y="1364" on="0"/>
        <pt x="1518" y="1352" on="0"/>
        <pt x="1500" y="1348" on="1"/>
        <pt x="1448" y="1338" on="1"/>
        <pt x="1399" y="1328" on="0"/>
        <pt x="1366" y="1271" on="0"/>
        <pt x="1372" y="1194" on="1"/>
        <pt x="1458" y="153" on="1"/>
        <pt x="1462" y="109" on="0"/>
        <pt x="1501" y="70" on="0"/>
        <pt x="1540" y="62" on="1"/>
        <pt x="1592" y="52" on="1"/>
        <pt x="1610" y="48" on="0"/>
        <pt x="1630" y="36" on="0"/>
        <pt x="1630" y="24" on="1"/>
        <pt x="1630" y="12" on="0"/>
        <pt x="1613" y="0" on="0"/>
        <pt x="1596" y="0" on="1"/>
        <pt x="1238" y="0" on="1"/>
        <pt x="1222" y="0" on="0"/>
        <pt x="1204" y="12" on="0"/>
        <pt x="1204" y="24" on="1"/>
        <pt x="1204" y="44" on="0"/>
        <pt x="1242" y="52" on="1"/>
        <pt x="1294" y="62" on="1"/>
        <pt x="1335" y="70" on="0"/>
        <pt x="1379" y="112" on="0"/>
        <pt x="1376" y="152" on="1"/>
        <pt x="1288" y="1200" on="1"/>
        <pt x="1317" y="1202" on="1"/>
        <pt x="861" y="118" on="1"/>
        <pt x="856" y="106" on="0"/>
        <pt x="846" y="96" on="0"/>
        <pt x="840" y="96" on="1"/>
        <pt x="835" y="96" on="0"/>
        <pt x="828" y="101" on="0"/>
        <pt x="822" y="111" on="0"/>
        <pt x="819" y="118" on="1"/>
        <pt x="355" y="1228" on="1"/>
        <pt x="400" y="1250" on="1"/>
        <pt x="298" y="160" on="1"/>
        <pt x="294" y="114" on="0"/>
        <pt x="331" y="71" on="0"/>
        <pt x="378" y="62" on="1"/>
        <pt x="430" y="52" on="1"/>
        <pt x="448" y="48" on="0"/>
        <pt x="468" y="36" on="0"/>
        <pt x="468" y="24" on="1"/>
        <pt x="468" y="12" on="0"/>
        <pt x="451" y="0" on="0"/>
        <pt x="434" y="0" on="1"/>
        <pt x="102" y="0" on="1"/>
        <pt x="86" y="0" on="0"/>
        <pt x="68" y="12" on="0"/>
        <pt x="68" y="24" on="1"/>
        <pt x="68" y="36" on="0"/>
        <pt x="88" y="48" on="0"/>
        <pt x="106" y="52" on="1"/>
        <pt x="158" y="62" on="1"/>
        <pt x="200" y="70" on="0"/>
        <pt x="236" y="115" on="0"/>
        <pt x="240" y="160" on="1"/>
        <pt x="343" y="1248" on="1"/>
        <pt x="346" y="1283" on="0"/>
        <pt x="305" y="1330" on="0"/>
        <pt x="261" y="1338" on="1"/>
        <pt x="209" y="1348" on="1"/>
        <pt x="191" y="1352" on="0"/>
        <pt x="171" y="1364" on="0"/>
        <pt x="171" y="1376" on="1"/>
        <pt x="171" y="1400" on="0"/>
        <pt x="205" y="1400" on="1"/>
        <pt x="335" y="1400" on="1"/>
        <pt x="356" y="1400" on="0"/>
        <pt x="379" y="1387" on="0"/>
        <pt x="385" y="1372" on="1"/>
      </contour>
    </TTGlyph>
    <TTGlyph name="N" xMin="128" yMin="0" xMax="1450" yMax="1400">
      <contour>
        <pt x="536" y="24" on="1"/>
        <pt x="536" y="12" on="0"/>
        <pt x="519" y="0" on="0"/>
        <pt x="502" y="0" on="1"/>
        <pt x="162" y="0" on="1"/>
        <pt x="146" y="0" on="0"/>
        <pt x="128" y="12" on="0"/>
        <pt x="128" y="24" on="1"/>
        <pt x="128" y="44" on="0"/>
        <pt x="166" y="52" on="1"/>
        <pt x="218" y="62" on="1"/>
        <pt x="257" y="70" on="0"/>
        <pt x="300" y="111" on="0"/>
        <pt x="300" y="150" on="1"/>
        <pt x="300" y="1160" on="1"/>
        <pt x="300" y="1191" on="0"/>
        <pt x="273" y="1236" on="0"/>
        <pt x="252" y="1260" on="1"/>
        <pt x="162" y="1362" on="1"/>
        <pt x="152" y="1373" on="0"/>
        <pt x="142" y="1386" on="0"/>
        <pt x="142" y="1390" on="1"/>
        <pt x="142" y="1395" on="0"/>
        <pt x="151" y="1400" on="0"/>
        <pt x="164" y="1400" on="1"/>
        <pt x="226" y="1400" on="1"/>
        <pt x="243" y="1400" on="0"/>
        <pt x="267" y="1388" on="0"/>
        <pt x="278" y="1374" on="1"/>
        <pt x="1255" y="168" on="1"/>
        <pt x="1217" y="144" on="1"/>
        <pt x="1217" y="1250" on="1"/>
        <pt x="1217" y="1289" on="0"/>
        <pt x="1173" y="1331" on="0"/>
        <pt x="1132" y="1338" on="1"/>
        <pt x="1080" y="1348" on="1"/>
        <pt x="1042" y="1356" on="0"/>
        <pt x="1042" y="1376" on="1"/>
        <pt x="1042" y="1388" on="0"/>
        <pt x="1060" y="1400" on="0"/>
        <pt x="1076" y="1400" on="1"/>
        <pt x="1416" y="1400" on="1"/>
        <pt x="1433" y="1400" on="0"/>
        <pt x="1450" y="1388" on="0"/>
        <pt x="1450" y="1376" on="1"/>
        <pt x="1450" y="1356" on="0"/>
        <pt x="1412" y="1348" on="1"/>
        <pt x="1360" y="1338" on="1"/>
        <pt x="1321" y="1331" on="0"/>
        <pt x="1278" y="1289" on="0"/>
        <pt x="1278" y="1250" on="1"/>
        <pt x="1278" y="154" on="1"/>
        <pt x="1278" y="139" on="0"/>
        <pt x="1293" y="118" on="0"/>
        <pt x="1302" y="106" on="1"/>
        <pt x="1350" y="48" on="1"/>
        <pt x="1358" y="39" on="0"/>
        <pt x="1368" y="22" on="0"/>
        <pt x="1368" y="16" on="1"/>
        <pt x="1368" y="10" on="0"/>
        <pt x="1357" y="0" on="0"/>
        <pt x="1342" y="0" on="1"/>
        <pt x="1246" y="0" on="1"/>
        <pt x="1222" y="0" on="0"/>
        <pt x="1222" y="22" on="1"/>
        <pt x="1222" y="48" on="0"/>
        <pt x="1207" y="85" on="0"/>
        <pt x="1184" y="114" on="1"/>
        <pt x="325" y="1176" on="1"/>
        <pt x="361" y="1190" on="1"/>
        <pt x="361" y="150" on="1"/>
        <pt x="361" y="111" on="0"/>
        <pt x="406" y="70" on="0"/>
        <pt x="446" y="62" on="1"/>
        <pt x="498" y="52" on="1"/>
        <pt x="536" y="44" on="0"/>
      </contour>
    </TTGlyph>
    <TTGlyph name="O" xMin="110" yMin="-34" xMax="1468" yMax="1428">
      <contour>
        <pt x="782" y="1428" on="1"/>
        <pt x="932" y="1428" on="0"/>
        <pt x="1183" y="1318" on="0"/>
        <pt x="1367" y="1118" on="0"/>
        <pt x="1468" y="847" on="0"/>
        <pt x="1468" y="686" on="1"/>
        <pt x="1468" y="474" on="0"/>
        <pt x="1294" y="149" on="0"/>
        <pt x="986" y="-34" on="0"/>
        <pt x="786" y="-34" on="1"/>
        <pt x="640" y="-34" on="0"/>
        <pt x="393" y="77" on="0"/>
        <pt x="211" y="277" on="0"/>
        <pt x="110" y="549" on="0"/>
        <pt x="110" y="710" on="1"/>
        <pt x="110" y="868" on="0"/>
        <pt x="208" y="1131" on="0"/>
        <pt x="388" y="1323" on="0"/>
        <pt x="634" y="1428" on="0"/>
      </contour>
      <contour>
        <pt x="1386" y="656" on="1"/>
        <pt x="1386" y="780" on="0"/>
        <pt x="1327" y="995" on="0"/>
        <pt x="1217" y="1167" on="0"/>
        <pt x="1063" y="1290" on="0"/>
        <pt x="871" y="1356" on="0"/>
        <pt x="760" y="1356" on="1"/>
        <pt x="593" y="1356" on="0"/>
        <pt x="338" y="1198" on="0"/>
        <pt x="194" y="920" on="0"/>
        <pt x="194" y="740" on="1"/>
        <pt x="194" y="614" on="0"/>
        <pt x="252" y="397" on="0"/>
        <pt x="361" y="222" on="0"/>
        <pt x="513" y="98" on="0"/>
        <pt x="704" y="32" on="0"/>
        <pt x="814" y="32" on="1"/>
        <pt x="982" y="32" on="0"/>
        <pt x="1240" y="192" on="0"/>
        <pt x="1386" y="473" on="0"/>
      </contour>
    </TTGlyph>
    <TTGlyph name="P" xMin="118" yMin="0" xMax="1134" yMax="1400">
      <contour>
        <pt x="1134" y="919" on="1"/>
        <pt x="1134" y="789" on="0"/>
        <pt x="1008" y="598" on="0"/>
        <pt x="790" y="494" on="0"/>
        <pt x="650" y="494" on="1"/>
        <pt x="568" y="494" on="0"/>
        <pt x="383" y="528" on="0"/>
        <pt x="316" y="566" on="1"/>
        <pt x="330" y="624" on="1"/>
        <pt x="378" y="594" on="0"/>
        <pt x="497" y="564" on="0"/>
        <pt x="609" y="554" on="0"/>
        <pt x="644" y="554" on="1"/>
        <pt x="764" y="554" on="0"/>
        <pt x="944" y="639" on="0"/>
        <pt x="1044" y="802" on="0"/>
        <pt x="1044" y="919" on="1"/>
        <pt x="1044" y="1041" on="0"/>
        <pt x="924" y="1232" on="0"/>
        <pt x="695" y="1342" on="0"/>
        <pt x="532" y="1342" on="1"/>
        <pt x="372" y="1342" on="1"/>
        <pt x="372" y="150" on="1"/>
        <pt x="372" y="111" on="0"/>
        <pt x="415" y="67" on="0"/>
        <pt x="454" y="62" on="1"/>
        <pt x="536" y="52" on="1"/>
        <pt x="574" y="47" on="0"/>
        <pt x="574" y="24" on="1"/>
        <pt x="574" y="12" on="0"/>
        <pt x="557" y="0" on="0"/>
        <pt x="540" y="0" on="1"/>
        <pt x="152" y="0" on="1"/>
        <pt x="136" y="0" on="0"/>
        <pt x="118" y="12" on="0"/>
        <pt x="118" y="24" on="1"/>
        <pt x="118" y="44" on="0"/>
        <pt x="156" y="52" on="1"/>
        <pt x="208" y="62" on="1"/>
        <pt x="247" y="70" on="0"/>
        <pt x="290" y="111" on="0"/>
        <pt x="290" y="150" on="1"/>
        <pt x="290" y="1250" on="1"/>
        <pt x="290" y="1289" on="0"/>
        <pt x="247" y="1331" on="0"/>
        <pt x="208" y="1338" on="1"/>
        <pt x="156" y="1348" on="1"/>
        <pt x="118" y="1356" on="0"/>
        <pt x="118" y="1376" on="1"/>
        <pt x="118" y="1388" on="0"/>
        <pt x="136" y="1400" on="0"/>
        <pt x="152" y="1400" on="1"/>
        <pt x="532" y="1400" on="1"/>
        <pt x="720" y="1400" on="0"/>
        <pt x="990" y="1271" on="0"/>
        <pt x="1134" y="1053" on="0"/>
      </contour>
    </TTGlyph>
    <TTGlyph name="Q" xMin="110" yMin="-249" xMax="1492" yMax="1428">
      <contour>
        <pt x="782" y="1428" on="1"/>
        <pt x="932" y="1428" on="0"/>
        <pt x="1183" y="1318" on="0"/>
        <pt x="1367" y="1118" on="0"/>
        <pt x="1468" y="847" on="0"/>
        <pt x="1468" y="686" on="1"/>
        <pt x="1468" y="474" on="0"/>
        <pt x="1294" y="149" on="0"/>
        <pt x="986" y="-34" on="0"/>
        <pt x="786" y="-34" on="1"/>
        <pt x="640" y="-34" on="0"/>
        <pt x="393" y="77" on="0"/>
        <pt x="211" y="277" on="0"/>
        <pt x="110" y="549" on="0"/>
        <pt x="110" y="710" on="1"/>
        <pt x="110" y="868" on="0"/>
        <pt x="208" y="1131" on="0"/>
        <pt x="388" y="1323" on="0"/>
        <pt x="634" y="1428" on="0"/>
      </contour>
      <contour>
        <pt x="1386" y="656" on="1"/>
        <pt x="1386" y="780" on="0"/>
        <pt x="1327" y="995" on="0"/>
        <pt x="1217" y="1167" on="0"/>
        <pt x="1063" y="1290" on="0"/>
        <pt x="871" y="1356" on="0"/>
        <pt x="760" y="1356" on="1"/>
        <pt x="593" y="1356" on="0"/>
        <pt x="338" y="1198" on="0"/>
        <pt x="194" y="920" on="0"/>
        <pt x="194" y="740" on="1"/>
        <pt x="194" y="614" on="0"/>
        <pt x="252" y="397" on="0"/>
        <pt x="360" y="222" on="0"/>
        <pt x="513" y="98" on="0"/>
        <pt x="704" y="32" on="0"/>
        <pt x="814" y="32" on="1"/>
        <pt x="982" y="32" on="0"/>
        <pt x="1240" y="192" on="0"/>
        <pt x="1386" y="473" on="0"/>
      </contour>
      <contour>
        <pt x="837" y="358" on="1"/>
        <pt x="831" y="382" on="0"/>
        <pt x="838" y="409" on="0"/>
        <pt x="854" y="409" on="1"/>
        <pt x="865" y="409" on="0"/>
        <pt x="882" y="390" on="0"/>
        <pt x="889" y="364" on="1"/>
        <pt x="926" y="228" on="0"/>
        <pt x="1037" y="33" on="0"/>
        <pt x="1169" y="-92" on="0"/>
        <pt x="1308" y="-151" on="0"/>
        <pt x="1375" y="-151" on="1"/>
        <pt x="1419" y="-151" on="0"/>
        <pt x="1459" y="-132" on="0"/>
        <pt x="1475" y="-132" on="1"/>
        <pt x="1483" y="-132" on="0"/>
        <pt x="1492" y="-140" on="0"/>
        <pt x="1492" y="-147" on="1"/>
        <pt x="1492" y="-152" on="0"/>
        <pt x="1489" y="-163" on="0"/>
        <pt x="1485" y="-177" on="1"/>
        <pt x="1474" y="-212" on="1"/>
        <pt x="1467" y="-233" on="0"/>
        <pt x="1448" y="-249" on="0"/>
        <pt x="1431" y="-249" on="1"/>
        <pt x="1308" y="-249" on="0"/>
        <pt x="1079" y="-130" on="0"/>
        <pt x="894" y="137" on="0"/>
      </contour>
    </TTGlyph>
    <TTGlyph name="R" xMin="118" yMin="0" xMax="1307" yMax="1400">
      <contour>
        <pt x="1134" y="936" on="1"/>
        <pt x="1134" y="834" on="0"/>
        <pt x="1048" y="672" on="0"/>
        <pt x="893" y="564" on="0"/>
        <pt x="789" y="542" on="1"/>
        <pt x="767" y="538" on="0"/>
        <pt x="722" y="531" on="0"/>
        <pt x="675" y="528" on="0"/>
        <pt x="650" y="528" on="1"/>
        <pt x="596" y="528" on="0"/>
        <pt x="475" y="543" on="0"/>
        <pt x="361" y="575" on="0"/>
        <pt x="316" y="600" on="1"/>
        <pt x="330" y="658" on="1"/>
        <pt x="378" y="628" on="0"/>
        <pt x="497" y="598" on="0"/>
        <pt x="609" y="588" on="0"/>
        <pt x="644" y="588" on="1"/>
        <pt x="832" y="588" on="0"/>
        <pt x="1044" y="776" on="0"/>
        <pt x="1044" y="936" on="1"/>
        <pt x="1044" y="1053" on="0"/>
        <pt x="924" y="1237" on="0"/>
        <pt x="695" y="1342" on="0"/>
        <pt x="532" y="1342" on="1"/>
        <pt x="372" y="1342" on="1"/>
        <pt x="372" y="150" on="1"/>
        <pt x="372" y="111" on="0"/>
        <pt x="415" y="67" on="0"/>
        <pt x="454" y="62" on="1"/>
        <pt x="536" y="52" on="1"/>
        <pt x="554" y="50" on="0"/>
        <pt x="574" y="36" on="0"/>
        <pt x="574" y="24" on="1"/>
        <pt x="574" y="0" on="0"/>
        <pt x="540" y="0" on="1"/>
        <pt x="152" y="0" on="1"/>
        <pt x="136" y="0" on="0"/>
        <pt x="118" y="12" on="0"/>
        <pt x="118" y="24" on="1"/>
        <pt x="118" y="44" on="0"/>
        <pt x="156" y="52" on="1"/>
        <pt x="208" y="62" on="1"/>
        <pt x="247" y="70" on="0"/>
        <pt x="290" y="111" on="0"/>
        <pt x="290" y="150" on="1"/>
        <pt x="290" y="1250" on="1"/>
        <pt x="290" y="1289" on="0"/>
        <pt x="247" y="1331" on="0"/>
        <pt x="208" y="1338" on="1"/>
        <pt x="156" y="1348" on="1"/>
        <pt x="118" y="1356" on="0"/>
        <pt x="118" y="1376" on="1"/>
        <pt x="118" y="1388" on="0"/>
        <pt x="136" y="1400" on="0"/>
        <pt x="152" y="1400" on="1"/>
        <pt x="532" y="1400" on="1"/>
        <pt x="720" y="1400" on="0"/>
        <pt x="990" y="1275" on="0"/>
        <pt x="1134" y="1065" on="0"/>
      </contour>
      <contour>
        <pt x="718" y="562" on="1"/>
        <pt x="804" y="576" on="1"/>
        <pt x="1119" y="120" on="1"/>
        <pt x="1139" y="92" on="0"/>
        <pt x="1200" y="65" on="0"/>
        <pt x="1230" y="59" on="1"/>
        <pt x="1277" y="49" on="0"/>
        <pt x="1307" y="38" on="0"/>
        <pt x="1307" y="24" on="1"/>
        <pt x="1307" y="12" on="0"/>
        <pt x="1290" y="0" on="0"/>
        <pt x="1273" y="0" on="1"/>
        <pt x="948" y="0" on="1"/>
        <pt x="914" y="0" on="0"/>
        <pt x="914" y="24" on="1"/>
        <pt x="914" y="36" on="0"/>
        <pt x="934" y="50" on="0"/>
        <pt x="952" y="52" on="1"/>
        <pt x="1002" y="58" on="1"/>
        <pt x="1029" y="61" on="0"/>
        <pt x="1037" y="88" on="0"/>
        <pt x="1020" y="114" on="1"/>
      </contour>
    </TTGlyph>
    <TTGlyph name="S" xMin="124" yMin="-33" xMax="982" yMax="1427">
      <contour>
        <pt x="617" y="-33" on="1"/>
        <pt x="525" y="-33" on="0"/>
        <pt x="388" y="15" on="0"/>
        <pt x="305" y="63" on="0"/>
        <pt x="293" y="63" on="1"/>
        <pt x="284" y="63" on="0"/>
        <pt x="278" y="35" on="0"/>
        <pt x="273" y="-2" on="0"/>
        <pt x="261" y="-30" on="0"/>
        <pt x="247" y="-30" on="1"/>
        <pt x="237" y="-30" on="0"/>
        <pt x="224" y="-14" on="0"/>
        <pt x="219" y="2" on="1"/>
        <pt x="138" y="285" on="1"/>
        <pt x="134" y="300" on="0"/>
        <pt x="144" y="321" on="0"/>
        <pt x="156" y="323" on="1"/>
        <pt x="176" y="327" on="0"/>
        <pt x="192" y="297" on="1"/>
        <pt x="238" y="210" on="0"/>
        <pt x="376" y="89" on="0"/>
        <pt x="538" y="25" on="0"/>
        <pt x="619" y="25" on="1"/>
        <pt x="754" y="25" on="0"/>
        <pt x="898" y="176" on="0"/>
        <pt x="899" y="279" on="1"/>
        <pt x="900" y="351" on="0"/>
        <pt x="840" y="473" on="0"/>
        <pt x="673" y="588" on="0"/>
        <pt x="513" y="648" on="1"/>
        <pt x="374" y="700" on="0"/>
        <pt x="203" y="829" on="0"/>
        <pt x="124" y="985" on="0"/>
        <pt x="124" y="1077" on="1"/>
        <pt x="124" y="1183" on="0"/>
        <pt x="221" y="1340" on="0"/>
        <pt x="391" y="1427" on="0"/>
        <pt x="498" y="1427" on="1"/>
        <pt x="586" y="1427" on="0"/>
        <pt x="712" y="1383" on="0"/>
        <pt x="790" y="1338" on="0"/>
        <pt x="806" y="1338" on="1"/>
        <pt x="821" y="1338" on="0"/>
        <pt x="830" y="1381" on="0"/>
        <pt x="842" y="1424" on="0"/>
        <pt x="859" y="1424" on="1"/>
        <pt x="872" y="1424" on="0"/>
        <pt x="884" y="1410" on="0"/>
        <pt x="888" y="1394" on="1"/>
        <pt x="977" y="1097" on="1"/>
        <pt x="982" y="1081" on="0"/>
        <pt x="975" y="1061" on="0"/>
        <pt x="964" y="1056" on="1"/>
        <pt x="941" y="1048" on="0"/>
        <pt x="924" y="1076" on="1"/>
        <pt x="864" y="1179" on="0"/>
        <pt x="726" y="1308" on="0"/>
        <pt x="573" y="1368" on="0"/>
        <pt x="490" y="1368" on="1"/>
        <pt x="360" y="1368" on="0"/>
        <pt x="202" y="1208" on="0"/>
        <pt x="202" y="1092" on="1"/>
        <pt x="202" y="1017" on="0"/>
        <pt x="264" y="886" on="0"/>
        <pt x="418" y="770" on="0"/>
        <pt x="555" y="716" on="1"/>
        <pt x="715" y="654" on="0"/>
        <pt x="900" y="529" on="0"/>
        <pt x="978" y="382" on="0"/>
        <pt x="977" y="286" on="1"/>
        <pt x="976" y="201" on="0"/>
        <pt x="895" y="56" on="0"/>
        <pt x="736" y="-33" on="0"/>
      </contour>
    </TTGlyph>
    <TTGlyph name="T" xMin="72" yMin="0" xMax="1191" yMax="1456">
      <contour>
        <pt x="272" y="1400" on="1"/>
        <pt x="990" y="1400" on="1"/>
        <pt x="1005" y="1400" on="0"/>
        <pt x="1033" y="1428" on="0"/>
        <pt x="1062" y="1456" on="0"/>
        <pt x="1078" y="1456" on="1"/>
        <pt x="1092" y="1456" on="0"/>
        <pt x="1108" y="1441" on="0"/>
        <pt x="1112" y="1426" on="1"/>
        <pt x="1186" y="1111" on="1"/>
        <pt x="1191" y="1093" on="0"/>
        <pt x="1180" y="1074" on="0"/>
        <pt x="1168" y="1072" on="1"/>
        <pt x="1157" y="1070" on="0"/>
        <pt x="1138" y="1085" on="0"/>
        <pt x="1130" y="1103" on="1"/>
        <pt x="1096" y="1184" on="0"/>
        <pt x="1042" y="1280" on="0"/>
        <pt x="989" y="1327" on="0"/>
        <pt x="929" y="1342" on="0"/>
        <pt x="890" y="1342" on="1"/>
        <pt x="672" y="1342" on="1"/>
        <pt x="672" y="150" on="1"/>
        <pt x="672" y="111" on="0"/>
        <pt x="715" y="67" on="0"/>
        <pt x="754" y="62" on="1"/>
        <pt x="846" y="52" on="1"/>
        <pt x="884" y="47" on="0"/>
        <pt x="884" y="24" on="1"/>
        <pt x="884" y="0" on="0"/>
        <pt x="850" y="0" on="1"/>
        <pt x="412" y="0" on="1"/>
        <pt x="396" y="0" on="0"/>
        <pt x="378" y="12" on="0"/>
        <pt x="378" y="24" on="1"/>
        <pt x="378" y="47" on="0"/>
        <pt x="416" y="52" on="1"/>
        <pt x="508" y="62" on="1"/>
        <pt x="547" y="67" on="0"/>
        <pt x="590" y="111" on="0"/>
        <pt x="590" y="150" on="1"/>
        <pt x="590" y="1342" on="1"/>
        <pt x="372" y="1342" on="1"/>
        <pt x="320" y="1342" on="0"/>
        <pt x="246" y="1313" on="0"/>
        <pt x="177" y="1212" on="0"/>
        <pt x="132" y="1103" on="1"/>
        <pt x="125" y="1085" on="0"/>
        <pt x="105" y="1070" on="0"/>
        <pt x="94" y="1072" on="1"/>
        <pt x="82" y="1074" on="0"/>
        <pt x="72" y="1093" on="0"/>
        <pt x="76" y="1111" on="1"/>
        <pt x="150" y="1426" on="1"/>
        <pt x="154" y="1441" on="0"/>
        <pt x="171" y="1456" on="0"/>
        <pt x="184" y="1456" on="1"/>
        <pt x="200" y="1456" on="0"/>
        <pt x="229" y="1428" on="0"/>
        <pt x="257" y="1400" on="0"/>
      </contour>
    </TTGlyph>
    <TTGlyph name="U" xMin="107" yMin="-30" xMax="1356" yMax="1400">
      <contour>
        <pt x="1150" y="562" on="1"/>
        <pt x="1110" y="1262" on="1"/>
        <pt x="1108" y="1299" on="0"/>
        <pt x="1067" y="1331" on="0"/>
        <pt x="1028" y="1338" on="1"/>
        <pt x="976" y="1348" on="1"/>
        <pt x="938" y="1356" on="0"/>
        <pt x="938" y="1376" on="1"/>
        <pt x="938" y="1388" on="0"/>
        <pt x="956" y="1400" on="0"/>
        <pt x="972" y="1400" on="1"/>
        <pt x="1322" y="1400" on="1"/>
        <pt x="1339" y="1400" on="0"/>
        <pt x="1356" y="1388" on="0"/>
        <pt x="1356" y="1376" on="1"/>
        <pt x="1356" y="1364" on="0"/>
        <pt x="1336" y="1352" on="0"/>
        <pt x="1318" y="1348" on="1"/>
        <pt x="1266" y="1338" on="1"/>
        <pt x="1223" y="1330" on="0"/>
        <pt x="1183" y="1295" on="0"/>
        <pt x="1184" y="1262" on="1"/>
        <pt x="1216" y="562" on="1"/>
        <pt x="1218" y="514" on="0"/>
        <pt x="1223" y="422" on="0"/>
        <pt x="1226" y="372" on="1"/>
        <pt x="1233" y="253" on="0"/>
        <pt x="1126" y="72" on="0"/>
        <pt x="911" y="-30" on="0"/>
        <pt x="756" y="-30" on="1"/>
        <pt x="583" y="-30" on="0"/>
        <pt x="347" y="69" on="0"/>
        <pt x="229" y="248" on="0"/>
        <pt x="234" y="368" on="1"/>
        <pt x="235" y="401" on="0"/>
        <pt x="240" y="503" on="0"/>
        <pt x="246" y="606" on="0"/>
        <pt x="248" y="642" on="1"/>
        <pt x="278" y="1250" on="1"/>
        <pt x="280" y="1288" on="0"/>
        <pt x="237" y="1331" on="0"/>
        <pt x="197" y="1338" on="1"/>
        <pt x="145" y="1348" on="1"/>
        <pt x="107" y="1356" on="0"/>
        <pt x="107" y="1376" on="1"/>
        <pt x="107" y="1388" on="0"/>
        <pt x="125" y="1400" on="0"/>
        <pt x="141" y="1400" on="1"/>
        <pt x="497" y="1400" on="1"/>
        <pt x="514" y="1400" on="0"/>
        <pt x="531" y="1388" on="0"/>
        <pt x="531" y="1376" on="1"/>
        <pt x="531" y="1364" on="0"/>
        <pt x="511" y="1352" on="0"/>
        <pt x="493" y="1348" on="1"/>
        <pt x="441" y="1338" on="1"/>
        <pt x="400" y="1330" on="0"/>
        <pt x="362" y="1291" on="0"/>
        <pt x="360" y="1256" on="1"/>
        <pt x="330" y="652" on="1"/>
        <pt x="326" y="571" on="0"/>
        <pt x="321" y="443" on="0"/>
        <pt x="318" y="384" on="1"/>
        <pt x="311" y="218" on="0"/>
        <pt x="550" y="38" on="0"/>
        <pt x="758" y="38" on="1"/>
        <pt x="890" y="38" on="0"/>
        <pt x="1073" y="119" on="0"/>
        <pt x="1164" y="274" on="0"/>
        <pt x="1158" y="384" on="1"/>
        <pt x="1155" y="447" on="0"/>
        <pt x="1152" y="526" on="0"/>
      </contour>
    </TTGlyph>
    <TTGlyph name="V" xMin="33" yMin="0" xMax="1298" yMax="1400">
      <contour>
        <pt x="911" y="1376" on="1"/>
        <pt x="911" y="1388" on="0"/>
        <pt x="929" y="1400" on="0"/>
        <pt x="945" y="1400" on="1"/>
        <pt x="1264" y="1400" on="1"/>
        <pt x="1281" y="1400" on="0"/>
        <pt x="1298" y="1387" on="0"/>
        <pt x="1298" y="1376" on="1"/>
        <pt x="1298" y="1364" on="0"/>
        <pt x="1278" y="1352" on="0"/>
        <pt x="1260" y="1348" on="1"/>
        <pt x="1213" y="1339" on="1"/>
        <pt x="1191" y="1335" on="0"/>
        <pt x="1162" y="1299" on="0"/>
        <pt x="1148" y="1258" on="1"/>
        <pt x="749" y="152" on="1"/>
        <pt x="742" y="131" on="0"/>
        <pt x="735" y="99" on="0"/>
        <pt x="735" y="84" on="1"/>
        <pt x="735" y="44" on="1"/>
        <pt x="735" y="23" on="0"/>
        <pt x="720" y="0" on="0"/>
        <pt x="705" y="0" on="1"/>
        <pt x="627" y="0" on="1"/>
        <pt x="609" y="0" on="0"/>
        <pt x="593" y="23" on="0"/>
        <pt x="593" y="44" on="1"/>
        <pt x="593" y="84" on="1"/>
        <pt x="593" y="104" on="0"/>
        <pt x="587" y="135" on="0"/>
        <pt x="577" y="162" on="1"/>
        <pt x="167" y="1290" on="1"/>
        <pt x="159" y="1313" on="0"/>
        <pt x="136" y="1335" on="0"/>
        <pt x="118" y="1339" on="1"/>
        <pt x="71" y="1348" on="1"/>
        <pt x="33" y="1356" on="0"/>
        <pt x="33" y="1376" on="1"/>
        <pt x="33" y="1388" on="0"/>
        <pt x="51" y="1400" on="0"/>
        <pt x="67" y="1400" on="1"/>
        <pt x="389" y="1400" on="1"/>
        <pt x="406" y="1400" on="0"/>
        <pt x="423" y="1388" on="0"/>
        <pt x="423" y="1376" on="1"/>
        <pt x="423" y="1364" on="0"/>
        <pt x="403" y="1350" on="0"/>
        <pt x="385" y="1348" on="1"/>
        <pt x="283" y="1338" on="1"/>
        <pt x="256" y="1335" on="0"/>
        <pt x="246" y="1311" on="0"/>
        <pt x="262" y="1266" on="1"/>
        <pt x="691" y="82" on="1"/>
        <pt x="654" y="60" on="1"/>
        <pt x="1086" y="1256" on="1"/>
        <pt x="1103" y="1302" on="0"/>
        <pt x="1086" y="1334" on="0"/>
        <pt x="1051" y="1338" on="1"/>
        <pt x="949" y="1348" on="1"/>
        <pt x="931" y="1350" on="0"/>
        <pt x="911" y="1364" on="0"/>
      </contour>
    </TTGlyph>
    <TTGlyph name="W" xMin="34" yMin="0" xMax="1942" yMax="1400">
      <contour>
        <pt x="978" y="1177" on="1"/>
        <pt x="1021" y="1129" on="1"/>
        <pt x="703" y="152" on="1"/>
        <pt x="696" y="131" on="0"/>
        <pt x="689" y="99" on="0"/>
        <pt x="689" y="84" on="1"/>
        <pt x="689" y="44" on="1"/>
        <pt x="689" y="23" on="0"/>
        <pt x="674" y="0" on="0"/>
        <pt x="659" y="0" on="1"/>
        <pt x="581" y="0" on="1"/>
        <pt x="563" y="0" on="0"/>
        <pt x="547" y="23" on="0"/>
        <pt x="547" y="44" on="1"/>
        <pt x="547" y="84" on="1"/>
        <pt x="547" y="104" on="0"/>
        <pt x="540" y="135" on="0"/>
        <pt x="531" y="162" on="1"/>
        <pt x="168" y="1290" on="1"/>
        <pt x="161" y="1313" on="0"/>
        <pt x="137" y="1335" on="0"/>
        <pt x="119" y="1339" on="1"/>
        <pt x="72" y="1348" on="1"/>
        <pt x="34" y="1356" on="0"/>
        <pt x="34" y="1376" on="1"/>
        <pt x="34" y="1388" on="0"/>
        <pt x="52" y="1400" on="0"/>
        <pt x="68" y="1400" on="1"/>
        <pt x="388" y="1400" on="1"/>
        <pt x="405" y="1400" on="0"/>
        <pt x="422" y="1388" on="0"/>
        <pt x="422" y="1376" on="1"/>
        <pt x="422" y="1351" on="0"/>
        <pt x="384" y="1348" on="1"/>
        <pt x="282" y="1338" on="1"/>
        <pt x="255" y="1335" on="0"/>
        <pt x="247" y="1311" on="0"/>
        <pt x="261" y="1266" on="1"/>
        <pt x="640" y="82" on="1"/>
        <pt x="613" y="60" on="1"/>
      </contour>
      <contour>
        <pt x="1552" y="1376" on="1"/>
        <pt x="1552" y="1388" on="0"/>
        <pt x="1570" y="1400" on="0"/>
        <pt x="1586" y="1400" on="1"/>
        <pt x="1908" y="1400" on="1"/>
        <pt x="1925" y="1400" on="0"/>
        <pt x="1942" y="1387" on="0"/>
        <pt x="1942" y="1376" on="1"/>
        <pt x="1942" y="1356" on="0"/>
        <pt x="1904" y="1348" on="1"/>
        <pt x="1857" y="1339" on="1"/>
        <pt x="1835" y="1335" on="0"/>
        <pt x="1805" y="1299" on="0"/>
        <pt x="1792" y="1258" on="1"/>
        <pt x="1441" y="152" on="1"/>
        <pt x="1434" y="131" on="0"/>
        <pt x="1427" y="99" on="0"/>
        <pt x="1427" y="84" on="1"/>
        <pt x="1427" y="44" on="1"/>
        <pt x="1427" y="23" on="0"/>
        <pt x="1412" y="0" on="0"/>
        <pt x="1397" y="0" on="1"/>
        <pt x="1319" y="0" on="1"/>
        <pt x="1301" y="0" on="0"/>
        <pt x="1285" y="23" on="0"/>
        <pt x="1285" y="44" on="1"/>
        <pt x="1285" y="84" on="1"/>
        <pt x="1285" y="104" on="0"/>
        <pt x="1277" y="135" on="0"/>
        <pt x="1269" y="162" on="1"/>
        <pt x="921" y="1290" on="1"/>
        <pt x="914" y="1313" on="0"/>
        <pt x="890" y="1335" on="0"/>
        <pt x="872" y="1339" on="1"/>
        <pt x="825" y="1348" on="1"/>
        <pt x="807" y="1352" on="0"/>
        <pt x="787" y="1364" on="0"/>
        <pt x="787" y="1376" on="1"/>
        <pt x="787" y="1388" on="0"/>
        <pt x="805" y="1400" on="0"/>
        <pt x="821" y="1400" on="1"/>
        <pt x="1139" y="1400" on="1"/>
        <pt x="1156" y="1400" on="0"/>
        <pt x="1173" y="1388" on="0"/>
        <pt x="1173" y="1376" on="1"/>
        <pt x="1173" y="1364" on="0"/>
        <pt x="1153" y="1350" on="0"/>
        <pt x="1135" y="1348" on="1"/>
        <pt x="1033" y="1338" on="1"/>
        <pt x="1006" y="1335" on="0"/>
        <pt x="998" y="1311" on="0"/>
        <pt x="1012" y="1266" on="1"/>
        <pt x="1377" y="82" on="1"/>
        <pt x="1352" y="60" on="1"/>
        <pt x="1732" y="1256" on="1"/>
        <pt x="1747" y="1303" on="0"/>
        <pt x="1732" y="1334" on="0"/>
        <pt x="1692" y="1338" on="1"/>
        <pt x="1590" y="1348" on="1"/>
        <pt x="1572" y="1350" on="0"/>
        <pt x="1552" y="1364" on="0"/>
      </contour>
    </TTGlyph>
    <TTGlyph name="X" xMin="66" yMin="0" xMax="1370" yMax="1400">
      <contour>
        <pt x="1158" y="179" on="1"/>
        <pt x="1191" y="136" on="0"/>
        <pt x="1231" y="88" on="0"/>
        <pt x="1281" y="63" on="0"/>
        <pt x="1327" y="53" on="1"/>
        <pt x="1347" y="49" on="0"/>
        <pt x="1370" y="38" on="0"/>
        <pt x="1370" y="24" on="1"/>
        <pt x="1370" y="12" on="0"/>
        <pt x="1353" y="0" on="0"/>
        <pt x="1336" y="0" on="1"/>
        <pt x="968" y="0" on="1"/>
        <pt x="952" y="0" on="0"/>
        <pt x="934" y="12" on="0"/>
        <pt x="934" y="24" on="1"/>
        <pt x="934" y="37" on="0"/>
        <pt x="966" y="51" on="0"/>
        <pt x="1018" y="59" on="1"/>
        <pt x="1063" y="67" on="0"/>
        <pt x="1103" y="90" on="0"/>
        <pt x="1101" y="124" on="0"/>
        <pt x="1083" y="148" on="1"/>
        <pt x="286" y="1219" on="1"/>
        <pt x="254" y="1262" on="0"/>
        <pt x="214" y="1313" on="0"/>
        <pt x="172" y="1341" on="0"/>
        <pt x="136" y="1347" on="1"/>
        <pt x="99" y="1354" on="0"/>
        <pt x="80" y="1367" on="0"/>
        <pt x="80" y="1376" on="1"/>
        <pt x="80" y="1388" on="0"/>
        <pt x="98" y="1400" on="0"/>
        <pt x="115" y="1400" on="1"/>
        <pt x="490" y="1400" on="1"/>
        <pt x="507" y="1400" on="0"/>
        <pt x="524" y="1388" on="0"/>
        <pt x="524" y="1376" on="1"/>
        <pt x="524" y="1364" on="0"/>
        <pt x="504" y="1352" on="0"/>
        <pt x="486" y="1348" on="1"/>
        <pt x="434" y="1338" on="1"/>
        <pt x="367" y="1325" on="0"/>
        <pt x="338" y="1277" on="0"/>
        <pt x="363" y="1243" on="1"/>
      </contour>
      <contour>
        <pt x="726" y="696" on="1"/>
        <pt x="699" y="750" on="1"/>
        <pt x="1042" y="1221" on="1"/>
        <pt x="1074" y="1266" on="0"/>
        <pt x="1046" y="1328" on="0"/>
        <pt x="987" y="1338" on="1"/>
        <pt x="925" y="1348" on="1"/>
        <pt x="907" y="1351" on="0"/>
        <pt x="887" y="1364" on="0"/>
        <pt x="887" y="1376" on="1"/>
        <pt x="887" y="1388" on="0"/>
        <pt x="905" y="1400" on="0"/>
        <pt x="921" y="1400" on="1"/>
        <pt x="1289" y="1400" on="1"/>
        <pt x="1323" y="1400" on="0"/>
        <pt x="1323" y="1376" on="1"/>
        <pt x="1323" y="1364" on="0"/>
        <pt x="1294" y="1348" on="0"/>
        <pt x="1245" y="1340" on="1"/>
        <pt x="1202" y="1333" on="0"/>
        <pt x="1150" y="1277" on="0"/>
        <pt x="1095" y="1202" on="1"/>
      </contour>
      <contour>
        <pt x="675" y="742" on="1"/>
        <pt x="711" y="699" on="1"/>
        <pt x="322" y="161" on="1"/>
        <pt x="291" y="118" on="0"/>
        <pt x="324" y="70" on="0"/>
        <pt x="382" y="62" on="1"/>
        <pt x="454" y="52" on="1"/>
        <pt x="472" y="50" on="0"/>
        <pt x="492" y="36" on="0"/>
        <pt x="492" y="24" on="1"/>
        <pt x="492" y="12" on="0"/>
        <pt x="475" y="0" on="0"/>
        <pt x="458" y="0" on="1"/>
        <pt x="100" y="0" on="1"/>
        <pt x="84" y="0" on="0"/>
        <pt x="66" y="12" on="0"/>
        <pt x="66" y="25" on="1"/>
        <pt x="66" y="35" on="0"/>
        <pt x="87" y="55" on="0"/>
        <pt x="124" y="60" on="1"/>
        <pt x="158" y="65" on="0"/>
        <pt x="205" y="97" on="0"/>
        <pt x="240" y="141" on="0"/>
        <pt x="255" y="162" on="1"/>
      </contour>
    </TTGlyph>
    <TTGlyph name="Y" xMin="60" yMin="0" xMax="1289" yMax="1400">
      <contour>
        <pt x="690" y="437" on="1"/>
        <pt x="657" y="437" on="1"/>
        <pt x="194" y="1290" on="1"/>
        <pt x="180" y="1316" on="0"/>
        <pt x="156" y="1337" on="0"/>
        <pt x="134" y="1341" on="1"/>
        <pt x="106" y="1346" on="1"/>
        <pt x="77" y="1351" on="0"/>
        <pt x="60" y="1366" on="0"/>
        <pt x="60" y="1376" on="1"/>
        <pt x="60" y="1388" on="0"/>
        <pt x="78" y="1400" on="0"/>
        <pt x="94" y="1400" on="1"/>
        <pt x="444" y="1400" on="1"/>
        <pt x="462" y="1400" on="0"/>
        <pt x="484" y="1388" on="0"/>
        <pt x="484" y="1376" on="1"/>
        <pt x="484" y="1352" on="0"/>
        <pt x="430" y="1346" on="1"/>
        <pt x="359" y="1338" on="1"/>
        <pt x="316" y="1334" on="0"/>
        <pt x="283" y="1295" on="0"/>
        <pt x="299" y="1266" on="1"/>
        <pt x="712" y="503" on="1"/>
        <pt x="644" y="471" on="1"/>
        <pt x="1072" y="1256" on="1"/>
        <pt x="1095" y="1297" on="0"/>
        <pt x="1076" y="1334" on="0"/>
        <pt x="1032" y="1338" on="1"/>
        <pt x="930" y="1348" on="1"/>
        <pt x="912" y="1350" on="0"/>
        <pt x="892" y="1364" on="0"/>
        <pt x="892" y="1376" on="1"/>
        <pt x="892" y="1388" on="0"/>
        <pt x="910" y="1400" on="0"/>
        <pt x="926" y="1400" on="1"/>
        <pt x="1255" y="1400" on="1"/>
        <pt x="1272" y="1400" on="0"/>
        <pt x="1289" y="1387" on="0"/>
        <pt x="1289" y="1376" on="1"/>
        <pt x="1289" y="1367" on="0"/>
        <pt x="1274" y="1351" on="0"/>
        <pt x="1243" y="1346" on="1"/>
        <pt x="1231" y="1344" on="1"/>
        <pt x="1209" y="1341" on="0"/>
        <pt x="1182" y="1327" on="0"/>
        <pt x="1158" y="1293" on="0"/>
        <pt x="1139" y="1258" on="1"/>
      </contour>
      <contour>
        <pt x="630" y="520" on="1"/>
        <pt x="712" y="520" on="1"/>
        <pt x="712" y="150" on="1"/>
        <pt x="712" y="111" on="0"/>
        <pt x="755" y="70" on="0"/>
        <pt x="794" y="62" on="1"/>
        <pt x="846" y="52" on="1"/>
        <pt x="884" y="44" on="0"/>
        <pt x="884" y="24" on="1"/>
        <pt x="884" y="12" on="0"/>
        <pt x="867" y="0" on="0"/>
        <pt x="850" y="0" on="1"/>
        <pt x="492" y="0" on="1"/>
        <pt x="476" y="0" on="0"/>
        <pt x="458" y="12" on="0"/>
        <pt x="458" y="24" on="1"/>
        <pt x="458" y="44" on="0"/>
        <pt x="496" y="52" on="1"/>
        <pt x="548" y="62" on="1"/>
        <pt x="587" y="70" on="0"/>
        <pt x="630" y="111" on="0"/>
        <pt x="630" y="150" on="1"/>
      </contour>
    </TTGlyph>
    <TTGlyph name="Z" xMin="112" yMin="-40" xMax="1149" yMax="1456">
      <contour>
        <pt x="1071" y="1308" on="1"/>
        <pt x="199" y="40" on="1"/>
        <pt x="156" y="58" on="1"/>
        <pt x="819" y="58" on="1"/>
        <pt x="873" y="58" on="0"/>
        <pt x="957" y="90" on="0"/>
        <pt x="1022" y="167" on="0"/>
        <pt x="1049" y="233" on="1"/>
        <pt x="1099" y="358" on="1"/>
        <pt x="1105" y="372" on="0"/>
        <pt x="1120" y="384" on="0"/>
        <pt x="1130" y="382" on="1"/>
        <pt x="1141" y="381" on="0"/>
        <pt x="1149" y="361" on="0"/>
        <pt x="1145" y="344" on="1"/>
        <pt x="1068" y="-10" on="1"/>
        <pt x="1065" y="-25" on="0"/>
        <pt x="1048" y="-40" on="0"/>
        <pt x="1034" y="-40" on="1"/>
        <pt x="1019" y="-40" on="0"/>
        <pt x="993" y="-20" on="0"/>
        <pt x="968" y="0" on="0"/>
        <pt x="954" y="0" on="1"/>
        <pt x="154" y="0" on="1"/>
        <pt x="133" y="0" on="0"/>
        <pt x="112" y="19" on="0"/>
        <pt x="112" y="32" on="1"/>
        <pt x="112" y="52" on="0"/>
        <pt x="130" y="79" on="0"/>
        <pt x="139" y="92" on="1"/>
        <pt x="1009" y="1356" on="1"/>
        <pt x="1039" y="1342" on="1"/>
        <pt x="435" y="1342" on="1"/>
        <pt x="379" y="1342" on="0"/>
        <pt x="298" y="1285" on="0"/>
        <pt x="272" y="1221" on="1"/>
        <pt x="228" y="1110" on="1"/>
        <pt x="221" y="1091" on="0"/>
        <pt x="196" y="1070" on="0"/>
        <pt x="182" y="1072" on="1"/>
        <pt x="172" y="1074" on="0"/>
        <pt x="163" y="1094" on="0"/>
        <pt x="168" y="1116" on="1"/>
        <pt x="241" y="1426" on="1"/>
        <pt x="245" y="1441" on="0"/>
        <pt x="262" y="1456" on="0"/>
        <pt x="275" y="1456" on="1"/>
        <pt x="291" y="1456" on="0"/>
        <pt x="320" y="1428" on="0"/>
        <pt x="348" y="1400" on="0"/>
        <pt x="363" y="1400" on="1"/>
        <pt x="1056" y="1400" on="1"/>
        <pt x="1077" y="1400" on="0"/>
        <pt x="1098" y="1382" on="0"/>
        <pt x="1098" y="1368" on="1"/>
        <pt x="1098" y="1352" on="0"/>
        <pt x="1085" y="1329" on="0"/>
      </contour>
    </TTGlyph>
    <TTGlyph name="a" xMin="127" yMin="-22" xMax="939" yMax="937">
      <contour>
        <pt x="179" y="687" on="1"/>
        <pt x="179" y="752" on="0"/>
        <pt x="263" y="866" on="0"/>
        <pt x="413" y="937" on="0"/>
        <pt x="512" y="937" on="1"/>
        <pt x="653" y="937" on="0"/>
        <pt x="793" y="792" on="0"/>
        <pt x="793" y="675" on="1"/>
        <pt x="793" y="92" on="1"/>
        <pt x="793" y="66" on="0"/>
        <pt x="820" y="39" on="0"/>
        <pt x="840" y="39" on="1"/>
        <pt x="863" y="39" on="0"/>
        <pt x="888" y="58" on="0"/>
        <pt x="905" y="78" on="0"/>
        <pt x="916" y="78" on="1"/>
        <pt x="925" y="78" on="0"/>
        <pt x="939" y="66" on="0"/>
        <pt x="939" y="52" on="1"/>
        <pt x="939" y="34" on="0"/>
        <pt x="912" y="0" on="0"/>
        <pt x="866" y="-22" on="0"/>
        <pt x="837" y="-22" on="1"/>
        <pt x="787" y="-22" on="0"/>
        <pt x="723" y="29" on="0"/>
        <pt x="723" y="86" on="1"/>
        <pt x="723" y="130" on="1"/>
        <pt x="723" y="665" on="1"/>
        <pt x="723" y="770" on="0"/>
        <pt x="600" y="879" on="0"/>
        <pt x="490" y="879" on="1"/>
        <pt x="387" y="879" on="0"/>
        <pt x="285" y="801" on="0"/>
        <pt x="285" y="747" on="1"/>
        <pt x="285" y="677" on="1"/>
        <pt x="285" y="653" on="0"/>
        <pt x="255" y="627" on="0"/>
        <pt x="231" y="627" on="1"/>
        <pt x="209" y="627" on="0"/>
        <pt x="179" y="662" on="0"/>
      </contour>
      <contour>
        <pt x="741" y="368" on="1"/>
        <pt x="687" y="385" on="0"/>
        <pt x="565" y="410" on="0"/>
        <pt x="496" y="410" on="1"/>
        <pt x="363" y="410" on="0"/>
        <pt x="207" y="306" on="0"/>
        <pt x="207" y="213" on="1"/>
        <pt x="207" y="125" on="0"/>
        <pt x="321" y="41" on="0"/>
        <pt x="403" y="41" on="1"/>
        <pt x="502" y="41" on="0"/>
        <pt x="686" y="140" on="0"/>
        <pt x="757" y="235" on="1"/>
        <pt x="781" y="193" on="1"/>
        <pt x="710" y="90" on="0"/>
        <pt x="510" y="-22" on="0"/>
        <pt x="401" y="-22" on="1"/>
        <pt x="283" y="-22" on="0"/>
        <pt x="127" y="92" on="0"/>
        <pt x="127" y="207" on="1"/>
        <pt x="127" y="316" on="0"/>
        <pt x="324" y="466" on="0"/>
        <pt x="496" y="466" on="1"/>
        <pt x="560" y="466" on="0"/>
        <pt x="693" y="442" on="0"/>
        <pt x="745" y="424" on="1"/>
      </contour>
    </TTGlyph>
    <TTGlyph name="ampersand" xMin="209" yMin="-34" xMax="1742" yMax="1545">
      <contour>
        <pt x="1329" y="-34" on="1"/>
        <pt x="1454" y="-34" on="0"/>
        <pt x="1639" y="84" on="0"/>
        <pt x="1742" y="309" on="0"/>
        <pt x="1742" y="469" on="1"/>
        <pt x="1742" y="705" on="0"/>
        <pt x="1604" y="1094" on="0"/>
        <pt x="1455" y="1251" on="1"/>
        <pt x="1300" y="1414" on="0"/>
        <pt x="966" y="1545" on="0"/>
        <pt x="764" y="1545" on="1"/>
        <pt x="594" y="1545" on="0"/>
        <pt x="344" y="1427" on="0"/>
        <pt x="209" y="1206" on="0"/>
        <pt x="209" y="1052" on="1"/>
        <pt x="209" y="988" on="0"/>
        <pt x="255" y="901" on="0"/>
        <pt x="292" y="901" on="1"/>
        <pt x="323" y="901" on="0"/>
        <pt x="364" y="940" on="0"/>
        <pt x="364" y="968" on="1"/>
        <pt x="364" y="1001" on="0"/>
        <pt x="346" y="1042" on="0"/>
        <pt x="323" y="1077" on="0"/>
        <pt x="305" y="1121" on="0"/>
        <pt x="305" y="1156" on="1"/>
        <pt x="305" y="1238" on="0"/>
        <pt x="407" y="1388" on="0"/>
        <pt x="610" y="1484" on="0"/>
        <pt x="763" y="1484" on="1"/>
        <pt x="945" y="1484" on="0"/>
        <pt x="1260" y="1360" on="0"/>
        <pt x="1400" y="1203" on="1"/>
        <pt x="1522" y="1065" on="0"/>
        <pt x="1673" y="688" on="0"/>
        <pt x="1673" y="463" on="1"/>
        <pt x="1673" y="311" on="0"/>
        <pt x="1578" y="119" on="0"/>
        <pt x="1422" y="29" on="0"/>
        <pt x="1330" y="29" on="1"/>
        <pt x="1256" y="29" on="0"/>
        <pt x="1116" y="96" on="0"/>
        <pt x="975" y="236" on="0"/>
        <pt x="899" y="347" on="1"/>
        <pt x="834" y="442" on="0"/>
        <pt x="739" y="635" on="0"/>
        <pt x="688" y="832" on="0"/>
        <pt x="688" y="930" on="1"/>
        <pt x="688" y="1056" on="0"/>
        <pt x="805" y="1204" on="0"/>
        <pt x="906" y="1204" on="1"/>
        <pt x="976" y="1204" on="0"/>
        <pt x="1069" y="1091" on="0"/>
        <pt x="1069" y="998" on="1"/>
        <pt x="1069" y="913" on="0"/>
        <pt x="991" y="789" on="0"/>
        <pt x="834" y="702" on="0"/>
        <pt x="714" y="673" on="1"/>
        <pt x="719" y="623" on="1"/>
        <pt x="865" y="650" on="0"/>
        <pt x="1056" y="756" on="0"/>
        <pt x="1150" y="903" on="0"/>
        <pt x="1150" y="991" on="1"/>
        <pt x="1150" y="1070" on="0"/>
        <pt x="1091" y="1191" on="0"/>
        <pt x="986" y="1259" on="0"/>
        <pt x="917" y="1259" on="1"/>
        <pt x="824" y="1259" on="0"/>
        <pt x="686" y="1172" on="0"/>
        <pt x="610" y="1014" on="0"/>
        <pt x="610" y="905" on="1"/>
        <pt x="610" y="816" on="0"/>
        <pt x="658" y="626" on="0"/>
        <pt x="754" y="423" on="0"/>
        <pt x="827" y="312" on="1"/>
        <pt x="907" y="190" on="0"/>
        <pt x="1058" y="37" on="0"/>
        <pt x="1225" y="-34" on="0"/>
      </contour>
      <contour>
        <pt x="1001" y="195" on="1"/>
        <pt x="1038" y="160" on="1"/>
        <pt x="1185" y="263" on="0"/>
        <pt x="1334" y="470" on="0"/>
        <pt x="1334" y="575" on="1"/>
        <pt x="1334" y="617" on="0"/>
        <pt x="1292" y="674" on="0"/>
        <pt x="1263" y="674" on="1"/>
        <pt x="1235" y="674" on="0"/>
        <pt x="1200" y="631" on="0"/>
        <pt x="1200" y="600" on="1"/>
        <pt x="1200" y="577" on="0"/>
        <pt x="1212" y="544" on="0"/>
        <pt x="1224" y="513" on="0"/>
        <pt x="1224" y="491" on="1"/>
        <pt x="1224" y="446" on="0"/>
        <pt x="1175" y="351" on="0"/>
        <pt x="1076" y="250" on="0"/>
      </contour>
      <contour>
        <pt x="676" y="623" on="1"/>
        <pt x="676" y="671" on="1"/>
        <pt x="517" y="650" on="0"/>
        <pt x="319" y="537" on="0"/>
        <pt x="227" y="372" on="0"/>
        <pt x="227" y="271" on="1"/>
        <pt x="227" y="132" on="0"/>
        <pt x="411" y="-33" on="0"/>
        <pt x="571" y="-33" on="1"/>
        <pt x="648" y="-33" on="0"/>
        <pt x="783" y="3" on="0"/>
        <pt x="916" y="75" on="0"/>
        <pt x="988" y="128" on="1"/>
        <pt x="957" y="170" on="1"/>
        <pt x="865" y="102" on="0"/>
        <pt x="699" y="35" on="0"/>
        <pt x="602" y="35" on="1"/>
        <pt x="478" y="35" on="0"/>
        <pt x="308" y="171" on="0"/>
        <pt x="308" y="291" on="1"/>
        <pt x="308" y="370" on="0"/>
        <pt x="380" y="502" on="0"/>
        <pt x="542" y="599" on="0"/>
      </contour>
    </TTGlyph>
    <TTGlyph name="ampersand.alt" xMin="118" yMin="-21" xMax="1332" yMax="1420">
      <contour>
        <pt x="590" y="1365" on="1"/>
        <pt x="700" y="1365" on="0"/>
        <pt x="843" y="1205" on="0"/>
        <pt x="843" y="1062" on="1"/>
        <pt x="843" y="938" on="0"/>
        <pt x="700" y="783" on="0"/>
        <pt x="559" y="760" on="1"/>
        <pt x="580" y="718" on="1"/>
        <pt x="684" y="731" on="0"/>
        <pt x="838" y="826" on="0"/>
        <pt x="923" y="983" on="0"/>
        <pt x="923" y="1088" on="1"/>
        <pt x="923" y="1178" on="0"/>
        <pt x="843" y="1329" on="0"/>
        <pt x="698" y="1420" on="0"/>
        <pt x="600" y="1420" on="1"/>
        <pt x="503" y="1420" on="0"/>
        <pt x="345" y="1326" on="0"/>
        <pt x="253" y="1162" on="0"/>
        <pt x="253" y="1058" on="1"/>
        <pt x="253" y="946" on="0"/>
        <pt x="379" y="759" on="0"/>
        <pt x="512" y="720" on="1"/>
        <pt x="577" y="701" on="0"/>
        <pt x="663" y="621" on="0"/>
        <pt x="720" y="546" on="1"/>
        <pt x="1074" y="79" on="1"/>
        <pt x="1101" y="42" on="0"/>
        <pt x="1154" y="15" on="0"/>
        <pt x="1195" y="15" on="1"/>
        <pt x="1250" y="15" on="1"/>
        <pt x="1275" y="15" on="0"/>
        <pt x="1301" y="31" on="0"/>
        <pt x="1301" y="48" on="1"/>
        <pt x="1301" y="62" on="0"/>
        <pt x="1276" y="80" on="0"/>
        <pt x="1248" y="82" on="1"/>
        <pt x="1192" y="87" on="0"/>
        <pt x="1137" y="126" on="0"/>
        <pt x="1103" y="170" on="1"/>
        <pt x="765" y="607" on="1"/>
        <pt x="725" y="660" on="0"/>
        <pt x="660" y="729" on="0"/>
        <pt x="593" y="772" on="0"/>
        <pt x="549" y="785" on="1"/>
        <pt x="437" y="820" on="0"/>
        <pt x="332" y="983" on="0"/>
        <pt x="332" y="1082" on="1"/>
        <pt x="332" y="1203" on="0"/>
        <pt x="472" y="1365" on="0"/>
      </contour>
      <contour>
        <pt x="528" y="719" on="1"/>
        <pt x="528" y="760" on="1"/>
        <pt x="394" y="748" on="0"/>
        <pt x="211" y="644" on="0"/>
        <pt x="118" y="472" on="0"/>
        <pt x="118" y="359" on="1"/>
        <pt x="118" y="257" on="0"/>
        <pt x="207" y="84" on="0"/>
        <pt x="380" y="-21" on="0"/>
        <pt x="505" y="-21" on="1"/>
        <pt x="694" y="-21" on="0"/>
        <pt x="914" y="132" on="0"/>
        <pt x="981" y="249" on="1"/>
        <pt x="948" y="289" on="1"/>
        <pt x="886" y="175" on="0"/>
        <pt x="675" y="44" on="0"/>
        <pt x="544" y="44" on="1"/>
        <pt x="437" y="44" on="0"/>
        <pt x="283" y="122" on="0"/>
        <pt x="201" y="273" on="0"/>
        <pt x="201" y="382" on="1"/>
        <pt x="201" y="467" on="0"/>
        <pt x="275" y="608" on="0"/>
        <pt x="421" y="703" on="0"/>
      </contour>
      <contour>
        <pt x="965" y="313" on="1"/>
        <pt x="997" y="264" on="1"/>
        <pt x="1168" y="593" on="1"/>
        <pt x="1191" y="637" on="0"/>
        <pt x="1243" y="679" on="0"/>
        <pt x="1293" y="682" on="1"/>
        <pt x="1315" y="684" on="0"/>
        <pt x="1332" y="699" on="0"/>
        <pt x="1332" y="709" on="1"/>
        <pt x="1332" y="741" on="0"/>
        <pt x="1298" y="741" on="1"/>
        <pt x="995" y="741" on="1"/>
        <pt x="980" y="741" on="0"/>
        <pt x="962" y="727" on="0"/>
        <pt x="962" y="716" on="1"/>
        <pt x="962" y="706" on="0"/>
        <pt x="972" y="692" on="0"/>
        <pt x="991" y="688" on="1"/>
        <pt x="1076" y="672" on="1"/>
        <pt x="1098" y="668" on="0"/>
        <pt x="1117" y="647" on="0"/>
        <pt x="1114" y="611" on="0"/>
        <pt x="1101" y="586" on="1"/>
      </contour>
    </TTGlyph>
    <TTGlyph name="b" xMin="27" yMin="-22" xMax="1010" yMax="1452">
      <contour>
        <pt x="265" y="1412" on="1"/>
        <pt x="265" y="128" on="1"/>
        <pt x="249" y="26" on="1"/>
        <pt x="248" y="16" on="0"/>
        <pt x="232" y="0" on="0"/>
        <pt x="221" y="0" on="1"/>
        <pt x="209" y="0" on="0"/>
        <pt x="195" y="16" on="0"/>
        <pt x="195" y="34" on="1"/>
        <pt x="195" y="1300" on="1"/>
        <pt x="195" y="1324" on="0"/>
        <pt x="174" y="1348" on="0"/>
        <pt x="153" y="1348" on="1"/>
        <pt x="59" y="1348" on="1"/>
        <pt x="44" y="1348" on="0"/>
        <pt x="27" y="1362" on="0"/>
        <pt x="27" y="1372" on="1"/>
        <pt x="27" y="1392" on="0"/>
        <pt x="59" y="1402" on="1"/>
        <pt x="169" y="1434" on="1"/>
        <pt x="184" y="1439" on="0"/>
        <pt x="218" y="1452" on="0"/>
        <pt x="227" y="1452" on="1"/>
        <pt x="245" y="1452" on="0"/>
        <pt x="265" y="1432" on="0"/>
      </contour>
      <contour>
        <pt x="224" y="652" on="1"/>
        <pt x="213" y="710" on="1"/>
        <pt x="280" y="817" on="0"/>
        <pt x="485" y="937" on="0"/>
        <pt x="594" y="937" on="1"/>
        <pt x="717" y="937" on="0"/>
        <pt x="905" y="815" on="0"/>
        <pt x="1010" y="604" on="0"/>
        <pt x="1010" y="468" on="1"/>
        <pt x="1010" y="317" on="0"/>
        <pt x="890" y="97" on="0"/>
        <pt x="691" y="-22" on="0"/>
        <pt x="570" y="-22" on="1"/>
        <pt x="451" y="-22" on="0"/>
        <pt x="247" y="119" on="0"/>
        <pt x="200" y="229" on="1"/>
        <pt x="214" y="288" on="1"/>
        <pt x="272" y="169" on="0"/>
        <pt x="467" y="35" on="0"/>
        <pt x="576" y="35" on="1"/>
        <pt x="675" y="35" on="0"/>
        <pt x="836" y="138" on="0"/>
        <pt x="931" y="330" on="0"/>
        <pt x="931" y="465" on="1"/>
        <pt x="931" y="591" on="0"/>
        <pt x="841" y="777" on="0"/>
        <pt x="684" y="878" on="0"/>
        <pt x="583" y="878" on="1"/>
        <pt x="471" y="878" on="0"/>
        <pt x="289" y="755" on="0"/>
      </contour>
    </TTGlyph>
    <TTGlyph name="backslash" xMin="27" yMin="-326" xMax="956" yMax="1550">
      <component glyphName="slash" x="971" y="0" scalex="-1.0" scaley="1.0" flags="0x4"/>
    </TTGlyph>
    <TTGlyph name="bar" xMin="180" yMin="-312" xMax="264" yMax="1566">
      <contour>
        <pt x="192" y="627" on="1"/>
        <pt x="192" y="700" on="0"/>
        <pt x="188" y="925" on="0"/>
        <pt x="184" y="1182" on="0"/>
        <pt x="180" y="1424" on="0"/>
        <pt x="180" y="1514" on="1"/>
        <pt x="180" y="1526" on="0"/>
        <pt x="186" y="1545" on="0"/>
        <pt x="197" y="1559" on="0"/>
        <pt x="212" y="1566" on="0"/>
        <pt x="221" y="1566" on="1"/>
        <pt x="241" y="1566" on="0"/>
        <pt x="264" y="1537" on="0"/>
        <pt x="264" y="1514" on="1"/>
        <pt x="264" y="1453" on="0"/>
        <pt x="262" y="1277" on="0"/>
        <pt x="259" y="1073" on="0"/>
        <pt x="256" y="868" on="0"/>
        <pt x="254" y="689" on="0"/>
        <pt x="254" y="627" on="1"/>
        <pt x="254" y="549" on="0"/>
        <pt x="257" y="311" on="0"/>
        <pt x="261" y="50" on="0"/>
        <pt x="264" y="-185" on="0"/>
        <pt x="264" y="-261" on="1"/>
        <pt x="264" y="-273" on="0"/>
        <pt x="258" y="-291" on="0"/>
        <pt x="247" y="-305" on="0"/>
        <pt x="231" y="-312" on="0"/>
        <pt x="221" y="-312" on="1"/>
        <pt x="180" y="-312" on="0"/>
        <pt x="180" y="-261" on="1"/>
        <pt x="180" y="-171" on="0"/>
        <pt x="184" y="71" on="0"/>
        <pt x="188" y="328" on="0"/>
        <pt x="192" y="554" on="0"/>
      </contour>
    </TTGlyph>
    <TTGlyph name="braceleft" xMin="150" yMin="-257" xMax="678" yMax="1480">
      <contour>
        <pt x="323" y="612" on="1"/>
        <pt x="323" y="593" on="0"/>
        <pt x="346" y="593" on="1"/>
        <pt x="447" y="593" on="0"/>
        <pt x="538" y="516" on="0"/>
        <pt x="538" y="455" on="1"/>
        <pt x="538" y="394" on="0"/>
        <pt x="463" y="276" on="0"/>
        <pt x="365" y="158" on="0"/>
        <pt x="290" y="38" on="0"/>
        <pt x="290" y="-25" on="1"/>
        <pt x="290" y="-111" on="0"/>
        <pt x="413" y="-195" on="0"/>
        <pt x="525" y="-195" on="1"/>
        <pt x="646" y="-195" on="1"/>
        <pt x="678" y="-195" on="0"/>
        <pt x="678" y="-226" on="1"/>
        <pt x="678" y="-242" on="0"/>
        <pt x="660" y="-257" on="0"/>
        <pt x="646" y="-257" on="1"/>
        <pt x="520" y="-257" on="1"/>
        <pt x="415" y="-257" on="0"/>
        <pt x="279" y="-198" on="0"/>
        <pt x="212" y="-94" on="0"/>
        <pt x="212" y="-27" on="1"/>
        <pt x="212" y="42" on="0"/>
        <pt x="288" y="174" on="0"/>
        <pt x="387" y="298" on="0"/>
        <pt x="463" y="409" on="0"/>
        <pt x="463" y="456" on="1"/>
        <pt x="463" y="501" on="0"/>
        <pt x="411" y="552" on="0"/>
        <pt x="355" y="552" on="1"/>
        <pt x="332" y="552" on="0"/>
        <pt x="297" y="544" on="0"/>
        <pt x="258" y="535" on="0"/>
        <pt x="230" y="535" on="1"/>
        <pt x="192" y="535" on="0"/>
        <pt x="150" y="585" on="0"/>
        <pt x="150" y="612" on="1"/>
        <pt x="150" y="639" on="0"/>
        <pt x="192" y="688" on="0"/>
        <pt x="230" y="688" on="1"/>
        <pt x="258" y="688" on="0"/>
        <pt x="297" y="680" on="0"/>
        <pt x="332" y="671" on="0"/>
        <pt x="355" y="671" on="1"/>
        <pt x="411" y="671" on="0"/>
        <pt x="463" y="723" on="0"/>
        <pt x="463" y="768" on="1"/>
        <pt x="463" y="815" on="0"/>
        <pt x="387" y="925" on="0"/>
        <pt x="288" y="1048" on="0"/>
        <pt x="212" y="1181" on="0"/>
        <pt x="212" y="1250" on="1"/>
        <pt x="212" y="1317" on="0"/>
        <pt x="279" y="1421" on="0"/>
        <pt x="415" y="1480" on="0"/>
        <pt x="520" y="1480" on="1"/>
        <pt x="646" y="1480" on="1"/>
        <pt x="660" y="1480" on="0"/>
        <pt x="678" y="1465" on="0"/>
        <pt x="678" y="1448" on="1"/>
        <pt x="678" y="1418" on="0"/>
        <pt x="646" y="1418" on="1"/>
        <pt x="525" y="1418" on="1"/>
        <pt x="413" y="1418" on="0"/>
        <pt x="290" y="1334" on="0"/>
        <pt x="290" y="1248" on="1"/>
        <pt x="290" y="1185" on="0"/>
        <pt x="365" y="1065" on="0"/>
        <pt x="463" y="947" on="0"/>
        <pt x="538" y="829" on="0"/>
        <pt x="538" y="769" on="1"/>
        <pt x="538" y="708" on="0"/>
        <pt x="447" y="631" on="0"/>
        <pt x="346" y="631" on="1"/>
        <pt x="323" y="631" on="0"/>
      </contour>
    </TTGlyph>
    <TTGlyph name="braceright" xMin="50" yMin="-257" xMax="578" yMax="1480">
      <component glyphName="braceleft" x="728" y="1223" scale="-1.0" flags="0x4"/>
    </TTGlyph>
    <TTGlyph name="bracketleft" xMin="180" yMin="-256" xMax="574" yMax="1480">
      <contour>
        <pt x="258" y="1389" on="1"/>
        <pt x="258" y="-165" on="1"/>
        <pt x="258" y="-179" on="0"/>
        <pt x="272" y="-194" on="0"/>
        <pt x="285" y="-194" on="1"/>
        <pt x="542" y="-194" on="1"/>
        <pt x="574" y="-194" on="0"/>
        <pt x="574" y="-225" on="1"/>
        <pt x="574" y="-241" on="0"/>
        <pt x="556" y="-256" on="0"/>
        <pt x="542" y="-256" on="1"/>
        <pt x="227" y="-256" on="1"/>
        <pt x="203" y="-256" on="0"/>
        <pt x="180" y="-232" on="0"/>
        <pt x="180" y="-208" on="1"/>
        <pt x="180" y="1432" on="1"/>
        <pt x="180" y="1456" on="0"/>
        <pt x="203" y="1480" on="0"/>
        <pt x="227" y="1480" on="1"/>
        <pt x="542" y="1480" on="1"/>
        <pt x="556" y="1480" on="0"/>
        <pt x="574" y="1465" on="0"/>
        <pt x="574" y="1449" on="1"/>
        <pt x="574" y="1418" on="0"/>
        <pt x="542" y="1418" on="1"/>
        <pt x="285" y="1418" on="1"/>
        <pt x="272" y="1418" on="0"/>
        <pt x="258" y="1403" on="0"/>
      </contour>
    </TTGlyph>
    <TTGlyph name="bracketright" xMin="0" yMin="-256" xMax="394" yMax="1480">
      <component glyphName="bracketleft" x="574" y="1224" scale="-1.0" flags="0x4"/>
    </TTGlyph>
    <TTGlyph name="c" xMin="105" yMin="-21" xMax="894" yMax="938">
      <contour>
        <pt x="880" y="718" on="1"/>
        <pt x="880" y="691" on="0"/>
        <pt x="851" y="655" on="0"/>
        <pt x="828" y="655" on="1"/>
        <pt x="804" y="655" on="0"/>
        <pt x="774" y="681" on="0"/>
        <pt x="774" y="705" on="1"/>
        <pt x="774" y="730" on="1"/>
        <pt x="774" y="792" on="0"/>
        <pt x="643" y="882" on="0"/>
        <pt x="536" y="882" on="1"/>
        <pt x="431" y="882" on="0"/>
        <pt x="272" y="776" on="0"/>
        <pt x="183" y="590" on="0"/>
        <pt x="183" y="469" on="1"/>
        <pt x="183" y="338" on="0"/>
        <pt x="276" y="150" on="0"/>
        <pt x="439" y="51" on="0"/>
        <pt x="544" y="51" on="1"/>
        <pt x="674" y="51" on="0"/>
        <pt x="827" y="179" on="0"/>
        <pt x="849" y="255" on="1"/>
        <pt x="857" y="281" on="0"/>
        <pt x="873" y="281" on="1"/>
        <pt x="885" y="281" on="0"/>
        <pt x="894" y="264" on="0"/>
        <pt x="893" y="253" on="1"/>
        <pt x="888" y="183" on="0"/>
        <pt x="795" y="58" on="0"/>
        <pt x="637" y="-21" on="0"/>
        <pt x="536" y="-21" on="1"/>
        <pt x="402" y="-21" on="0"/>
        <pt x="209" y="100" on="0"/>
        <pt x="105" y="314" on="0"/>
        <pt x="105" y="452" on="1"/>
        <pt x="105" y="589" on="0"/>
        <pt x="218" y="809" on="0"/>
        <pt x="420" y="938" on="0"/>
        <pt x="554" y="938" on="1"/>
        <pt x="646" y="938" on="0"/>
        <pt x="794" y="871" on="0"/>
        <pt x="880" y="770" on="0"/>
      </contour>
    </TTGlyph>
    <TTGlyph name="colon" xMin="110" yMin="-10" xMax="288" yMax="821">
      <component glyphName="period" x="10" y="0" flags="0x4"/>
      <component glyphName="period" x="11" y="652" flags="0x4"/>
    </TTGlyph>
    <TTGlyph name="comma" xMin="100" yMin="-275" xMax="313" yMax="189">
      <contour>
        <pt x="192" y="11" on="1"/>
        <pt x="161" y="11" on="0"/>
        <pt x="108" y="62" on="0"/>
        <pt x="108" y="97" on="1"/>
        <pt x="108" y="137" on="0"/>
        <pt x="163" y="189" on="0"/>
        <pt x="206" y="189" on="1"/>
        <pt x="250" y="189" on="0"/>
        <pt x="313" y="116" on="0"/>
        <pt x="313" y="27" on="1"/>
        <pt x="313" y="-57" on="0"/>
        <pt x="267" y="-173" on="0"/>
        <pt x="201" y="-243" on="0"/>
        <pt x="139" y="-275" on="0"/>
        <pt x="124" y="-275" on="1"/>
        <pt x="113" y="-275" on="0"/>
        <pt x="100" y="-265" on="0"/>
        <pt x="100" y="-257" on="1"/>
        <pt x="100" y="-246" on="0"/>
        <pt x="112" y="-231" on="0"/>
        <pt x="131" y="-224" on="1"/>
        <pt x="163" y="-210" on="0"/>
        <pt x="219" y="-148" on="0"/>
        <pt x="252" y="-71" on="0"/>
        <pt x="252" y="-36" on="1"/>
        <pt x="252" y="4" on="0"/>
        <pt x="232" y="11" on="0"/>
        <pt x="212" y="11" on="1"/>
      </contour>
    </TTGlyph>
    <TTGlyph name="d" xMin="105" yMin="-22" xMax="1066" yMax="1452">
      <contour>
        <pt x="920" y="1412" on="1"/>
        <pt x="920" y="122" on="1"/>
        <pt x="920" y="97" on="0"/>
        <pt x="951" y="67" on="0"/>
        <pt x="978" y="62" on="1"/>
        <pt x="1028" y="52" on="1"/>
        <pt x="1046" y="48" on="0"/>
        <pt x="1066" y="36" on="0"/>
        <pt x="1066" y="24" on="1"/>
        <pt x="1066" y="13" on="0"/>
        <pt x="1049" y="0" on="0"/>
        <pt x="1032" y="0" on="1"/>
        <pt x="914" y="0" on="1"/>
        <pt x="875" y="0" on="0"/>
        <pt x="850" y="25" on="0"/>
        <pt x="850" y="70" on="1"/>
        <pt x="850" y="176" on="1"/>
        <pt x="850" y="1300" on="1"/>
        <pt x="850" y="1324" on="0"/>
        <pt x="829" y="1348" on="0"/>
        <pt x="808" y="1348" on="1"/>
        <pt x="714" y="1348" on="1"/>
        <pt x="699" y="1348" on="0"/>
        <pt x="682" y="1362" on="0"/>
        <pt x="682" y="1372" on="1"/>
        <pt x="682" y="1392" on="0"/>
        <pt x="714" y="1402" on="1"/>
        <pt x="824" y="1434" on="1"/>
        <pt x="839" y="1439" on="0"/>
        <pt x="873" y="1452" on="0"/>
        <pt x="882" y="1452" on="1"/>
        <pt x="900" y="1452" on="0"/>
        <pt x="920" y="1432" on="0"/>
      </contour>
      <contour>
        <pt x="891" y="263" on="1"/>
        <pt x="902" y="205" on="1"/>
        <pt x="835" y="99" on="0"/>
        <pt x="631" y="-22" on="0"/>
        <pt x="521" y="-22" on="1"/>
        <pt x="398" y="-22" on="0"/>
        <pt x="211" y="100" on="0"/>
        <pt x="105" y="312" on="0"/>
        <pt x="105" y="447" on="1"/>
        <pt x="105" y="598" on="0"/>
        <pt x="225" y="818" on="0"/>
        <pt x="425" y="937" on="0"/>
        <pt x="545" y="937" on="1"/>
        <pt x="664" y="937" on="0"/>
        <pt x="868" y="796" on="0"/>
        <pt x="915" y="686" on="1"/>
        <pt x="901" y="627" on="1"/>
        <pt x="843" y="746" on="0"/>
        <pt x="649" y="880" on="0"/>
        <pt x="539" y="880" on="1"/>
        <pt x="441" y="880" on="0"/>
        <pt x="279" y="778" on="0"/>
        <pt x="184" y="585" on="0"/>
        <pt x="184" y="450" on="1"/>
        <pt x="184" y="324" on="0"/>
        <pt x="274" y="140" on="0"/>
        <pt x="431" y="39" on="0"/>
        <pt x="532" y="39" on="1"/>
        <pt x="645" y="39" on="0"/>
        <pt x="826" y="161" on="0"/>
      </contour>
    </TTGlyph>
    <TTGlyph name="e" xMin="105" yMin="-21" xMax="903" yMax="938">
      <contour>
        <pt x="895" y="588" on="1"/>
        <pt x="895" y="542" on="0"/>
        <pt x="845" y="498" on="0"/>
        <pt x="795" y="498" on="1"/>
        <pt x="129" y="498" on="1"/>
        <pt x="129" y="556" on="1"/>
        <pt x="753" y="556" on="1"/>
        <pt x="813" y="556" on="0"/>
        <pt x="813" y="606" on="1"/>
        <pt x="813" y="722" on="0"/>
        <pt x="661" y="882" on="0"/>
        <pt x="533" y="882" on="1"/>
        <pt x="429" y="882" on="0"/>
        <pt x="271" y="776" on="0"/>
        <pt x="183" y="590" on="0"/>
        <pt x="183" y="470" on="1"/>
        <pt x="183" y="272" on="0"/>
        <pt x="390" y="51" on="0"/>
        <pt x="551" y="51" on="1"/>
        <pt x="682" y="51" on="0"/>
        <pt x="837" y="179" on="0"/>
        <pt x="859" y="255" on="1"/>
        <pt x="866" y="281" on="0"/>
        <pt x="883" y="281" on="1"/>
        <pt x="895" y="281" on="0"/>
        <pt x="903" y="264" on="0"/>
        <pt x="903" y="253" on="1"/>
        <pt x="898" y="183" on="0"/>
        <pt x="804" y="58" on="0"/>
        <pt x="645" y="-21" on="0"/>
        <pt x="542" y="-21" on="1"/>
        <pt x="406" y="-21" on="0"/>
        <pt x="210" y="100" on="0"/>
        <pt x="105" y="314" on="0"/>
        <pt x="105" y="452" on="1"/>
        <pt x="105" y="589" on="0"/>
        <pt x="218" y="809" on="0"/>
        <pt x="415" y="938" on="0"/>
        <pt x="541" y="938" on="1"/>
        <pt x="641" y="938" on="0"/>
        <pt x="801" y="851" on="0"/>
        <pt x="895" y="694" on="0"/>
      </contour>
    </TTGlyph>
    <TTGlyph name="eight" xMin="110" yMin="-20" xMax="942" yMax="1418">
      <contour>
        <pt x="512" y="-20" on="1"/>
        <pt x="386" y="-20" on="0"/>
        <pt x="209" y="58" on="0"/>
        <pt x="116" y="202" on="0"/>
        <pt x="116" y="300" on="1"/>
        <pt x="116" y="380" on="0"/>
        <pt x="194" y="530" on="0"/>
        <pt x="336" y="646" on="0"/>
        <pt x="432" y="674" on="1"/>
        <pt x="461" y="634" on="1"/>
        <pt x="322" y="578" on="0"/>
        <pt x="196" y="396" on="0"/>
        <pt x="196" y="310" on="1"/>
        <pt x="196" y="180" on="0"/>
        <pt x="382" y="43" on="0"/>
        <pt x="533" y="43" on="1"/>
        <pt x="675" y="43" on="0"/>
        <pt x="848" y="182" on="0"/>
        <pt x="848" y="306" on="1"/>
        <pt x="848" y="373" on="0"/>
        <pt x="789" y="479" on="0"/>
        <pt x="640" y="570" on="0"/>
        <pt x="505" y="617" on="1"/>
        <pt x="290" y="691" on="0"/>
        <pt x="110" y="884" on="0"/>
        <pt x="110" y="1027" on="1"/>
        <pt x="110" y="1143" on="0"/>
        <pt x="219" y="1319" on="0"/>
        <pt x="409" y="1418" on="0"/>
        <pt x="532" y="1418" on="1"/>
        <pt x="669" y="1418" on="0"/>
        <pt x="851" y="1314" on="0"/>
        <pt x="942" y="1145" on="0"/>
        <pt x="942" y="1049" on="1"/>
        <pt x="942" y="949" on="0"/>
        <pt x="857" y="782" on="0"/>
        <pt x="705" y="656" on="0"/>
        <pt x="604" y="615" on="1"/>
        <pt x="571" y="651" on="1"/>
        <pt x="660" y="698" on="0"/>
        <pt x="789" y="817" on="0"/>
        <pt x="859" y="959" on="0"/>
        <pt x="859" y="1039" on="1"/>
        <pt x="859" y="1143" on="0"/>
        <pt x="772" y="1284" on="0"/>
        <pt x="621" y="1355" on="0"/>
        <pt x="523" y="1355" on="1"/>
        <pt x="427" y="1355" on="0"/>
        <pt x="277" y="1273" on="0"/>
        <pt x="191" y="1132" on="0"/>
        <pt x="191" y="1044" on="1"/>
        <pt x="191" y="975" on="0"/>
        <pt x="245" y="848" on="0"/>
        <pt x="394" y="735" on="0"/>
        <pt x="535" y="689" on="1"/>
        <pt x="751" y="618" on="0"/>
        <pt x="929" y="430" on="0"/>
        <pt x="929" y="317" on="1"/>
        <pt x="929" y="211" on="0"/>
        <pt x="826" y="60" on="0"/>
        <pt x="638" y="-20" on="0"/>
      </contour>
    </TTGlyph>
    <TTGlyph name="ellipsis" xMin="200" yMin="-10" xMax="1231" yMax="169">
      <component glyphName="period" x="100" y="0" flags="0x4"/>
      <component glyphName="period" x="527" y="0" flags="0x4"/>
      <component glyphName="period" x="954" y="0" flags="0x4"/>
    </TTGlyph>
    <TTGlyph name="emdash" xMin="80" yMin="480" xMax="1465" yMax="545">
      <contour>
        <pt x="80" y="512" on="1"/>
        <pt x="80" y="527" on="0"/>
        <pt x="92" y="545" on="0"/>
        <pt x="105" y="545" on="1"/>
        <pt x="1440" y="545" on="1"/>
        <pt x="1454" y="545" on="0"/>
        <pt x="1465" y="527" on="0"/>
        <pt x="1465" y="512" on="1"/>
        <pt x="1465" y="497" on="0"/>
        <pt x="1454" y="480" on="0"/>
        <pt x="1440" y="480" on="1"/>
        <pt x="105" y="480" on="1"/>
        <pt x="92" y="480" on="0"/>
        <pt x="80" y="497" on="0"/>
      </contour>
    </TTGlyph>
    <TTGlyph name="endash" xMin="80" yMin="480" xMax="878" yMax="545">
      <contour>
        <pt x="80" y="512" on="1"/>
        <pt x="80" y="527" on="0"/>
        <pt x="92" y="545" on="0"/>
        <pt x="105" y="545" on="1"/>
        <pt x="853" y="545" on="1"/>
        <pt x="867" y="545" on="0"/>
        <pt x="878" y="527" on="0"/>
        <pt x="878" y="512" on="1"/>
        <pt x="878" y="497" on="0"/>
        <pt x="867" y="480" on="0"/>
        <pt x="853" y="480" on="1"/>
        <pt x="105" y="480" on="1"/>
        <pt x="92" y="480" on="0"/>
        <pt x="80" y="497" on="0"/>
      </contour>
    </TTGlyph>
    <TTGlyph name="exclam" xMin="110" yMin="-10" xMax="287" yMax="1459">
      <contour>
        <pt x="206" y="1459" on="1"/>
        <pt x="237" y="1459" on="0"/>
        <pt x="260" y="1417" on="0"/>
        <pt x="260" y="1388" on="1"/>
        <pt x="260" y="1380" on="0"/>
        <pt x="261" y="1348" on="0"/>
        <pt x="260" y="1333" on="1"/>
        <pt x="235" y="450" on="1"/>
        <pt x="234" y="421" on="0"/>
        <pt x="222" y="396" on="0"/>
        <pt x="206" y="396" on="1"/>
        <pt x="191" y="396" on="0"/>
        <pt x="177" y="420" on="0"/>
        <pt x="176" y="448" on="1"/>
        <pt x="152" y="1333" on="1"/>
        <pt x="151" y="1348" on="0"/>
        <pt x="152" y="1380" on="0"/>
        <pt x="152" y="1388" on="1"/>
        <pt x="152" y="1417" on="0"/>
        <pt x="176" y="1459" on="0"/>
      </contour>
      <contour>
        <pt x="199" y="-10" on="1"/>
        <pt x="175" y="-10" on="0"/>
        <pt x="135" y="15" on="0"/>
        <pt x="110" y="55" on="0"/>
        <pt x="110" y="79" on="1"/>
        <pt x="110" y="105" on="0"/>
        <pt x="135" y="146" on="0"/>
        <pt x="175" y="169" on="0"/>
        <pt x="199" y="169" on="1"/>
        <pt x="224" y="169" on="0"/>
        <pt x="264" y="146" on="0"/>
        <pt x="287" y="105" on="0"/>
        <pt x="287" y="79" on="1"/>
        <pt x="287" y="55" on="0"/>
        <pt x="264" y="15" on="0"/>
        <pt x="224" y="-10" on="0"/>
      </contour>
    </TTGlyph>
    <TTGlyph name="exclamdown" xMin="110" yMin="-303" xMax="287" yMax="1166">
      <component glyphName="exclam" x="0" y="1156" scalex="1.0" scaley="-1.0" flags="0x4"/>
    </TTGlyph>
    <TTGlyph name="f" xMin="117" yMin="0" xMax="619" yMax="1430">
      <contour>
        <pt x="345" y="122" on="1"/>
        <pt x="345" y="68" on="0"/>
        <pt x="403" y="62" on="1"/>
        <pt x="493" y="52" on="1"/>
        <pt x="511" y="50" on="0"/>
        <pt x="531" y="36" on="0"/>
        <pt x="531" y="24" on="1"/>
        <pt x="531" y="0" on="0"/>
        <pt x="497" y="0" on="1"/>
        <pt x="161" y="0" on="1"/>
        <pt x="145" y="0" on="0"/>
        <pt x="127" y="12" on="0"/>
        <pt x="127" y="24" on="1"/>
        <pt x="127" y="44" on="0"/>
        <pt x="165" y="52" on="1"/>
        <pt x="217" y="62" on="1"/>
        <pt x="244" y="67" on="0"/>
        <pt x="275" y="97" on="0"/>
        <pt x="275" y="122" on="1"/>
        <pt x="275" y="784" on="1"/>
        <pt x="275" y="814" on="0"/>
        <pt x="248" y="848" on="0"/>
        <pt x="215" y="858" on="1"/>
        <pt x="177" y="870" on="1"/>
        <pt x="149" y="879" on="0"/>
        <pt x="117" y="892" on="0"/>
        <pt x="117" y="904" on="1"/>
        <pt x="117" y="913" on="0"/>
        <pt x="129" y="926" on="0"/>
        <pt x="141" y="926" on="1"/>
        <pt x="305" y="926" on="1"/>
        <pt x="281" y="866" on="1"/>
        <pt x="281" y="908" on="1"/>
        <pt x="281" y="945" on="0"/>
        <pt x="230" y="1024" on="0"/>
        <pt x="179" y="1125" on="0"/>
        <pt x="179" y="1194" on="1"/>
        <pt x="179" y="1295" on="0"/>
        <pt x="319" y="1430" on="0"/>
        <pt x="419" y="1430" on="1"/>
        <pt x="482" y="1430" on="0"/>
        <pt x="571" y="1385" on="0"/>
        <pt x="619" y="1305" on="0"/>
        <pt x="619" y="1252" on="1"/>
        <pt x="619" y="1214" on="0"/>
        <pt x="590" y="1174" on="0"/>
        <pt x="567" y="1174" on="1"/>
        <pt x="543" y="1174" on="0"/>
        <pt x="513" y="1208" on="0"/>
        <pt x="513" y="1238" on="1"/>
        <pt x="513" y="1276" on="1"/>
        <pt x="513" y="1326" on="0"/>
        <pt x="462" y="1382" on="0"/>
        <pt x="406" y="1382" on="1"/>
        <pt x="337" y="1382" on="0"/>
        <pt x="251" y="1297" on="0"/>
        <pt x="251" y="1219" on="1"/>
        <pt x="251" y="1176" on="0"/>
        <pt x="270" y="1102" on="0"/>
        <pt x="298" y="1039" on="0"/>
        <pt x="326" y="987" on="0"/>
        <pt x="345" y="943" on="0"/>
        <pt x="345" y="926" on="1"/>
        <pt x="345" y="892" on="1"/>
        <pt x="327" y="926" on="1"/>
        <pt x="567" y="926" on="1"/>
        <pt x="585" y="926" on="0"/>
        <pt x="601" y="915" on="0"/>
        <pt x="601" y="901" on="1"/>
        <pt x="601" y="888" on="0"/>
        <pt x="575" y="871" on="0"/>
        <pt x="549" y="871" on="1"/>
        <pt x="345" y="871" on="1"/>
      </contour>
    </TTGlyph>
    <TTGlyph name="five" xMin="148" yMin="-20" xMax="964" yMax="1455">
      <contour>
        <pt x="148" y="287" on="1"/>
        <pt x="148" y="331" on="0"/>
        <pt x="178" y="377" on="0"/>
        <pt x="205" y="377" on="1"/>
        <pt x="230" y="377" on="0"/>
        <pt x="254" y="337" on="0"/>
        <pt x="254" y="299" on="1"/>
        <pt x="254" y="230" on="1"/>
        <pt x="254" y="146" on="0"/>
        <pt x="404" y="43" on="0"/>
        <pt x="551" y="43" on="1"/>
        <pt x="691" y="43" on="0"/>
        <pt x="880" y="237" on="0"/>
        <pt x="880" y="430" on="1"/>
        <pt x="880" y="601" on="0"/>
        <pt x="707" y="779" on="0"/>
        <pt x="569" y="779" on="1"/>
        <pt x="514" y="779" on="0"/>
        <pt x="411" y="743" on="0"/>
        <pt x="319" y="668" on="0"/>
        <pt x="278" y="609" on="1"/>
        <pt x="264" y="589" on="0"/>
        <pt x="238" y="564" on="0"/>
        <pt x="219" y="564" on="1"/>
        <pt x="205" y="564" on="0"/>
        <pt x="192" y="591" on="0"/>
        <pt x="192" y="613" on="1"/>
        <pt x="192" y="1376" on="1"/>
        <pt x="192" y="1402" on="0"/>
        <pt x="218" y="1432" on="0"/>
        <pt x="246" y="1432" on="1"/>
        <pt x="260" y="1432" on="0"/>
        <pt x="284" y="1422" on="0"/>
        <pt x="300" y="1411" on="1"/>
        <pt x="353" y="1374" on="0"/>
        <pt x="444" y="1317" on="0"/>
        <pt x="550" y="1285" on="0"/>
        <pt x="624" y="1285" on="1"/>
        <pt x="713" y="1285" on="0"/>
        <pt x="841" y="1356" on="0"/>
        <pt x="881" y="1422" on="1"/>
        <pt x="895" y="1444" on="0"/>
        <pt x="920" y="1455" on="0"/>
        <pt x="931" y="1448" on="1"/>
        <pt x="939" y="1444" on="0"/>
        <pt x="946" y="1423" on="0"/>
        <pt x="936" y="1397" on="1"/>
        <pt x="916" y="1343" on="0"/>
        <pt x="823" y="1260" on="0"/>
        <pt x="697" y="1212" on="0"/>
        <pt x="624" y="1212" on="1"/>
        <pt x="545" y="1212" on="0"/>
        <pt x="410" y="1245" on="0"/>
        <pt x="294" y="1310" on="0"/>
        <pt x="241" y="1356" on="1"/>
        <pt x="250" y="1364" on="1"/>
        <pt x="250" y="655" on="1"/>
        <pt x="233" y="656" on="1"/>
        <pt x="273" y="717" on="0"/>
        <pt x="383" y="800" on="0"/>
        <pt x="511" y="843" on="0"/>
        <pt x="579" y="843" on="1"/>
        <pt x="698" y="843" on="0"/>
        <pt x="871" y="735" on="0"/>
        <pt x="964" y="546" on="0"/>
        <pt x="964" y="425" on="1"/>
        <pt x="964" y="292" on="0"/>
        <pt x="858" y="91" on="0"/>
        <pt x="666" y="-20" on="0"/>
        <pt x="536" y="-20" on="1"/>
        <pt x="419" y="-20" on="0"/>
        <pt x="245" y="66" on="0"/>
        <pt x="148" y="206" on="0"/>
      </contour>
    </TTGlyph>
    <TTGlyph name="four" xMin="37" yMin="0" xMax="963" yMax="1419">
      <contour>
        <pt x="659" y="791" on="1"/>
        <pt x="659" y="814" on="0"/>
        <pt x="673" y="840" on="0"/>
        <pt x="680" y="849" on="1"/>
        <pt x="697" y="871" on="1"/>
        <pt x="702" y="878" on="0"/>
        <pt x="715" y="884" on="0"/>
        <pt x="724" y="884" on="1"/>
        <pt x="731" y="884" on="0"/>
        <pt x="741" y="872" on="0"/>
        <pt x="741" y="861" on="1"/>
        <pt x="741" y="150" on="1"/>
        <pt x="741" y="111" on="0"/>
        <pt x="784" y="67" on="0"/>
        <pt x="823" y="62" on="1"/>
        <pt x="905" y="52" on="1"/>
        <pt x="923" y="50" on="0"/>
        <pt x="943" y="36" on="0"/>
        <pt x="943" y="24" on="1"/>
        <pt x="943" y="12" on="0"/>
        <pt x="926" y="0" on="0"/>
        <pt x="909" y="0" on="1"/>
        <pt x="491" y="0" on="1"/>
        <pt x="457" y="0" on="0"/>
        <pt x="457" y="24" on="1"/>
        <pt x="457" y="47" on="0"/>
        <pt x="495" y="52" on="1"/>
        <pt x="577" y="62" on="1"/>
        <pt x="616" y="67" on="0"/>
        <pt x="659" y="111" on="0"/>
        <pt x="659" y="150" on="1"/>
      </contour>
      <contour>
        <pt x="605" y="1110" on="1"/>
        <pt x="622" y="1131" on="0"/>
        <pt x="650" y="1173" on="0"/>
        <pt x="650" y="1202" on="1"/>
        <pt x="650" y="1224" on="0"/>
        <pt x="637" y="1255" on="0"/>
        <pt x="620" y="1284" on="0"/>
        <pt x="607" y="1316" on="0"/>
        <pt x="607" y="1337" on="1"/>
        <pt x="607" y="1360" on="0"/>
        <pt x="627" y="1397" on="0"/>
        <pt x="665" y="1419" on="0"/>
        <pt x="690" y="1419" on="1"/>
        <pt x="721" y="1419" on="0"/>
        <pt x="766" y="1363" on="0"/>
        <pt x="766" y="1314" on="1"/>
        <pt x="766" y="1271" on="0"/>
        <pt x="742" y="1198" on="0"/>
        <pt x="695" y="1127" on="0"/>
        <pt x="661" y="1086" on="1"/>
        <pt x="91" y="397" on="1"/>
        <pt x="85" y="420" on="1"/>
        <pt x="930" y="420" on="1"/>
        <pt x="945" y="420" on="0"/>
        <pt x="963" y="407" on="0"/>
        <pt x="963" y="391" on="1"/>
        <pt x="963" y="362" on="0"/>
        <pt x="929" y="362" on="1"/>
        <pt x="83" y="363" on="1"/>
        <pt x="60" y="363" on="0"/>
        <pt x="37" y="383" on="0"/>
        <pt x="37" y="400" on="1"/>
        <pt x="37" y="413" on="0"/>
        <pt x="49" y="437" on="0"/>
        <pt x="64" y="455" on="1"/>
      </contour>
    </TTGlyph>
    <TTGlyph name="g" xMin="91" yMin="-490" xMax="1021" yMax="980">
      <contour>
        <pt x="638" y="14" on="1"/>
        <pt x="506" y="33" on="0"/>
        <pt x="362" y="73" on="0"/>
        <pt x="305" y="119" on="0"/>
        <pt x="305" y="146" on="1"/>
        <pt x="305" y="173" on="0"/>
        <pt x="350" y="223" on="0"/>
        <pt x="393" y="248" on="1"/>
        <pt x="339" y="256" on="1"/>
        <pt x="300" y="237" on="0"/>
        <pt x="256" y="191" on="0"/>
        <pt x="239" y="149" on="0"/>
        <pt x="239" y="136" on="1"/>
        <pt x="239" y="88" on="0"/>
        <pt x="298" y="20" on="0"/>
        <pt x="463" y="-31" on="0"/>
        <pt x="622" y="-52" on="1"/>
        <pt x="726" y="-65" on="0"/>
        <pt x="840" y="-118" on="0"/>
        <pt x="886" y="-191" on="0"/>
        <pt x="886" y="-235" on="1"/>
        <pt x="886" y="-296" on="0"/>
        <pt x="797" y="-385" on="0"/>
        <pt x="636" y="-434" on="0"/>
        <pt x="528" y="-434" on="1"/>
        <pt x="329" y="-434" on="0"/>
        <pt x="163" y="-321" on="0"/>
        <pt x="163" y="-239" on="1"/>
        <pt x="163" y="-157" on="0"/>
        <pt x="343" y="-26" on="0"/>
        <pt x="520" y="-16" on="1"/>
        <pt x="468" y="34" on="1"/>
        <pt x="263" y="0" on="0"/>
        <pt x="91" y="-154" on="0"/>
        <pt x="91" y="-246" on="1"/>
        <pt x="91" y="-346" on="0"/>
        <pt x="298" y="-490" on="0"/>
        <pt x="523" y="-490" on="1"/>
        <pt x="732" y="-490" on="0"/>
        <pt x="960" y="-346" on="0"/>
        <pt x="960" y="-232" on="1"/>
        <pt x="960" y="-169" on="0"/>
        <pt x="899" y="-71" on="0"/>
        <pt x="758" y="-3" on="0"/>
      </contour>
      <contour>
        <pt x="723" y="812" on="1"/>
        <pt x="768" y="787" on="1"/>
        <pt x="807" y="842" on="0"/>
        <pt x="853" y="904" on="0"/>
        <pt x="886" y="904" on="1"/>
        <pt x="900" y="904" on="0"/>
        <pt x="918" y="889" on="0"/>
        <pt x="935" y="869" on="0"/>
        <pt x="958" y="854" on="0"/>
        <pt x="976" y="854" on="1"/>
        <pt x="997" y="854" on="0"/>
        <pt x="1021" y="883" on="0"/>
        <pt x="1021" y="908" on="1"/>
        <pt x="1021" y="938" on="0"/>
        <pt x="968" y="980" on="0"/>
        <pt x="927" y="980" on="1"/>
        <pt x="884" y="980" on="0"/>
        <pt x="807" y="927" on="0"/>
        <pt x="771" y="878" on="1"/>
      </contour>
      <contour>
        <pt x="874" y="571" on="1"/>
        <pt x="874" y="678" on="0"/>
        <pt x="774" y="843" on="0"/>
        <pt x="605" y="938" on="0"/>
        <pt x="500" y="938" on="1"/>
        <pt x="395" y="938" on="0"/>
        <pt x="222" y="845" on="0"/>
        <pt x="120" y="681" on="0"/>
        <pt x="120" y="573" on="1"/>
        <pt x="120" y="465" on="0"/>
        <pt x="220" y="298" on="0"/>
        <pt x="390" y="202" on="0"/>
        <pt x="495" y="202" on="1"/>
        <pt x="601" y="202" on="0"/>
        <pt x="772" y="297" on="0"/>
        <pt x="874" y="464" on="0"/>
      </contour>
      <contour>
        <pt x="492" y="884" on="1"/>
        <pt x="627" y="884" on="0"/>
        <pt x="797" y="708" on="0"/>
        <pt x="797" y="566" on="1"/>
        <pt x="797" y="432" on="0"/>
        <pt x="635" y="255" on="0"/>
        <pt x="503" y="255" on="1"/>
        <pt x="414" y="255" on="0"/>
        <pt x="275" y="335" on="0"/>
        <pt x="197" y="480" on="0"/>
        <pt x="197" y="576" on="1"/>
        <pt x="197" y="666" on="0"/>
        <pt x="271" y="805" on="0"/>
        <pt x="404" y="884" on="0"/>
      </contour>
    </TTGlyph>
    <TTGlyph name="guillemetleft" xMin="120" yMin="145" xMax="827" yMax="785">
      <component glyphName="guilsinglleft" x="0" y="1" flags="0x4"/>
      <component glyphName="guilsinglleft" x="352" y="1" flags="0x4"/>
    </TTGlyph>
    <TTGlyph name="guillemetright" xMin="133" yMin="145" xMax="840" yMax="785">
      <component glyphName="guillemetleft" x="960" y="930" scale="-1.0" flags="0x4"/>
    </TTGlyph>
    <TTGlyph name="guilsinglleft" xMin="120" yMin="144" xMax="475" yMax="784">
      <contour>
        <pt x="120" y="464" on="1"/>
        <pt x="120" y="482" on="0"/>
        <pt x="141" y="509" on="0"/>
        <pt x="184" y="547" on="1"/>
        <pt x="245" y="601" on="0"/>
        <pt x="325" y="670" on="0"/>
        <pt x="389" y="729" on="0"/>
        <pt x="424" y="766" on="1"/>
        <pt x="433" y="775" on="0"/>
        <pt x="453" y="784" on="0"/>
        <pt x="464" y="776" on="1"/>
        <pt x="475" y="768" on="0"/>
        <pt x="472" y="747" on="0"/>
        <pt x="464" y="736" on="1"/>
        <pt x="436" y="698" on="0"/>
        <pt x="366" y="615" on="0"/>
        <pt x="264" y="512" on="0"/>
        <pt x="188" y="441" on="1"/>
        <pt x="188" y="487" on="1"/>
        <pt x="264" y="417" on="0"/>
        <pt x="366" y="313" on="0"/>
        <pt x="436" y="231" on="0"/>
        <pt x="464" y="192" on="1"/>
        <pt x="472" y="181" on="0"/>
        <pt x="475" y="160" on="0"/>
        <pt x="464" y="152" on="1"/>
        <pt x="453" y="144" on="0"/>
        <pt x="433" y="153" on="0"/>
        <pt x="424" y="162" on="1"/>
        <pt x="389" y="200" on="0"/>
        <pt x="325" y="258" on="0"/>
        <pt x="245" y="327" on="0"/>
        <pt x="184" y="381" on="1"/>
        <pt x="141" y="419" on="0"/>
        <pt x="120" y="446" on="0"/>
      </contour>
    </TTGlyph>
    <TTGlyph name="guilsinglright" xMin="133" yMin="144" xMax="488" yMax="784">
      <component glyphName="guilsinglleft" x="608" y="928" scale="-1.0" flags="0x4"/>
    </TTGlyph>
    <TTGlyph name="h" xMin="87" yMin="0" xMax="1129" yMax="1452">
      <contour>
        <pt x="325" y="1412" on="1"/>
        <pt x="325" y="122" on="1"/>
        <pt x="325" y="97" on="0"/>
        <pt x="356" y="67" on="0"/>
        <pt x="383" y="62" on="1"/>
        <pt x="433" y="52" on="1"/>
        <pt x="471" y="44" on="0"/>
        <pt x="471" y="24" on="1"/>
        <pt x="471" y="0" on="0"/>
        <pt x="437" y="0" on="1"/>
        <pt x="141" y="0" on="1"/>
        <pt x="125" y="0" on="0"/>
        <pt x="107" y="12" on="0"/>
        <pt x="107" y="24" on="1"/>
        <pt x="107" y="36" on="0"/>
        <pt x="127" y="48" on="0"/>
        <pt x="145" y="52" on="1"/>
        <pt x="197" y="62" on="1"/>
        <pt x="224" y="67" on="0"/>
        <pt x="255" y="97" on="0"/>
        <pt x="255" y="122" on="1"/>
        <pt x="255" y="1300" on="1"/>
        <pt x="255" y="1324" on="0"/>
        <pt x="234" y="1348" on="0"/>
        <pt x="213" y="1348" on="1"/>
        <pt x="119" y="1348" on="1"/>
        <pt x="104" y="1348" on="0"/>
        <pt x="87" y="1362" on="0"/>
        <pt x="87" y="1372" on="1"/>
        <pt x="87" y="1392" on="0"/>
        <pt x="119" y="1402" on="1"/>
        <pt x="229" y="1434" on="1"/>
        <pt x="244" y="1439" on="0"/>
        <pt x="278" y="1452" on="0"/>
        <pt x="287" y="1452" on="1"/>
        <pt x="305" y="1452" on="0"/>
        <pt x="325" y="1432" on="0"/>
      </contour>
      <contour>
        <pt x="301" y="691" on="1"/>
        <pt x="267" y="727" on="1"/>
        <pt x="319" y="774" on="1"/>
        <pt x="402" y="848" on="0"/>
        <pt x="573" y="940" on="0"/>
        <pt x="658" y="940" on="1"/>
        <pt x="768" y="940" on="0"/>
        <pt x="895" y="811" on="0"/>
        <pt x="911" y="688" on="1"/>
        <pt x="983" y="122" on="1"/>
        <pt x="986" y="97" on="0"/>
        <pt x="1014" y="67" on="0"/>
        <pt x="1041" y="62" on="1"/>
        <pt x="1091" y="52" on="1"/>
        <pt x="1109" y="48" on="0"/>
        <pt x="1129" y="36" on="0"/>
        <pt x="1129" y="24" on="1"/>
        <pt x="1129" y="12" on="0"/>
        <pt x="1112" y="0" on="0"/>
        <pt x="1095" y="0" on="1"/>
        <pt x="800" y="0" on="1"/>
        <pt x="766" y="0" on="0"/>
        <pt x="766" y="24" on="1"/>
        <pt x="766" y="44" on="0"/>
        <pt x="804" y="52" on="1"/>
        <pt x="855" y="62" on="1"/>
        <pt x="882" y="67" on="0"/>
        <pt x="916" y="97" on="0"/>
        <pt x="913" y="122" on="1"/>
        <pt x="841" y="668" on="1"/>
        <pt x="826" y="781" on="0"/>
        <pt x="736" y="882" on="0"/>
        <pt x="650" y="882" on="1"/>
        <pt x="589" y="882" on="0"/>
        <pt x="439" y="814" on="0"/>
        <pt x="347" y="732" on="1"/>
      </contour>
    </TTGlyph>
    <TTGlyph name="h.alt" xMin="87" yMin="0" xMax="1093" yMax="1452">
      <contour>
        <pt x="293" y="678" on="1"/>
        <pt x="259" y="714" on="1"/>
        <pt x="319" y="768" on="1"/>
        <pt x="410" y="850" on="0"/>
        <pt x="585" y="940" on="0"/>
        <pt x="668" y="940" on="1"/>
        <pt x="789" y="940" on="0"/>
        <pt x="947" y="791" on="0"/>
        <pt x="947" y="668" on="1"/>
        <pt x="947" y="122" on="1"/>
        <pt x="947" y="97" on="0"/>
        <pt x="978" y="67" on="0"/>
        <pt x="1005" y="62" on="1"/>
        <pt x="1055" y="52" on="1"/>
        <pt x="1073" y="48" on="0"/>
        <pt x="1093" y="36" on="0"/>
        <pt x="1093" y="24" on="1"/>
        <pt x="1093" y="12" on="0"/>
        <pt x="1076" y="0" on="0"/>
        <pt x="1059" y="0" on="1"/>
        <pt x="763" y="0" on="1"/>
        <pt x="729" y="0" on="0"/>
        <pt x="729" y="24" on="1"/>
        <pt x="729" y="44" on="0"/>
        <pt x="767" y="52" on="1"/>
        <pt x="819" y="62" on="1"/>
        <pt x="846" y="67" on="0"/>
        <pt x="877" y="97" on="0"/>
        <pt x="877" y="122" on="1"/>
        <pt x="877" y="648" on="1"/>
        <pt x="877" y="762" on="0"/>
        <pt x="757" y="882" on="0"/>
        <pt x="660" y="882" on="1"/>
        <pt x="594" y="882" on="0"/>
        <pt x="437" y="806" on="0"/>
        <pt x="347" y="726" on="1"/>
      </contour>
      <contour>
        <pt x="325" y="1412" on="1"/>
        <pt x="325" y="122" on="1"/>
        <pt x="325" y="97" on="0"/>
        <pt x="356" y="67" on="0"/>
        <pt x="383" y="62" on="1"/>
        <pt x="433" y="52" on="1"/>
        <pt x="471" y="44" on="0"/>
        <pt x="471" y="24" on="1"/>
        <pt x="471" y="0" on="0"/>
        <pt x="437" y="0" on="1"/>
        <pt x="141" y="0" on="1"/>
        <pt x="125" y="0" on="0"/>
        <pt x="107" y="12" on="0"/>
        <pt x="107" y="24" on="1"/>
        <pt x="107" y="36" on="0"/>
        <pt x="127" y="48" on="0"/>
        <pt x="145" y="52" on="1"/>
        <pt x="197" y="62" on="1"/>
        <pt x="224" y="67" on="0"/>
        <pt x="255" y="97" on="0"/>
        <pt x="255" y="122" on="1"/>
        <pt x="255" y="1300" on="1"/>
        <pt x="255" y="1324" on="0"/>
        <pt x="234" y="1348" on="0"/>
        <pt x="213" y="1348" on="1"/>
        <pt x="119" y="1348" on="1"/>
        <pt x="104" y="1348" on="0"/>
        <pt x="87" y="1362" on="0"/>
        <pt x="87" y="1372" on="1"/>
        <pt x="87" y="1392" on="0"/>
        <pt x="119" y="1402" on="1"/>
        <pt x="229" y="1434" on="1"/>
        <pt x="244" y="1439" on="0"/>
        <pt x="278" y="1452" on="0"/>
        <pt x="287" y="1452" on="1"/>
        <pt x="305" y="1452" on="0"/>
        <pt x="325" y="1432" on="0"/>
      </contour>
    </TTGlyph>
    <TTGlyph name="hyphen" xMin="142" yMin="526" xMax="724" yMax="610">
      <contour>
        <pt x="692" y="610" on="1"/>
        <pt x="724" y="610" on="0"/>
        <pt x="714" y="588" on="1"/>
        <pt x="695" y="543" on="1"/>
        <pt x="691" y="533" on="0"/>
        <pt x="677" y="526" on="0"/>
        <pt x="662" y="526" on="1"/>
        <pt x="174" y="526" on="1"/>
        <pt x="142" y="526" on="0"/>
        <pt x="152" y="548" on="1"/>
        <pt x="171" y="593" on="1"/>
        <pt x="176" y="604" on="0"/>
        <pt x="189" y="610" on="0"/>
        <pt x="204" y="610" on="1"/>
      </contour>
    </TTGlyph>
    <TTGlyph name="i" xMin="87" yMin="0" xMax="471" yMax="1352">
      <contour>
        <pt x="325" y="886" on="1"/>
        <pt x="325" y="122" on="1"/>
        <pt x="325" y="97" on="0"/>
        <pt x="356" y="67" on="0"/>
        <pt x="383" y="62" on="1"/>
        <pt x="433" y="52" on="1"/>
        <pt x="451" y="48" on="0"/>
        <pt x="471" y="36" on="0"/>
        <pt x="471" y="24" on="1"/>
        <pt x="471" y="12" on="0"/>
        <pt x="454" y="0" on="0"/>
        <pt x="437" y="0" on="1"/>
        <pt x="141" y="0" on="1"/>
        <pt x="125" y="0" on="0"/>
        <pt x="107" y="12" on="0"/>
        <pt x="107" y="24" on="1"/>
        <pt x="107" y="36" on="0"/>
        <pt x="127" y="48" on="0"/>
        <pt x="145" y="52" on="1"/>
        <pt x="197" y="62" on="1"/>
        <pt x="224" y="67" on="0"/>
        <pt x="255" y="97" on="0"/>
        <pt x="255" y="122" on="1"/>
        <pt x="255" y="774" on="1"/>
        <pt x="255" y="798" on="0"/>
        <pt x="234" y="822" on="0"/>
        <pt x="213" y="822" on="1"/>
        <pt x="119" y="822" on="1"/>
        <pt x="104" y="822" on="0"/>
        <pt x="87" y="836" on="0"/>
        <pt x="87" y="846" on="1"/>
        <pt x="87" y="866" on="0"/>
        <pt x="119" y="876" on="1"/>
        <pt x="229" y="908" on="1"/>
        <pt x="244" y="913" on="0"/>
        <pt x="278" y="926" on="0"/>
        <pt x="287" y="926" on="1"/>
        <pt x="305" y="926" on="0"/>
        <pt x="325" y="906" on="0"/>
      </contour>
      <contour>
        <pt x="259" y="1174" on="1"/>
        <pt x="223" y="1174" on="0"/>
        <pt x="171" y="1227" on="0"/>
        <pt x="171" y="1264" on="1"/>
        <pt x="171" y="1300" on="0"/>
        <pt x="223" y="1352" on="0"/>
        <pt x="259" y="1352" on="1"/>
        <pt x="298" y="1352" on="0"/>
        <pt x="351" y="1300" on="0"/>
        <pt x="351" y="1264" on="1"/>
        <pt x="351" y="1227" on="0"/>
        <pt x="298" y="1174" on="0"/>
      </contour>
    </TTGlyph>
    <TTGlyph name="j" xMin="-19" yMin="-466" xMax="404" yMax="1352">
      <contour>
        <pt x="325" y="64" on="1"/>
        <pt x="325" y="22" on="0"/>
        <pt x="349" y="-60" on="0"/>
        <pt x="380" y="-142" on="0"/>
        <pt x="404" y="-221" on="0"/>
        <pt x="404" y="-260" on="1"/>
        <pt x="404" y="-353" on="0"/>
        <pt x="280" y="-466" on="0"/>
        <pt x="183" y="-466" on="1"/>
        <pt x="121" y="-466" on="0"/>
        <pt x="30" y="-418" on="0"/>
        <pt x="-19" y="-339" on="0"/>
        <pt x="-19" y="-294" on="1"/>
        <pt x="-19" y="-253" on="0"/>
        <pt x="12" y="-210" on="0"/>
        <pt x="37" y="-210" on="1"/>
        <pt x="60" y="-210" on="0"/>
        <pt x="87" y="-249" on="0"/>
        <pt x="87" y="-284" on="1"/>
        <pt x="87" y="-312" on="1"/>
        <pt x="87" y="-361" on="0"/>
        <pt x="142" y="-419" on="0"/>
        <pt x="200" y="-418" on="1"/>
        <pt x="263" y="-417" on="0"/>
        <pt x="334" y="-344" on="0"/>
        <pt x="334" y="-273" on="1"/>
        <pt x="334" y="-242" on="0"/>
        <pt x="318" y="-181" on="0"/>
        <pt x="295" y="-122" on="0"/>
        <pt x="271" y="-65" on="0"/>
        <pt x="255" y="-8" on="0"/>
        <pt x="255" y="20" on="1"/>
        <pt x="255" y="774" on="1"/>
        <pt x="255" y="798" on="0"/>
        <pt x="234" y="822" on="0"/>
        <pt x="213" y="822" on="1"/>
        <pt x="119" y="822" on="1"/>
        <pt x="104" y="822" on="0"/>
        <pt x="87" y="836" on="0"/>
        <pt x="87" y="846" on="1"/>
        <pt x="87" y="866" on="0"/>
        <pt x="119" y="876" on="1"/>
        <pt x="229" y="908" on="1"/>
        <pt x="244" y="913" on="0"/>
        <pt x="278" y="926" on="0"/>
        <pt x="287" y="926" on="1"/>
        <pt x="305" y="926" on="0"/>
        <pt x="325" y="906" on="0"/>
        <pt x="325" y="886" on="1"/>
      </contour>
      <contour>
        <pt x="246" y="1174" on="1"/>
        <pt x="210" y="1174" on="0"/>
        <pt x="158" y="1227" on="0"/>
        <pt x="158" y="1264" on="1"/>
        <pt x="158" y="1300" on="0"/>
        <pt x="210" y="1352" on="0"/>
        <pt x="246" y="1352" on="1"/>
        <pt x="285" y="1352" on="0"/>
        <pt x="338" y="1300" on="0"/>
        <pt x="338" y="1264" on="1"/>
        <pt x="338" y="1227" on="0"/>
        <pt x="285" y="1174" on="0"/>
      </contour>
    </TTGlyph>
    <TTGlyph name="k" xMin="87" yMin="0" xMax="1063" yMax="1452">
      <contour>
        <pt x="141" y="0" on="1"/>
        <pt x="125" y="0" on="0"/>
        <pt x="107" y="12" on="0"/>
        <pt x="107" y="24" on="1"/>
        <pt x="107" y="36" on="0"/>
        <pt x="127" y="48" on="0"/>
        <pt x="145" y="52" on="1"/>
        <pt x="197" y="62" on="1"/>
        <pt x="224" y="67" on="0"/>
        <pt x="255" y="97" on="0"/>
        <pt x="255" y="122" on="1"/>
        <pt x="255" y="1300" on="1"/>
        <pt x="255" y="1324" on="0"/>
        <pt x="234" y="1348" on="0"/>
        <pt x="213" y="1348" on="1"/>
        <pt x="119" y="1348" on="1"/>
        <pt x="104" y="1348" on="0"/>
        <pt x="87" y="1362" on="0"/>
        <pt x="87" y="1372" on="1"/>
        <pt x="87" y="1392" on="0"/>
        <pt x="119" y="1402" on="1"/>
        <pt x="229" y="1434" on="1"/>
        <pt x="244" y="1439" on="0"/>
        <pt x="278" y="1452" on="0"/>
        <pt x="287" y="1452" on="1"/>
        <pt x="305" y="1452" on="0"/>
        <pt x="325" y="1432" on="0"/>
        <pt x="325" y="1412" on="1"/>
        <pt x="325" y="122" on="1"/>
        <pt x="325" y="97" on="0"/>
        <pt x="356" y="67" on="0"/>
        <pt x="383" y="62" on="1"/>
        <pt x="433" y="52" on="1"/>
        <pt x="471" y="44" on="0"/>
        <pt x="471" y="24" on="1"/>
        <pt x="471" y="0" on="0"/>
        <pt x="437" y="0" on="1"/>
      </contour>
      <contour>
        <pt x="289" y="439" on="1"/>
        <pt x="729" y="801" on="1"/>
        <pt x="751" y="819" on="0"/>
        <pt x="751" y="860" on="0"/>
        <pt x="722" y="864" on="1"/>
        <pt x="672" y="871" on="1"/>
        <pt x="638" y="876" on="0"/>
        <pt x="618" y="893" on="0"/>
        <pt x="618" y="902" on="1"/>
        <pt x="618" y="914" on="0"/>
        <pt x="636" y="926" on="0"/>
        <pt x="652" y="926" on="1"/>
        <pt x="973" y="926" on="1"/>
        <pt x="990" y="926" on="0"/>
        <pt x="1007" y="914" on="0"/>
        <pt x="1007" y="902" on="1"/>
        <pt x="1007" y="891" on="0"/>
        <pt x="983" y="876" on="0"/>
        <pt x="935" y="867" on="1"/>
        <pt x="886" y="858" on="0"/>
        <pt x="835" y="818" on="0"/>
        <pt x="793" y="783" on="1"/>
        <pt x="289" y="365" on="1"/>
      </contour>
      <contour>
        <pt x="529" y="607" on="1"/>
        <pt x="904" y="139" on="1"/>
        <pt x="939" y="96" on="0"/>
        <pt x="984" y="60" on="0"/>
        <pt x="1016" y="53" on="1"/>
        <pt x="1039" y="48" on="0"/>
        <pt x="1063" y="37" on="0"/>
        <pt x="1063" y="24" on="1"/>
        <pt x="1063" y="12" on="0"/>
        <pt x="1046" y="0" on="0"/>
        <pt x="1029" y="0" on="1"/>
        <pt x="732" y="0" on="1"/>
        <pt x="716" y="0" on="0"/>
        <pt x="698" y="12" on="0"/>
        <pt x="698" y="24" on="1"/>
        <pt x="698" y="36" on="0"/>
        <pt x="719" y="48" on="0"/>
        <pt x="751" y="54" on="1"/>
        <pt x="802" y="64" on="1"/>
        <pt x="849" y="73" on="0"/>
        <pt x="841" y="107" on="0"/>
        <pt x="802" y="156" on="1"/>
        <pt x="469" y="570" on="1"/>
      </contour>
    </TTGlyph>
    <TTGlyph name="l" xMin="87" yMin="0" xMax="471" yMax="1452">
      <contour>
        <pt x="325" y="1412" on="1"/>
        <pt x="325" y="122" on="1"/>
        <pt x="325" y="97" on="0"/>
        <pt x="356" y="67" on="0"/>
        <pt x="383" y="62" on="1"/>
        <pt x="433" y="52" on="1"/>
        <pt x="451" y="48" on="0"/>
        <pt x="471" y="36" on="0"/>
        <pt x="471" y="24" on="1"/>
        <pt x="471" y="12" on="0"/>
        <pt x="454" y="0" on="0"/>
        <pt x="437" y="0" on="1"/>
        <pt x="141" y="0" on="1"/>
        <pt x="125" y="0" on="0"/>
        <pt x="107" y="12" on="0"/>
        <pt x="107" y="24" on="1"/>
        <pt x="107" y="36" on="0"/>
        <pt x="127" y="48" on="0"/>
        <pt x="145" y="52" on="1"/>
        <pt x="197" y="62" on="1"/>
        <pt x="224" y="67" on="0"/>
        <pt x="255" y="97" on="0"/>
        <pt x="255" y="122" on="1"/>
        <pt x="255" y="1300" on="1"/>
        <pt x="255" y="1324" on="0"/>
        <pt x="234" y="1348" on="0"/>
        <pt x="213" y="1348" on="1"/>
        <pt x="119" y="1348" on="1"/>
        <pt x="104" y="1348" on="0"/>
        <pt x="87" y="1362" on="0"/>
        <pt x="87" y="1372" on="1"/>
        <pt x="87" y="1392" on="0"/>
        <pt x="119" y="1402" on="1"/>
        <pt x="229" y="1434" on="1"/>
        <pt x="244" y="1439" on="0"/>
        <pt x="278" y="1452" on="0"/>
        <pt x="287" y="1452" on="1"/>
        <pt x="305" y="1452" on="0"/>
        <pt x="325" y="1432" on="0"/>
      </contour>
    </TTGlyph>
    <TTGlyph name="m" xMin="87" yMin="0" xMax="1751" yMax="940">
      <contour>
        <pt x="325" y="886" on="1"/>
        <pt x="325" y="122" on="1"/>
        <pt x="325" y="97" on="0"/>
        <pt x="356" y="67" on="0"/>
        <pt x="383" y="62" on="1"/>
        <pt x="433" y="52" on="1"/>
        <pt x="471" y="44" on="0"/>
        <pt x="471" y="24" on="1"/>
        <pt x="471" y="0" on="0"/>
        <pt x="437" y="0" on="1"/>
        <pt x="141" y="0" on="1"/>
        <pt x="125" y="0" on="0"/>
        <pt x="107" y="12" on="0"/>
        <pt x="107" y="24" on="1"/>
        <pt x="107" y="36" on="0"/>
        <pt x="127" y="48" on="0"/>
        <pt x="145" y="52" on="1"/>
        <pt x="197" y="62" on="1"/>
        <pt x="224" y="67" on="0"/>
        <pt x="255" y="97" on="0"/>
        <pt x="255" y="122" on="1"/>
        <pt x="255" y="774" on="1"/>
        <pt x="255" y="798" on="0"/>
        <pt x="234" y="822" on="0"/>
        <pt x="213" y="822" on="1"/>
        <pt x="119" y="822" on="1"/>
        <pt x="104" y="822" on="0"/>
        <pt x="87" y="836" on="0"/>
        <pt x="87" y="846" on="1"/>
        <pt x="87" y="866" on="0"/>
        <pt x="119" y="876" on="1"/>
        <pt x="229" y="908" on="1"/>
        <pt x="244" y="913" on="0"/>
        <pt x="278" y="926" on="0"/>
        <pt x="287" y="926" on="1"/>
        <pt x="305" y="926" on="0"/>
        <pt x="325" y="906" on="0"/>
      </contour>
      <contour>
        <pt x="293" y="678" on="1"/>
        <pt x="259" y="714" on="1"/>
        <pt x="319" y="768" on="1"/>
        <pt x="410" y="850" on="0"/>
        <pt x="585" y="940" on="0"/>
        <pt x="668" y="940" on="1"/>
        <pt x="789" y="940" on="0"/>
        <pt x="947" y="791" on="0"/>
        <pt x="947" y="668" on="1"/>
        <pt x="947" y="122" on="1"/>
        <pt x="947" y="97" on="0"/>
        <pt x="978" y="67" on="0"/>
        <pt x="1005" y="62" on="1"/>
        <pt x="1055" y="52" on="1"/>
        <pt x="1093" y="44" on="0"/>
        <pt x="1093" y="24" on="1"/>
        <pt x="1093" y="0" on="0"/>
        <pt x="1059" y="0" on="1"/>
        <pt x="763" y="0" on="1"/>
        <pt x="729" y="0" on="0"/>
        <pt x="729" y="24" on="1"/>
        <pt x="729" y="44" on="0"/>
        <pt x="767" y="52" on="1"/>
        <pt x="819" y="62" on="1"/>
        <pt x="846" y="67" on="0"/>
        <pt x="877" y="97" on="0"/>
        <pt x="877" y="122" on="1"/>
        <pt x="877" y="648" on="1"/>
        <pt x="877" y="762" on="0"/>
        <pt x="757" y="882" on="0"/>
        <pt x="660" y="882" on="1"/>
        <pt x="594" y="882" on="0"/>
        <pt x="437" y="806" on="0"/>
        <pt x="347" y="726" on="1"/>
      </contour>
      <contour>
        <pt x="923" y="691" on="1"/>
        <pt x="889" y="727" on="1"/>
        <pt x="941" y="774" on="1"/>
        <pt x="1024" y="848" on="0"/>
        <pt x="1195" y="940" on="0"/>
        <pt x="1280" y="940" on="1"/>
        <pt x="1390" y="940" on="0"/>
        <pt x="1517" y="811" on="0"/>
        <pt x="1533" y="688" on="1"/>
        <pt x="1605" y="122" on="1"/>
        <pt x="1608" y="97" on="0"/>
        <pt x="1636" y="67" on="0"/>
        <pt x="1663" y="62" on="1"/>
        <pt x="1713" y="52" on="1"/>
        <pt x="1731" y="48" on="0"/>
        <pt x="1751" y="36" on="0"/>
        <pt x="1751" y="24" on="1"/>
        <pt x="1751" y="12" on="0"/>
        <pt x="1734" y="0" on="0"/>
        <pt x="1717" y="0" on="1"/>
        <pt x="1422" y="0" on="1"/>
        <pt x="1388" y="0" on="0"/>
        <pt x="1388" y="24" on="1"/>
        <pt x="1388" y="44" on="0"/>
        <pt x="1426" y="52" on="1"/>
        <pt x="1477" y="62" on="1"/>
        <pt x="1504" y="67" on="0"/>
        <pt x="1538" y="97" on="0"/>
        <pt x="1535" y="122" on="1"/>
        <pt x="1463" y="668" on="1"/>
        <pt x="1448" y="781" on="0"/>
        <pt x="1358" y="882" on="0"/>
        <pt x="1272" y="882" on="1"/>
        <pt x="1211" y="882" on="0"/>
        <pt x="1061" y="814" on="0"/>
        <pt x="969" y="732" on="1"/>
      </contour>
    </TTGlyph>
    <TTGlyph name="m.alt" xMin="87" yMin="0" xMax="1705" yMax="940">
      <contour>
        <pt x="325" y="886" on="1"/>
        <pt x="325" y="122" on="1"/>
        <pt x="325" y="97" on="0"/>
        <pt x="356" y="67" on="0"/>
        <pt x="383" y="62" on="1"/>
        <pt x="433" y="52" on="1"/>
        <pt x="471" y="44" on="0"/>
        <pt x="471" y="24" on="1"/>
        <pt x="471" y="0" on="0"/>
        <pt x="437" y="0" on="1"/>
        <pt x="141" y="0" on="1"/>
        <pt x="125" y="0" on="0"/>
        <pt x="107" y="12" on="0"/>
        <pt x="107" y="24" on="1"/>
        <pt x="107" y="36" on="0"/>
        <pt x="127" y="48" on="0"/>
        <pt x="145" y="52" on="1"/>
        <pt x="197" y="62" on="1"/>
        <pt x="224" y="67" on="0"/>
        <pt x="255" y="97" on="0"/>
        <pt x="255" y="122" on="1"/>
        <pt x="255" y="774" on="1"/>
        <pt x="255" y="798" on="0"/>
        <pt x="234" y="822" on="0"/>
        <pt x="213" y="822" on="1"/>
        <pt x="119" y="822" on="1"/>
        <pt x="104" y="822" on="0"/>
        <pt x="87" y="836" on="0"/>
        <pt x="87" y="846" on="1"/>
        <pt x="87" y="866" on="0"/>
        <pt x="119" y="876" on="1"/>
        <pt x="229" y="908" on="1"/>
        <pt x="244" y="913" on="0"/>
        <pt x="278" y="926" on="0"/>
        <pt x="287" y="926" on="1"/>
        <pt x="305" y="926" on="0"/>
        <pt x="325" y="906" on="0"/>
      </contour>
      <contour>
        <pt x="293" y="678" on="1"/>
        <pt x="259" y="714" on="1"/>
        <pt x="319" y="768" on="1"/>
        <pt x="410" y="850" on="0"/>
        <pt x="585" y="940" on="0"/>
        <pt x="668" y="940" on="1"/>
        <pt x="789" y="940" on="0"/>
        <pt x="947" y="791" on="0"/>
        <pt x="947" y="668" on="1"/>
        <pt x="947" y="122" on="1"/>
        <pt x="947" y="97" on="0"/>
        <pt x="978" y="67" on="0"/>
        <pt x="1005" y="62" on="1"/>
        <pt x="1055" y="52" on="1"/>
        <pt x="1093" y="44" on="0"/>
        <pt x="1093" y="24" on="1"/>
        <pt x="1093" y="0" on="0"/>
        <pt x="1059" y="0" on="1"/>
        <pt x="763" y="0" on="1"/>
        <pt x="729" y="0" on="0"/>
        <pt x="729" y="24" on="1"/>
        <pt x="729" y="44" on="0"/>
        <pt x="767" y="52" on="1"/>
        <pt x="819" y="62" on="1"/>
        <pt x="846" y="67" on="0"/>
        <pt x="877" y="97" on="0"/>
        <pt x="877" y="122" on="1"/>
        <pt x="877" y="648" on="1"/>
        <pt x="877" y="762" on="0"/>
        <pt x="757" y="882" on="0"/>
        <pt x="660" y="882" on="1"/>
        <pt x="594" y="882" on="0"/>
        <pt x="437" y="806" on="0"/>
        <pt x="347" y="726" on="1"/>
      </contour>
      <contour>
        <pt x="931" y="684" on="1"/>
        <pt x="897" y="724" on="1"/>
        <pt x="931" y="758" on="1"/>
        <pt x="1020" y="847" on="0"/>
        <pt x="1197" y="940" on="0"/>
        <pt x="1280" y="940" on="1"/>
        <pt x="1401" y="940" on="0"/>
        <pt x="1559" y="791" on="0"/>
        <pt x="1559" y="668" on="1"/>
        <pt x="1559" y="122" on="1"/>
        <pt x="1559" y="97" on="0"/>
        <pt x="1590" y="67" on="0"/>
        <pt x="1617" y="62" on="1"/>
        <pt x="1667" y="52" on="1"/>
        <pt x="1685" y="48" on="0"/>
        <pt x="1705" y="36" on="0"/>
        <pt x="1705" y="24" on="1"/>
        <pt x="1705" y="12" on="0"/>
        <pt x="1688" y="0" on="0"/>
        <pt x="1671" y="0" on="1"/>
        <pt x="1375" y="0" on="1"/>
        <pt x="1341" y="0" on="0"/>
        <pt x="1341" y="24" on="1"/>
        <pt x="1341" y="44" on="0"/>
        <pt x="1379" y="52" on="1"/>
        <pt x="1431" y="62" on="1"/>
        <pt x="1458" y="67" on="0"/>
        <pt x="1489" y="97" on="0"/>
        <pt x="1489" y="122" on="1"/>
        <pt x="1489" y="648" on="1"/>
        <pt x="1489" y="762" on="0"/>
        <pt x="1369" y="882" on="0"/>
        <pt x="1272" y="882" on="1"/>
        <pt x="1206" y="882" on="0"/>
        <pt x="1047" y="800" on="0"/>
        <pt x="959" y="712" on="1"/>
      </contour>
    </TTGlyph>
    <TTGlyph name="n" xMin="87" yMin="0" xMax="1129" yMax="940">
      <contour>
        <pt x="325" y="886" on="1"/>
        <pt x="325" y="122" on="1"/>
        <pt x="325" y="97" on="0"/>
        <pt x="356" y="67" on="0"/>
        <pt x="383" y="62" on="1"/>
        <pt x="433" y="52" on="1"/>
        <pt x="471" y="44" on="0"/>
        <pt x="471" y="24" on="1"/>
        <pt x="471" y="0" on="0"/>
        <pt x="437" y="0" on="1"/>
        <pt x="141" y="0" on="1"/>
        <pt x="125" y="0" on="0"/>
        <pt x="107" y="12" on="0"/>
        <pt x="107" y="24" on="1"/>
        <pt x="107" y="36" on="0"/>
        <pt x="127" y="48" on="0"/>
        <pt x="145" y="52" on="1"/>
        <pt x="197" y="62" on="1"/>
        <pt x="224" y="67" on="0"/>
        <pt x="255" y="97" on="0"/>
        <pt x="255" y="122" on="1"/>
        <pt x="255" y="774" on="1"/>
        <pt x="255" y="798" on="0"/>
        <pt x="234" y="822" on="0"/>
        <pt x="213" y="822" on="1"/>
        <pt x="119" y="822" on="1"/>
        <pt x="104" y="822" on="0"/>
        <pt x="87" y="836" on="0"/>
        <pt x="87" y="846" on="1"/>
        <pt x="87" y="866" on="0"/>
        <pt x="119" y="876" on="1"/>
        <pt x="229" y="908" on="1"/>
        <pt x="244" y="913" on="0"/>
        <pt x="278" y="926" on="0"/>
        <pt x="287" y="926" on="1"/>
        <pt x="305" y="926" on="0"/>
        <pt x="325" y="906" on="0"/>
      </contour>
      <contour>
        <pt x="301" y="691" on="1"/>
        <pt x="267" y="727" on="1"/>
        <pt x="319" y="774" on="1"/>
        <pt x="402" y="848" on="0"/>
        <pt x="573" y="940" on="0"/>
        <pt x="658" y="940" on="1"/>
        <pt x="768" y="940" on="0"/>
        <pt x="895" y="811" on="0"/>
        <pt x="911" y="688" on="1"/>
        <pt x="983" y="122" on="1"/>
        <pt x="986" y="97" on="0"/>
        <pt x="1014" y="67" on="0"/>
        <pt x="1041" y="62" on="1"/>
        <pt x="1091" y="52" on="1"/>
        <pt x="1109" y="48" on="0"/>
        <pt x="1129" y="36" on="0"/>
        <pt x="1129" y="24" on="1"/>
        <pt x="1129" y="12" on="0"/>
        <pt x="1112" y="0" on="0"/>
        <pt x="1095" y="0" on="1"/>
        <pt x="800" y="0" on="1"/>
        <pt x="766" y="0" on="0"/>
        <pt x="766" y="24" on="1"/>
        <pt x="766" y="44" on="0"/>
        <pt x="804" y="52" on="1"/>
        <pt x="855" y="62" on="1"/>
        <pt x="882" y="67" on="0"/>
        <pt x="916" y="97" on="0"/>
        <pt x="913" y="122" on="1"/>
        <pt x="841" y="668" on="1"/>
        <pt x="826" y="781" on="0"/>
        <pt x="736" y="882" on="0"/>
        <pt x="650" y="882" on="1"/>
        <pt x="589" y="882" on="0"/>
        <pt x="439" y="814" on="0"/>
        <pt x="347" y="732" on="1"/>
      </contour>
    </TTGlyph>
    <TTGlyph name="n.alt" xMin="87" yMin="0" xMax="1093" yMax="940">
      <contour>
        <pt x="325" y="886" on="1"/>
        <pt x="325" y="122" on="1"/>
        <pt x="325" y="97" on="0"/>
        <pt x="356" y="67" on="0"/>
        <pt x="383" y="62" on="1"/>
        <pt x="433" y="52" on="1"/>
        <pt x="471" y="44" on="0"/>
        <pt x="471" y="24" on="1"/>
        <pt x="471" y="0" on="0"/>
        <pt x="437" y="0" on="1"/>
        <pt x="141" y="0" on="1"/>
        <pt x="125" y="0" on="0"/>
        <pt x="107" y="12" on="0"/>
        <pt x="107" y="24" on="1"/>
        <pt x="107" y="36" on="0"/>
        <pt x="127" y="48" on="0"/>
        <pt x="145" y="52" on="1"/>
        <pt x="197" y="62" on="1"/>
        <pt x="224" y="67" on="0"/>
        <pt x="255" y="97" on="0"/>
        <pt x="255" y="122" on="1"/>
        <pt x="255" y="774" on="1"/>
        <pt x="255" y="798" on="0"/>
        <pt x="234" y="822" on="0"/>
        <pt x="213" y="822" on="1"/>
        <pt x="119" y="822" on="1"/>
        <pt x="104" y="822" on="0"/>
        <pt x="87" y="836" on="0"/>
        <pt x="87" y="846" on="1"/>
        <pt x="87" y="866" on="0"/>
        <pt x="119" y="876" on="1"/>
        <pt x="229" y="908" on="1"/>
        <pt x="244" y="913" on="0"/>
        <pt x="278" y="926" on="0"/>
        <pt x="287" y="926" on="1"/>
        <pt x="305" y="926" on="0"/>
        <pt x="325" y="906" on="0"/>
      </contour>
      <contour>
        <pt x="293" y="678" on="1"/>
        <pt x="259" y="714" on="1"/>
        <pt x="319" y="768" on="1"/>
        <pt x="410" y="850" on="0"/>
        <pt x="585" y="940" on="0"/>
        <pt x="668" y="940" on="1"/>
        <pt x="789" y="940" on="0"/>
        <pt x="947" y="791" on="0"/>
        <pt x="947" y="668" on="1"/>
        <pt x="947" y="122" on="1"/>
        <pt x="947" y="97" on="0"/>
        <pt x="978" y="67" on="0"/>
        <pt x="1005" y="62" on="1"/>
        <pt x="1055" y="52" on="1"/>
        <pt x="1073" y="48" on="0"/>
        <pt x="1093" y="36" on="0"/>
        <pt x="1093" y="24" on="1"/>
        <pt x="1093" y="12" on="0"/>
        <pt x="1076" y="0" on="0"/>
        <pt x="1059" y="0" on="1"/>
        <pt x="763" y="0" on="1"/>
        <pt x="729" y="0" on="0"/>
        <pt x="729" y="24" on="1"/>
        <pt x="729" y="44" on="0"/>
        <pt x="767" y="52" on="1"/>
        <pt x="819" y="62" on="1"/>
        <pt x="846" y="67" on="0"/>
        <pt x="877" y="97" on="0"/>
        <pt x="877" y="122" on="1"/>
        <pt x="877" y="648" on="1"/>
        <pt x="877" y="762" on="0"/>
        <pt x="757" y="882" on="0"/>
        <pt x="660" y="882" on="1"/>
        <pt x="594" y="882" on="0"/>
        <pt x="437" y="806" on="0"/>
        <pt x="347" y="726" on="1"/>
      </contour>
    </TTGlyph>
    <TTGlyph name="nine" xMin="98" yMin="-19" xMax="1002" yMax="1419">
      <contour>
        <pt x="495" y="-19" on="1"/>
        <pt x="394" y="-19" on="0"/>
        <pt x="230" y="58" on="0"/>
        <pt x="135" y="185" on="0"/>
        <pt x="135" y="259" on="1"/>
        <pt x="135" y="304" on="0"/>
        <pt x="166" y="352" on="0"/>
        <pt x="195" y="352" on="1"/>
        <pt x="220" y="352" on="0"/>
        <pt x="245" y="314" on="0"/>
        <pt x="245" y="276" on="1"/>
        <pt x="245" y="229" on="1"/>
        <pt x="245" y="145" on="0"/>
        <pt x="386" y="45" on="0"/>
        <pt x="505" y="45" on="1"/>
        <pt x="611" y="45" on="0"/>
        <pt x="794" y="177" on="0"/>
        <pt x="909" y="474" on="0"/>
        <pt x="914" y="724" on="1"/>
        <pt x="919" y="955" on="0"/>
        <pt x="820" y="1233" on="0"/>
        <pt x="640" y="1357" on="0"/>
        <pt x="521" y="1357" on="1"/>
        <pt x="372" y="1357" on="0"/>
        <pt x="182" y="1159" on="0"/>
        <pt x="182" y="991" on="1"/>
        <pt x="182" y="815" on="0"/>
        <pt x="369" y="632" on="0"/>
        <pt x="526" y="632" on="1"/>
        <pt x="629" y="632" on="0"/>
        <pt x="798" y="740" on="0"/>
        <pt x="900" y="913" on="0"/>
        <pt x="900" y="1010" on="1"/>
        <pt x="941" y="992" on="1"/>
        <pt x="941" y="877" on="0"/>
        <pt x="823" y="681" on="0"/>
        <pt x="626" y="562" on="0"/>
        <pt x="506" y="562" on="1"/>
        <pt x="377" y="562" on="0"/>
        <pt x="194" y="670" on="0"/>
        <pt x="98" y="859" on="0"/>
        <pt x="98" y="981" on="1"/>
        <pt x="98" y="1118" on="0"/>
        <pt x="210" y="1314" on="0"/>
        <pt x="406" y="1419" on="0"/>
        <pt x="531" y="1419" on="1"/>
        <pt x="681" y="1419" on="0"/>
        <pt x="893" y="1264" on="0"/>
        <pt x="1002" y="963" on="0"/>
        <pt x="996" y="744" on="1"/>
        <pt x="990" y="484" on="0"/>
        <pt x="866" y="145" on="0"/>
        <pt x="647" y="-19" on="0"/>
      </contour>
    </TTGlyph>
    <TTGlyph name="o" xMin="105" yMin="-21" xMax="1016" yMax="938">
      <contour>
        <pt x="561" y="938" on="1"/>
        <pt x="694" y="938" on="0"/>
        <pt x="899" y="815" on="0"/>
        <pt x="1016" y="600" on="0"/>
        <pt x="1016" y="461" on="1"/>
        <pt x="1016" y="321" on="0"/>
        <pt x="899" y="103" on="0"/>
        <pt x="693" y="-21" on="0"/>
        <pt x="559" y="-21" on="1"/>
        <pt x="426" y="-21" on="0"/>
        <pt x="221" y="103" on="0"/>
        <pt x="105" y="321" on="0"/>
        <pt x="105" y="461" on="1"/>
        <pt x="105" y="600" on="0"/>
        <pt x="222" y="815" on="0"/>
        <pt x="428" y="938" on="0"/>
      </contour>
      <contour>
        <pt x="641" y="42" on="1"/>
        <pt x="749" y="61" on="0"/>
        <pt x="894" y="196" on="0"/>
        <pt x="952" y="399" on="0"/>
        <pt x="931" y="518" on="1"/>
        <pt x="909" y="645" on="0"/>
        <pt x="780" y="819" on="0"/>
        <pt x="591" y="895" on="0"/>
        <pt x="479" y="875" on="1"/>
        <pt x="371" y="856" on="0"/>
        <pt x="226" y="721" on="0"/>
        <pt x="167" y="520" on="0"/>
        <pt x="188" y="402" on="1"/>
        <pt x="211" y="272" on="0"/>
        <pt x="342" y="98" on="0"/>
        <pt x="531" y="22" on="0"/>
      </contour>
    </TTGlyph>
    <TTGlyph name="one" xMin="106" yMin="0" xMax="752" yMax="1439">
      <contour>
        <pt x="148" y="1272" on="1"/>
        <pt x="331" y="1272" on="1"/>
        <pt x="369" y="1272" on="0"/>
        <pt x="398" y="1239" on="0"/>
        <pt x="398" y="1189" on="1"/>
        <pt x="398" y="150" on="1"/>
        <pt x="398" y="111" on="0"/>
        <pt x="355" y="64" on="0"/>
        <pt x="316" y="62" on="1"/>
        <pt x="144" y="52" on="1"/>
        <pt x="106" y="50" on="0"/>
        <pt x="106" y="24" on="1"/>
        <pt x="106" y="12" on="0"/>
        <pt x="124" y="0" on="0"/>
        <pt x="140" y="0" on="1"/>
        <pt x="718" y="0" on="1"/>
        <pt x="735" y="0" on="0"/>
        <pt x="752" y="12" on="0"/>
        <pt x="752" y="24" on="1"/>
        <pt x="752" y="49" on="0"/>
        <pt x="714" y="52" on="1"/>
        <pt x="562" y="62" on="1"/>
        <pt x="516" y="65" on="0"/>
        <pt x="480" y="111" on="0"/>
        <pt x="480" y="149" on="1"/>
        <pt x="480" y="1393" on="1"/>
        <pt x="480" y="1439" on="0"/>
        <pt x="442" y="1439" on="1"/>
        <pt x="414" y="1439" on="0"/>
        <pt x="400" y="1399" on="1"/>
        <pt x="387" y="1363" on="0"/>
        <pt x="358" y="1338" on="0"/>
        <pt x="331" y="1338" on="1"/>
        <pt x="147" y="1338" on="1"/>
        <pt x="127" y="1338" on="0"/>
        <pt x="106" y="1320" on="0"/>
        <pt x="106" y="1306" on="1"/>
        <pt x="106" y="1288" on="0"/>
        <pt x="128" y="1272" on="0"/>
      </contour>
    </TTGlyph>
    <TTGlyph name="p" xMin="57" yMin="-466" xMax="1040" yMax="938">
      <contour>
        <pt x="295" y="886" on="1"/>
        <pt x="295" y="749" on="1"/>
        <pt x="295" y="735" on="1"/>
        <pt x="295" y="-344" on="1"/>
        <pt x="295" y="-369" on="0"/>
        <pt x="326" y="-401" on="0"/>
        <pt x="353" y="-404" on="1"/>
        <pt x="443" y="-414" on="1"/>
        <pt x="461" y="-416" on="0"/>
        <pt x="481" y="-430" on="0"/>
        <pt x="481" y="-442" on="1"/>
        <pt x="481" y="-454" on="0"/>
        <pt x="464" y="-466" on="0"/>
        <pt x="447" y="-466" on="1"/>
        <pt x="111" y="-466" on="1"/>
        <pt x="95" y="-466" on="0"/>
        <pt x="77" y="-454" on="0"/>
        <pt x="77" y="-442" on="1"/>
        <pt x="77" y="-430" on="0"/>
        <pt x="97" y="-418" on="0"/>
        <pt x="115" y="-414" on="1"/>
        <pt x="167" y="-404" on="1"/>
        <pt x="194" y="-399" on="0"/>
        <pt x="225" y="-369" on="0"/>
        <pt x="225" y="-344" on="1"/>
        <pt x="225" y="774" on="1"/>
        <pt x="225" y="798" on="0"/>
        <pt x="204" y="822" on="0"/>
        <pt x="183" y="822" on="1"/>
        <pt x="89" y="822" on="1"/>
        <pt x="74" y="822" on="0"/>
        <pt x="57" y="836" on="0"/>
        <pt x="57" y="846" on="1"/>
        <pt x="57" y="866" on="0"/>
        <pt x="89" y="876" on="1"/>
        <pt x="199" y="908" on="1"/>
        <pt x="214" y="913" on="0"/>
        <pt x="248" y="926" on="0"/>
        <pt x="257" y="926" on="1"/>
        <pt x="275" y="926" on="0"/>
        <pt x="295" y="906" on="0"/>
      </contour>
      <contour>
        <pt x="254" y="653" on="1"/>
        <pt x="243" y="711" on="1"/>
        <pt x="310" y="818" on="0"/>
        <pt x="515" y="938" on="0"/>
        <pt x="624" y="938" on="1"/>
        <pt x="747" y="938" on="0"/>
        <pt x="935" y="816" on="0"/>
        <pt x="1040" y="605" on="0"/>
        <pt x="1040" y="469" on="1"/>
        <pt x="1040" y="318" on="0"/>
        <pt x="920" y="98" on="0"/>
        <pt x="721" y="-21" on="0"/>
        <pt x="600" y="-21" on="1"/>
        <pt x="481" y="-21" on="0"/>
        <pt x="277" y="120" on="0"/>
        <pt x="230" y="230" on="1"/>
        <pt x="244" y="289" on="1"/>
        <pt x="302" y="170" on="0"/>
        <pt x="497" y="36" on="0"/>
        <pt x="606" y="36" on="1"/>
        <pt x="705" y="36" on="0"/>
        <pt x="866" y="139" on="0"/>
        <pt x="961" y="331" on="0"/>
        <pt x="961" y="466" on="1"/>
        <pt x="961" y="593" on="0"/>
        <pt x="871" y="779" on="0"/>
        <pt x="714" y="880" on="0"/>
        <pt x="613" y="880" on="1"/>
        <pt x="501" y="880" on="0"/>
        <pt x="319" y="756" on="0"/>
      </contour>
    </TTGlyph>
    <TTGlyph name="parenleft" xMin="150" yMin="-267" xMax="594" yMax="1493">
      <contour>
        <pt x="150" y="613" on="1"/>
        <pt x="150" y="801" on="0"/>
        <pt x="255" y="1146" on="0"/>
        <pt x="434" y="1410" on="0"/>
        <pt x="544" y="1476" on="1"/>
        <pt x="572" y="1493" on="0"/>
        <pt x="587" y="1467" on="1"/>
        <pt x="594" y="1455" on="0"/>
        <pt x="581" y="1431" on="0"/>
        <pt x="567" y="1420" on="1"/>
        <pt x="470" y="1346" on="0"/>
        <pt x="320" y="1101" on="0"/>
        <pt x="236" y="789" on="0"/>
        <pt x="236" y="613" on="1"/>
        <pt x="236" y="437" on="0"/>
        <pt x="320" y="125" on="0"/>
        <pt x="470" y="-120" on="0"/>
        <pt x="567" y="-194" on="1"/>
        <pt x="581" y="-204" on="0"/>
        <pt x="594" y="-230" on="0"/>
        <pt x="587" y="-241" on="1"/>
        <pt x="572" y="-267" on="0"/>
        <pt x="544" y="-250" on="1"/>
        <pt x="434" y="-184" on="0"/>
        <pt x="255" y="80" on="0"/>
        <pt x="150" y="426" on="0"/>
      </contour>
    </TTGlyph>
    <TTGlyph name="parenright" xMin="26" yMin="-267" xMax="470" yMax="1493">
      <component glyphName="parenleft" x="620" y="1226" scale="-1.0" flags="0x4"/>
    </TTGlyph>
    <TTGlyph name="period" xMin="100" yMin="-10" xMax="277" yMax="169">
      <contour>
        <pt x="189" y="-10" on="1"/>
        <pt x="165" y="-10" on="0"/>
        <pt x="124" y="15" on="0"/>
        <pt x="100" y="55" on="0"/>
        <pt x="100" y="79" on="1"/>
        <pt x="100" y="105" on="0"/>
        <pt x="124" y="146" on="0"/>
        <pt x="165" y="169" on="0"/>
        <pt x="189" y="169" on="1"/>
        <pt x="214" y="169" on="0"/>
        <pt x="254" y="146" on="0"/>
        <pt x="277" y="105" on="0"/>
        <pt x="277" y="79" on="1"/>
        <pt x="277" y="55" on="0"/>
        <pt x="254" y="15" on="0"/>
        <pt x="214" y="-10" on="0"/>
      </contour>
    </TTGlyph>
    <TTGlyph name="q" xMin="105" yMin="-466" xMax="1067" yMax="950">
      <contour>
        <pt x="699" y="-466" on="1"/>
        <pt x="683" y="-466" on="0"/>
        <pt x="665" y="-454" on="0"/>
        <pt x="665" y="-442" on="1"/>
        <pt x="665" y="-430" on="0"/>
        <pt x="685" y="-416" on="0"/>
        <pt x="703" y="-414" on="1"/>
        <pt x="793" y="-404" on="1"/>
        <pt x="820" y="-401" on="0"/>
        <pt x="851" y="-369" on="0"/>
        <pt x="851" y="-344" on="1"/>
        <pt x="851" y="822" on="1"/>
        <pt x="867" y="924" on="1"/>
        <pt x="869" y="935" on="0"/>
        <pt x="885" y="950" on="0"/>
        <pt x="895" y="950" on="1"/>
        <pt x="907" y="950" on="0"/>
        <pt x="921" y="934" on="0"/>
        <pt x="921" y="916" on="1"/>
        <pt x="921" y="-344" on="1"/>
        <pt x="921" y="-369" on="0"/>
        <pt x="952" y="-399" on="0"/>
        <pt x="979" y="-404" on="1"/>
        <pt x="1029" y="-414" on="1"/>
        <pt x="1047" y="-418" on="0"/>
        <pt x="1067" y="-430" on="0"/>
        <pt x="1067" y="-442" on="1"/>
        <pt x="1067" y="-454" on="0"/>
        <pt x="1050" y="-466" on="0"/>
        <pt x="1033" y="-466" on="1"/>
      </contour>
      <contour>
        <pt x="902" y="206" on="1"/>
        <pt x="835" y="100" on="0"/>
        <pt x="631" y="-21" on="0"/>
        <pt x="521" y="-21" on="1"/>
        <pt x="398" y="-21" on="0"/>
        <pt x="211" y="101" on="0"/>
        <pt x="105" y="313" on="0"/>
        <pt x="105" y="448" on="1"/>
        <pt x="105" y="599" on="0"/>
        <pt x="225" y="819" on="0"/>
        <pt x="425" y="938" on="0"/>
        <pt x="545" y="938" on="1"/>
        <pt x="664" y="938" on="0"/>
        <pt x="868" y="797" on="0"/>
        <pt x="915" y="687" on="1"/>
        <pt x="901" y="628" on="1"/>
        <pt x="843" y="749" on="0"/>
        <pt x="649" y="885" on="0"/>
        <pt x="539" y="885" on="1"/>
        <pt x="441" y="885" on="0"/>
        <pt x="279" y="782" on="0"/>
        <pt x="184" y="587" on="0"/>
        <pt x="184" y="451" on="1"/>
        <pt x="184" y="325" on="0"/>
        <pt x="274" y="140" on="0"/>
        <pt x="431" y="39" on="0"/>
        <pt x="532" y="39" on="1"/>
        <pt x="645" y="39" on="0"/>
        <pt x="826" y="162" on="0"/>
        <pt x="891" y="264" on="1"/>
      </contour>
    </TTGlyph>
    <TTGlyph name="question" xMin="100" yMin="-10" xMax="767" yMax="1439">
      <contour>
        <pt x="356" y="685" on="1"/>
        <pt x="367" y="434" on="1"/>
        <pt x="368" y="415" on="0"/>
        <pt x="383" y="396" on="0"/>
        <pt x="395" y="396" on="1"/>
        <pt x="407" y="396" on="0"/>
        <pt x="422" y="415" on="0"/>
        <pt x="423" y="434" on="1"/>
        <pt x="432" y="670" on="1"/>
        <pt x="433" y="699" on="0"/>
        <pt x="453" y="733" on="0"/>
        <pt x="472" y="741" on="1"/>
        <pt x="534" y="767" on="1"/>
        <pt x="661" y="821" on="0"/>
        <pt x="767" y="1014" on="0"/>
        <pt x="767" y="1122" on="1"/>
        <pt x="767" y="1270" on="0"/>
        <pt x="584" y="1439" on="0"/>
        <pt x="447" y="1439" on="1"/>
        <pt x="351" y="1439" on="0"/>
        <pt x="194" y="1356" on="0"/>
        <pt x="100" y="1220" on="0"/>
        <pt x="100" y="1142" on="1"/>
        <pt x="100" y="1109" on="0"/>
        <pt x="130" y="1064" on="0"/>
        <pt x="152" y="1064" on="1"/>
        <pt x="181" y="1064" on="0"/>
        <pt x="216" y="1104" on="0"/>
        <pt x="216" y="1140" on="1"/>
        <pt x="216" y="1182" on="1"/>
        <pt x="216" y="1270" on="0"/>
        <pt x="325" y="1384" on="0"/>
        <pt x="445" y="1384" on="1"/>
        <pt x="547" y="1384" on="0"/>
        <pt x="687" y="1252" on="0"/>
        <pt x="687" y="1122" on="1"/>
        <pt x="687" y="1033" on="0"/>
        <pt x="596" y="868" on="0"/>
        <pt x="469" y="805" on="1"/>
        <pt x="393" y="768" on="1"/>
        <pt x="373" y="758" on="0"/>
        <pt x="355" y="714" on="0"/>
      </contour>
      <contour>
        <pt x="385" y="-10" on="1"/>
        <pt x="361" y="-10" on="0"/>
        <pt x="321" y="15" on="0"/>
        <pt x="296" y="55" on="0"/>
        <pt x="296" y="79" on="1"/>
        <pt x="296" y="105" on="0"/>
        <pt x="321" y="146" on="0"/>
        <pt x="361" y="169" on="0"/>
        <pt x="385" y="169" on="1"/>
        <pt x="410" y="169" on="0"/>
        <pt x="450" y="146" on="0"/>
        <pt x="473" y="105" on="0"/>
        <pt x="473" y="79" on="1"/>
        <pt x="473" y="55" on="0"/>
        <pt x="450" y="15" on="0"/>
        <pt x="410" y="-10" on="0"/>
      </contour>
    </TTGlyph>
    <TTGlyph name="questiondown" xMin="80" yMin="-283" xMax="747" yMax="1166">
      <component glyphName="question" x="847" y="1156" scale="-1.0" flags="0x4"/>
    </TTGlyph>
    <TTGlyph name="quotedbl" xMin="61" yMin="1065" xMax="551" yMax="1479">
      <component glyphName="quotesingle" x="294" y="0" flags="0x4"/>
      <component glyphName="quotesingle" x="0" y="0" flags="0x4"/>
    </TTGlyph>
    <TTGlyph name="quotedblleft" xMin="60" yMin="1080" xMax="550" yMax="1494">
      <component glyphName="quotedbl" x="611" y="2559" scale="-1.0" flags="0x4"/>
    </TTGlyph>
    <TTGlyph name="quotedblright" xMin="61" yMin="1065" xMax="551" yMax="1479">
      <component glyphName="quotedbl" x="0" y="0" flags="0x4"/>
    </TTGlyph>
    <TTGlyph name="quoteleft" xMin="60" yMin="1080" xMax="256" yMax="1494">
      <component glyphName="quotesingle" x="317" y="2559" scale="-1.0" flags="0x4"/>
    </TTGlyph>
    <TTGlyph name="quoteright" xMin="61" yMin="1065" xMax="257" yMax="1479">
      <component glyphName="quotesingle" x="0" y="0" flags="0x204"/>
    </TTGlyph>
    <TTGlyph name="quotesingle" xMin="61" yMin="1065" xMax="257" yMax="1479">
      <contour>
        <pt x="143" y="1319" on="1"/>
        <pt x="107" y="1319" on="0"/>
        <pt x="64" y="1364" on="0"/>
        <pt x="64" y="1396" on="1"/>
        <pt x="64" y="1432" on="0"/>
        <pt x="115" y="1479" on="0"/>
        <pt x="153" y="1479" on="1"/>
        <pt x="196" y="1479" on="0"/>
        <pt x="257" y="1406" on="0"/>
        <pt x="257" y="1317" on="1"/>
        <pt x="257" y="1221" on="0"/>
        <pt x="173" y="1090" on="0"/>
        <pt x="105" y="1070" on="1"/>
        <pt x="89" y="1065" on="0"/>
        <pt x="70" y="1070" on="0"/>
        <pt x="65" y="1082" on="1"/>
        <pt x="61" y="1092" on="0"/>
        <pt x="72" y="1111" on="0"/>
        <pt x="85" y="1115" on="1"/>
        <pt x="118" y="1127" on="0"/>
        <pt x="167" y="1174" on="0"/>
        <pt x="194" y="1237" on="0"/>
        <pt x="194" y="1272" on="1"/>
        <pt x="194" y="1313" on="0"/>
        <pt x="179" y="1319" on="0"/>
        <pt x="163" y="1319" on="1"/>
      </contour>
    </TTGlyph>
    <TTGlyph name="r" xMin="87" yMin="0" xMax="763" yMax="940">
      <contour>
        <pt x="282" y="528" on="1"/>
        <pt x="282" y="651" on="0"/>
        <pt x="372" y="837" on="0"/>
        <pt x="513" y="940" on="0"/>
        <pt x="589" y="940" on="1"/>
        <pt x="669" y="940" on="0"/>
        <pt x="763" y="852" on="0"/>
        <pt x="763" y="788" on="1"/>
        <pt x="763" y="760" on="0"/>
        <pt x="734" y="724" on="0"/>
        <pt x="709" y="724" on="1"/>
        <pt x="687" y="724" on="0"/>
        <pt x="659" y="757" on="0"/>
        <pt x="659" y="786" on="1"/>
        <pt x="659" y="812" on="1"/>
        <pt x="659" y="851" on="0"/>
        <pt x="614" y="882" on="0"/>
        <pt x="578" y="882" on="1"/>
        <pt x="517" y="882" on="0"/>
        <pt x="401" y="798" on="0"/>
        <pt x="325" y="633" on="0"/>
        <pt x="325" y="512" on="1"/>
      </contour>
      <contour>
        <pt x="325" y="886" on="1"/>
        <pt x="325" y="644" on="1"/>
        <pt x="325" y="122" on="1"/>
        <pt x="325" y="68" on="0"/>
        <pt x="383" y="62" on="1"/>
        <pt x="473" y="52" on="1"/>
        <pt x="491" y="50" on="0"/>
        <pt x="511" y="36" on="0"/>
        <pt x="511" y="24" on="1"/>
        <pt x="511" y="0" on="0"/>
        <pt x="477" y="0" on="1"/>
        <pt x="141" y="0" on="1"/>
        <pt x="125" y="0" on="0"/>
        <pt x="107" y="12" on="0"/>
        <pt x="107" y="24" on="1"/>
        <pt x="107" y="36" on="0"/>
        <pt x="127" y="48" on="0"/>
        <pt x="145" y="52" on="1"/>
        <pt x="197" y="62" on="1"/>
        <pt x="224" y="67" on="0"/>
        <pt x="255" y="97" on="0"/>
        <pt x="255" y="122" on="1"/>
        <pt x="255" y="774" on="1"/>
        <pt x="255" y="798" on="0"/>
        <pt x="234" y="822" on="0"/>
        <pt x="213" y="822" on="1"/>
        <pt x="119" y="822" on="1"/>
        <pt x="104" y="822" on="0"/>
        <pt x="87" y="836" on="0"/>
        <pt x="87" y="846" on="1"/>
        <pt x="87" y="866" on="0"/>
        <pt x="119" y="876" on="1"/>
        <pt x="229" y="908" on="1"/>
        <pt x="244" y="913" on="0"/>
        <pt x="278" y="926" on="0"/>
        <pt x="287" y="926" on="1"/>
        <pt x="305" y="926" on="0"/>
        <pt x="325" y="906" on="0"/>
      </contour>
    </TTGlyph>
    <TTGlyph name="s" xMin="106" yMin="-12" xMax="781" yMax="940">
      <contour>
        <pt x="483" y="46" on="1"/>
        <pt x="563" y="46" on="0"/>
        <pt x="664" y="140" on="0"/>
        <pt x="664" y="214" on="1"/>
        <pt x="664" y="277" on="0"/>
        <pt x="593" y="356" on="0"/>
        <pt x="474" y="406" on="0"/>
        <pt x="401" y="427" on="1"/>
        <pt x="331" y="447" on="0"/>
        <pt x="195" y="509" on="0"/>
        <pt x="106" y="611" on="0"/>
        <pt x="106" y="690" on="1"/>
        <pt x="106" y="790" on="0"/>
        <pt x="252" y="938" on="0"/>
        <pt x="392" y="938" on="1"/>
        <pt x="453" y="938" on="0"/>
        <pt x="550" y="904" on="0"/>
        <pt x="576" y="904" on="1"/>
        <pt x="591" y="904" on="0"/>
        <pt x="611" y="922" on="0"/>
        <pt x="629" y="940" on="0"/>
        <pt x="642" y="940" on="1"/>
        <pt x="654" y="940" on="0"/>
        <pt x="670" y="925" on="0"/>
        <pt x="676" y="910" on="1"/>
        <pt x="770" y="700" on="1"/>
        <pt x="781" y="678" on="0"/>
        <pt x="771" y="653" on="0"/>
        <pt x="756" y="650" on="1"/>
        <pt x="746" y="649" on="0"/>
        <pt x="728" y="662" on="0"/>
        <pt x="720" y="674" on="1"/>
        <pt x="679" y="745" on="0"/>
        <pt x="568" y="836" on="0"/>
        <pt x="448" y="880" on="0"/>
        <pt x="392" y="880" on="1"/>
        <pt x="277" y="880" on="0"/>
        <pt x="176" y="777" on="0"/>
        <pt x="176" y="700" on="1"/>
        <pt x="176" y="642" on="0"/>
        <pt x="255" y="564" on="0"/>
        <pt x="379" y="513" on="0"/>
        <pt x="448" y="492" on="1"/>
        <pt x="519" y="471" on="0"/>
        <pt x="649" y="410" on="0"/>
        <pt x="733" y="306" on="0"/>
        <pt x="733" y="220" on="1"/>
        <pt x="733" y="157" on="0"/>
        <pt x="673" y="52" on="0"/>
        <pt x="560" y="-12" on="0"/>
        <pt x="480" y="-12" on="1"/>
        <pt x="435" y="-12" on="0"/>
        <pt x="365" y="5" on="0"/>
        <pt x="313" y="22" on="0"/>
        <pt x="294" y="22" on="1"/>
        <pt x="280" y="22" on="0"/>
        <pt x="260" y="5" on="0"/>
        <pt x="244" y="-12" on="0"/>
        <pt x="234" y="-12" on="1"/>
        <pt x="225" y="-12" on="0"/>
        <pt x="209" y="-3" on="0"/>
        <pt x="206" y="6" on="1"/>
        <pt x="136" y="208" on="1"/>
        <pt x="129" y="231" on="0"/>
        <pt x="123" y="278" on="0"/>
        <pt x="142" y="282" on="1"/>
        <pt x="156" y="285" on="0"/>
        <pt x="175" y="265" on="0"/>
        <pt x="188" y="236" on="1"/>
        <pt x="232" y="145" on="0"/>
        <pt x="383" y="46" on="0"/>
      </contour>
    </TTGlyph>
    <TTGlyph name="s.alt" xMin="88" yMin="-12" xMax="762" yMax="940">
      <contour>
        <pt x="385" y="882" on="1"/>
        <pt x="305" y="882" on="0"/>
        <pt x="204" y="788" on="0"/>
        <pt x="204" y="714" on="1"/>
        <pt x="204" y="651" on="0"/>
        <pt x="275" y="573" on="0"/>
        <pt x="394" y="522" on="0"/>
        <pt x="467" y="501" on="1"/>
        <pt x="537" y="481" on="0"/>
        <pt x="673" y="419" on="0"/>
        <pt x="762" y="318" on="0"/>
        <pt x="762" y="238" on="1"/>
        <pt x="762" y="138" on="0"/>
        <pt x="616" y="-10" on="0"/>
        <pt x="476" y="-10" on="1"/>
        <pt x="415" y="-10" on="0"/>
        <pt x="319" y="24" on="0"/>
        <pt x="292" y="24" on="1"/>
        <pt x="277" y="24" on="0"/>
        <pt x="257" y="6" on="0"/>
        <pt x="239" y="-12" on="0"/>
        <pt x="226" y="-12" on="1"/>
        <pt x="214" y="-12" on="0"/>
        <pt x="198" y="3" on="0"/>
        <pt x="192" y="18" on="1"/>
        <pt x="98" y="228" on="1"/>
        <pt x="88" y="251" on="0"/>
        <pt x="97" y="275" on="0"/>
        <pt x="112" y="278" on="1"/>
        <pt x="123" y="280" on="0"/>
        <pt x="141" y="266" on="0"/>
        <pt x="148" y="254" on="1"/>
        <pt x="190" y="184" on="0"/>
        <pt x="300" y="92" on="0"/>
        <pt x="420" y="48" on="0"/>
        <pt x="476" y="48" on="1"/>
        <pt x="591" y="48" on="0"/>
        <pt x="692" y="151" on="0"/>
        <pt x="692" y="228" on="1"/>
        <pt x="692" y="287" on="0"/>
        <pt x="614" y="364" on="0"/>
        <pt x="489" y="416" on="0"/>
        <pt x="420" y="436" on="1"/>
        <pt x="350" y="457" on="0"/>
        <pt x="219" y="518" on="0"/>
        <pt x="135" y="623" on="0"/>
        <pt x="135" y="708" on="1"/>
        <pt x="135" y="771" on="0"/>
        <pt x="195" y="877" on="0"/>
        <pt x="309" y="940" on="0"/>
        <pt x="388" y="940" on="1"/>
        <pt x="434" y="940" on="0"/>
        <pt x="503" y="923" on="0"/>
        <pt x="555" y="906" on="0"/>
        <pt x="574" y="906" on="1"/>
        <pt x="588" y="906" on="0"/>
        <pt x="608" y="923" on="0"/>
        <pt x="625" y="940" on="0"/>
        <pt x="634" y="940" on="1"/>
        <pt x="643" y="940" on="0"/>
        <pt x="659" y="931" on="0"/>
        <pt x="662" y="922" on="1"/>
        <pt x="732" y="720" on="1"/>
        <pt x="740" y="698" on="0"/>
        <pt x="746" y="651" on="0"/>
        <pt x="726" y="646" on="1"/>
        <pt x="713" y="643" on="0"/>
        <pt x="694" y="664" on="0"/>
        <pt x="680" y="692" on="1"/>
        <pt x="637" y="783" on="0"/>
        <pt x="486" y="882" on="0"/>
      </contour>
    </TTGlyph>
    <TTGlyph name="semicolon" xMin="90" yMin="-285" xMax="303" yMax="821">
      <component glyphName="comma" x="-10" y="-10" flags="0x4"/>
      <component glyphName="period" x="20" y="652" flags="0x4"/>
    </TTGlyph>
    <TTGlyph name="seven" xMin="112" yMin="-19" xMax="970" yMax="1400">
      <contour>
        <pt x="913" y="1345" on="1"/>
        <pt x="921" y="1320" on="1"/>
        <pt x="272" y="1320" on="1"/>
        <pt x="240" y="1320" on="0"/>
        <pt x="212" y="1287" on="0"/>
        <pt x="202" y="1252" on="1"/>
        <pt x="170" y="1132" on="1"/>
        <pt x="166" y="1117" on="0"/>
        <pt x="151" y="1100" on="0"/>
        <pt x="140" y="1101" on="1"/>
        <pt x="112" y="1103" on="0"/>
        <pt x="117" y="1148" on="1"/>
        <pt x="142" y="1341" on="1"/>
        <pt x="146" y="1370" on="0"/>
        <pt x="175" y="1400" on="0"/>
        <pt x="208" y="1400" on="1"/>
        <pt x="917" y="1400" on="1"/>
        <pt x="946" y="1400" on="0"/>
        <pt x="970" y="1378" on="0"/>
        <pt x="970" y="1359" on="1"/>
        <pt x="970" y="1343" on="0"/>
        <pt x="961" y="1313" on="0"/>
        <pt x="949" y="1293" on="1"/>
        <pt x="704" y="866" on="1"/>
        <pt x="627" y="732" on="0"/>
        <pt x="513" y="519" on="0"/>
        <pt x="451" y="345" on="0"/>
        <pt x="451" y="268" on="1"/>
        <pt x="451" y="234" on="0"/>
        <pt x="472" y="174" on="0"/>
        <pt x="498" y="121" on="0"/>
        <pt x="519" y="74" on="0"/>
        <pt x="519" y="53" on="1"/>
        <pt x="519" y="17" on="0"/>
        <pt x="486" y="-19" on="0"/>
        <pt x="456" y="-19" on="1"/>
        <pt x="415" y="-19" on="0"/>
        <pt x="366" y="80" on="0"/>
        <pt x="366" y="177" on="1"/>
        <pt x="366" y="284" on="0"/>
        <pt x="434" y="494" on="0"/>
        <pt x="560" y="733" on="0"/>
        <pt x="646" y="882" on="1"/>
      </contour>
    </TTGlyph>
    <TTGlyph name="six" xMin="99" yMin="-19" xMax="997" yMax="1419">
      <contour>
        <pt x="620" y="1419" on="1"/>
        <pt x="722" y="1419" on="0"/>
        <pt x="870" y="1342" on="0"/>
        <pt x="950" y="1216" on="0"/>
        <pt x="950" y="1141" on="1"/>
        <pt x="950" y="1096" on="0"/>
        <pt x="921" y="1049" on="0"/>
        <pt x="893" y="1049" on="1"/>
        <pt x="866" y="1049" on="0"/>
        <pt x="840" y="1088" on="0"/>
        <pt x="840" y="1125" on="1"/>
        <pt x="840" y="1165" on="1"/>
        <pt x="840" y="1252" on="0"/>
        <pt x="729" y="1355" on="0"/>
        <pt x="610" y="1355" on="1"/>
        <pt x="531" y="1355" on="0"/>
        <pt x="377" y="1286" on="0"/>
        <pt x="254" y="1130" on="0"/>
        <pt x="181" y="874" on="0"/>
        <pt x="181" y="686" on="1"/>
        <pt x="182" y="455" on="0"/>
        <pt x="284" y="172" on="0"/>
        <pt x="466" y="43" on="0"/>
        <pt x="584" y="43" on="1"/>
        <pt x="733" y="43" on="0"/>
        <pt x="913" y="241" on="0"/>
        <pt x="913" y="409" on="1"/>
        <pt x="913" y="585" on="0"/>
        <pt x="726" y="768" on="0"/>
        <pt x="569" y="768" on="1"/>
        <pt x="467" y="768" on="0"/>
        <pt x="297" y="660" on="0"/>
        <pt x="195" y="488" on="0"/>
        <pt x="195" y="390" on="1"/>
        <pt x="154" y="408" on="1"/>
        <pt x="154" y="523" on="0"/>
        <pt x="272" y="719" on="0"/>
        <pt x="470" y="838" on="0"/>
        <pt x="589" y="838" on="1"/>
        <pt x="718" y="838" on="0"/>
        <pt x="901" y="730" on="0"/>
        <pt x="997" y="541" on="0"/>
        <pt x="997" y="419" on="1"/>
        <pt x="997" y="283" on="0"/>
        <pt x="890" y="86" on="0"/>
        <pt x="700" y="-19" on="0"/>
        <pt x="574" y="-19" on="1"/>
        <pt x="425" y="-19" on="0"/>
        <pt x="212" y="136" on="0"/>
        <pt x="100" y="438" on="0"/>
        <pt x="99" y="656" on="1"/>
        <pt x="99" y="927" on="0"/>
        <pt x="233" y="1263" on="0"/>
        <pt x="469" y="1419" on="0"/>
      </contour>
    </TTGlyph>
    <TTGlyph name="slash" xMin="15" yMin="-326" xMax="944" yMax="1550">
      <contour>
        <pt x="515" y="602" on="1"/>
        <pt x="486" y="540" on="0"/>
        <pt x="405" y="362" on="0"/>
        <pt x="313" y="158" on="0"/>
        <pt x="221" y="-45" on="0"/>
        <pt x="141" y="-221" on="0"/>
        <pt x="113" y="-281" on="1"/>
        <pt x="92" y="-326" on="0"/>
        <pt x="53" y="-309" on="1"/>
        <pt x="15" y="-294" on="0"/>
        <pt x="37" y="-245" on="1"/>
        <pt x="79" y="-157" on="0"/>
        <pt x="194" y="82" on="0"/>
        <pt x="317" y="334" on="0"/>
        <pt x="425" y="557" on="0"/>
        <pt x="459" y="629" on="1"/>
        <pt x="492" y="701" on="0"/>
        <pt x="593" y="926" on="0"/>
        <pt x="708" y="1182" on="0"/>
        <pt x="817" y="1424" on="0"/>
        <pt x="858" y="1512" on="1"/>
        <pt x="868" y="1533" on="0"/>
        <pt x="899" y="1550" on="0"/>
        <pt x="917" y="1542" on="1"/>
        <pt x="935" y="1535" on="0"/>
        <pt x="944" y="1498" on="0"/>
        <pt x="934" y="1477" on="1"/>
        <pt x="906" y="1417" on="0"/>
        <pt x="822" y="1242" on="0"/>
        <pt x="725" y="1042" on="0"/>
        <pt x="628" y="841" on="0"/>
        <pt x="544" y="664" on="0"/>
      </contour>
    </TTGlyph>
    <TTGlyph name="t" xMin="62" yMin="-10" xMax="552" yMax="1130">
      <contour>
        <pt x="160" y="867" on="1"/>
        <pt x="90" y="874" on="1"/>
        <pt x="77" y="876" on="0"/>
        <pt x="62" y="893" on="0"/>
        <pt x="62" y="903" on="1"/>
        <pt x="62" y="912" on="0"/>
        <pt x="77" y="926" on="0"/>
        <pt x="91" y="926" on="1"/>
        <pt x="138" y="926" on="1"/>
        <pt x="170" y="926" on="0"/>
        <pt x="204" y="947" on="0"/>
        <pt x="209" y="976" on="1"/>
        <pt x="232" y="1098" on="1"/>
        <pt x="235" y="1113" on="0"/>
        <pt x="254" y="1130" on="0"/>
        <pt x="264" y="1130" on="1"/>
        <pt x="275" y="1130" on="0"/>
        <pt x="290" y="1113" on="0"/>
        <pt x="290" y="1098" on="1"/>
        <pt x="290" y="178" on="1"/>
        <pt x="290" y="118" on="0"/>
        <pt x="354" y="50" on="0"/>
        <pt x="406" y="50" on="1"/>
        <pt x="441" y="50" on="0"/>
        <pt x="486" y="67" on="0"/>
        <pt x="514" y="84" on="0"/>
        <pt x="524" y="84" on="1"/>
        <pt x="536" y="84" on="0"/>
        <pt x="552" y="65" on="0"/>
        <pt x="546" y="48" on="1"/>
        <pt x="541" y="35" on="0"/>
        <pt x="499" y="8" on="0"/>
        <pt x="435" y="-10" on="0"/>
        <pt x="398" y="-10" on="1"/>
        <pt x="322" y="-10" on="0"/>
        <pt x="220" y="85" on="0"/>
        <pt x="220" y="178" on="1"/>
        <pt x="220" y="793" on="1"/>
        <pt x="220" y="823" on="0"/>
        <pt x="193" y="864" on="0"/>
      </contour>
      <contour>
        <pt x="222" y="871" on="1"/>
        <pt x="222" y="926" on="1"/>
        <pt x="512" y="926" on="1"/>
        <pt x="530" y="926" on="0"/>
        <pt x="546" y="915" on="0"/>
        <pt x="546" y="901" on="1"/>
        <pt x="546" y="888" on="0"/>
        <pt x="520" y="871" on="0"/>
        <pt x="494" y="871" on="1"/>
      </contour>
    </TTGlyph>
    <TTGlyph name="three" xMin="87" yMin="-20" xMax="914" yMax="1400">
      <contour>
        <pt x="388" y="734" on="1"/>
        <pt x="400" y="767" on="1"/>
        <pt x="403" y="767" on="0"/>
        <pt x="453" y="767" on="0"/>
        <pt x="454" y="767" on="1"/>
        <pt x="606" y="767" on="0"/>
        <pt x="807" y="672" on="0"/>
        <pt x="908" y="502" on="0"/>
        <pt x="908" y="389" on="1"/>
        <pt x="908" y="269" on="0"/>
        <pt x="799" y="84" on="0"/>
        <pt x="604" y="-20" on="0"/>
        <pt x="475" y="-20" on="1"/>
        <pt x="354" y="-20" on="0"/>
        <pt x="180" y="67" on="0"/>
        <pt x="87" y="207" on="0"/>
        <pt x="87" y="286" on="1"/>
        <pt x="87" y="331" on="0"/>
        <pt x="119" y="377" on="0"/>
        <pt x="147" y="377" on="1"/>
        <pt x="170" y="377" on="0"/>
        <pt x="193" y="337" on="0"/>
        <pt x="193" y="299" on="1"/>
        <pt x="193" y="230" on="1"/>
        <pt x="193" y="139" on="0"/>
        <pt x="346" y="43" on="0"/>
        <pt x="487" y="43" on="1"/>
        <pt x="581" y="43" on="0"/>
        <pt x="733" y="118" on="0"/>
        <pt x="824" y="263" on="0"/>
        <pt x="824" y="367" on="1"/>
        <pt x="824" y="531" on="0"/>
        <pt x="645" y="704" on="0"/>
        <pt x="430" y="704" on="1"/>
        <pt x="369" y="704" on="1"/>
        <pt x="350" y="704" on="0"/>
        <pt x="329" y="723" on="0"/>
        <pt x="329" y="736" on="1"/>
        <pt x="329" y="752" on="0"/>
        <pt x="351" y="780" on="0"/>
        <pt x="366" y="798" on="1"/>
        <pt x="833" y="1349" on="1"/>
        <pt x="836" y="1320" on="1"/>
        <pt x="268" y="1320" on="1"/>
        <pt x="236" y="1320" on="0"/>
        <pt x="207" y="1286" on="0"/>
        <pt x="198" y="1252" on="1"/>
        <pt x="166" y="1132" on="1"/>
        <pt x="162" y="1117" on="0"/>
        <pt x="147" y="1100" on="0"/>
        <pt x="136" y="1101" on="1"/>
        <pt x="124" y="1102" on="0"/>
        <pt x="110" y="1123" on="0"/>
        <pt x="113" y="1148" on="1"/>
        <pt x="138" y="1341" on="1"/>
        <pt x="142" y="1370" on="0"/>
        <pt x="171" y="1400" on="0"/>
        <pt x="204" y="1400" on="1"/>
        <pt x="884" y="1400" on="1"/>
        <pt x="898" y="1400" on="0"/>
        <pt x="914" y="1385" on="0"/>
        <pt x="914" y="1374" on="1"/>
        <pt x="914" y="1358" on="0"/>
        <pt x="892" y="1329" on="0"/>
        <pt x="876" y="1310" on="1"/>
      </contour>
    </TTGlyph>
    <TTGlyph name="two" xMin="126" yMin="-20" xMax="1021" yMax="1418">
      <contour>
        <pt x="214" y="135" on="1"/>
        <pt x="177" y="176" on="1"/>
        <pt x="549" y="507" on="1"/>
        <pt x="673" y="618" on="0"/>
        <pt x="820" y="793" on="0"/>
        <pt x="883" y="953" on="0"/>
        <pt x="883" y="1039" on="1"/>
        <pt x="883" y="1140" on="0"/>
        <pt x="809" y="1285" on="0"/>
        <pt x="671" y="1362" on="0"/>
        <pt x="575" y="1362" on="1"/>
        <pt x="415" y="1362" on="0"/>
        <pt x="262" y="1212" on="0"/>
        <pt x="262" y="1112" on="1"/>
        <pt x="262" y="1050" on="1"/>
        <pt x="262" y="1010" on="0"/>
        <pt x="230" y="973" on="0"/>
        <pt x="206" y="973" on="1"/>
        <pt x="183" y="973" on="0"/>
        <pt x="155" y="1019" on="0"/>
        <pt x="155" y="1064" on="1"/>
        <pt x="155" y="1157" on="0"/>
        <pt x="254" y="1318" on="0"/>
        <pt x="445" y="1418" on="0"/>
        <pt x="581" y="1418" on="1"/>
        <pt x="708" y="1418" on="0"/>
        <pt x="879" y="1320" on="0"/>
        <pt x="966" y="1151" on="0"/>
        <pt x="966" y="1042" on="1"/>
        <pt x="966" y="951" on="0"/>
        <pt x="901" y="787" on="0"/>
        <pt x="746" y="606" on="0"/>
        <pt x="611" y="487" on="1"/>
      </contour>
      <contour>
        <pt x="126" y="57" on="1"/>
        <pt x="126" y="127" on="0"/>
        <pt x="240" y="238" on="0"/>
        <pt x="349" y="238" on="1"/>
        <pt x="407" y="238" on="0"/>
        <pt x="521" y="185" on="0"/>
        <pt x="632" y="115" on="0"/>
        <pt x="738" y="62" on="0"/>
        <pt x="789" y="62" on="1"/>
        <pt x="870" y="62" on="0"/>
        <pt x="948" y="147" on="0"/>
        <pt x="969" y="228" on="1"/>
        <pt x="974" y="245" on="0"/>
        <pt x="991" y="258" on="0"/>
        <pt x="1002" y="256" on="1"/>
        <pt x="1013" y="254" on="0"/>
        <pt x="1021" y="235" on="0"/>
        <pt x="1018" y="215" on="1"/>
        <pt x="1005" y="132" on="0"/>
        <pt x="948" y="29" on="0"/>
        <pt x="859" y="-19" on="0"/>
        <pt x="797" y="-19" on="1"/>
        <pt x="748" y="-19" on="0"/>
        <pt x="661" y="6" on="0"/>
        <pt x="573" y="55" on="0"/>
        <pt x="521" y="92" on="1"/>
        <pt x="459" y="137" on="0"/>
        <pt x="377" y="178" on="0"/>
        <pt x="335" y="178" on="1"/>
        <pt x="285" y="178" on="0"/>
        <pt x="244" y="112" on="0"/>
        <pt x="239" y="56" on="1"/>
        <pt x="237" y="31" on="0"/>
        <pt x="222" y="-3" on="0"/>
        <pt x="198" y="-20" on="0"/>
        <pt x="180" y="-20" on="1"/>
        <pt x="158" y="-20" on="0"/>
        <pt x="126" y="18" on="0"/>
      </contour>
    </TTGlyph>
    <TTGlyph name="u" xMin="52" yMin="-24" xMax="1048" yMax="926">
      <contour>
        <pt x="832" y="70" on="1"/>
        <pt x="832" y="181" on="1"/>
        <pt x="832" y="774" on="1"/>
        <pt x="832" y="798" on="0"/>
        <pt x="811" y="822" on="0"/>
        <pt x="790" y="822" on="1"/>
        <pt x="696" y="822" on="1"/>
        <pt x="681" y="822" on="0"/>
        <pt x="664" y="836" on="0"/>
        <pt x="664" y="846" on="1"/>
        <pt x="664" y="866" on="0"/>
        <pt x="696" y="876" on="1"/>
        <pt x="806" y="908" on="1"/>
        <pt x="821" y="913" on="0"/>
        <pt x="855" y="926" on="0"/>
        <pt x="864" y="926" on="1"/>
        <pt x="882" y="926" on="0"/>
        <pt x="902" y="906" on="0"/>
        <pt x="902" y="886" on="1"/>
        <pt x="902" y="122" on="1"/>
        <pt x="902" y="97" on="0"/>
        <pt x="933" y="67" on="0"/>
        <pt x="960" y="62" on="1"/>
        <pt x="1010" y="52" on="1"/>
        <pt x="1029" y="48" on="0"/>
        <pt x="1048" y="36" on="0"/>
        <pt x="1048" y="24" on="1"/>
        <pt x="1048" y="13" on="0"/>
        <pt x="1031" y="0" on="0"/>
        <pt x="1014" y="0" on="1"/>
        <pt x="896" y="0" on="1"/>
        <pt x="857" y="0" on="0"/>
        <pt x="832" y="25" on="0"/>
      </contour>
      <contour>
        <pt x="864" y="238" on="1"/>
        <pt x="898" y="202" on="1"/>
        <pt x="838" y="148" on="1"/>
        <pt x="749" y="68" on="0"/>
        <pt x="576" y="-24" on="0"/>
        <pt x="494" y="-24" on="1"/>
        <pt x="376" y="-24" on="0"/>
        <pt x="220" y="125" on="0"/>
        <pt x="220" y="248" on="1"/>
        <pt x="220" y="774" on="1"/>
        <pt x="220" y="798" on="0"/>
        <pt x="199" y="822" on="0"/>
        <pt x="178" y="822" on="1"/>
        <pt x="84" y="822" on="1"/>
        <pt x="69" y="822" on="0"/>
        <pt x="52" y="836" on="0"/>
        <pt x="52" y="846" on="1"/>
        <pt x="52" y="866" on="0"/>
        <pt x="84" y="876" on="1"/>
        <pt x="194" y="908" on="1"/>
        <pt x="209" y="913" on="0"/>
        <pt x="243" y="926" on="0"/>
        <pt x="252" y="926" on="1"/>
        <pt x="270" y="926" on="0"/>
        <pt x="290" y="906" on="0"/>
        <pt x="290" y="886" on="1"/>
        <pt x="290" y="268" on="1"/>
        <pt x="290" y="154" on="0"/>
        <pt x="408" y="34" on="0"/>
        <pt x="502" y="34" on="1"/>
        <pt x="567" y="34" on="0"/>
        <pt x="722" y="111" on="0"/>
        <pt x="810" y="190" on="1"/>
      </contour>
    </TTGlyph>
    <TTGlyph name="underscore" xMin="-5" yMin="-236" xMax="906" yMax="-171">
      <contour>
        <pt x="-5" y="-204" on="1"/>
        <pt x="-5" y="-189" on="0"/>
        <pt x="7" y="-171" on="0"/>
        <pt x="20" y="-171" on="1"/>
        <pt x="881" y="-171" on="1"/>
        <pt x="895" y="-171" on="0"/>
        <pt x="906" y="-189" on="0"/>
        <pt x="906" y="-204" on="1"/>
        <pt x="906" y="-219" on="0"/>
        <pt x="895" y="-236" on="0"/>
        <pt x="881" y="-236" on="1"/>
        <pt x="20" y="-236" on="1"/>
        <pt x="7" y="-236" on="0"/>
        <pt x="-5" y="-219" on="0"/>
      </contour>
    </TTGlyph>
    <TTGlyph name="v" xMin="21" yMin="-22" xMax="1058" yMax="926">
      <contour>
        <pt x="537" y="-22" on="1"/>
        <pt x="525" y="-22" on="1"/>
        <pt x="506" y="-22" on="0"/>
        <pt x="485" y="2" on="0"/>
        <pt x="477" y="23" on="1"/>
        <pt x="173" y="790" on="1"/>
        <pt x="162" y="818" on="0"/>
        <pt x="135" y="860" on="0"/>
        <pt x="111" y="864" on="1"/>
        <pt x="59" y="874" on="1"/>
        <pt x="41" y="878" on="0"/>
        <pt x="21" y="890" on="0"/>
        <pt x="21" y="902" on="1"/>
        <pt x="21" y="914" on="0"/>
        <pt x="40" y="926" on="0"/>
        <pt x="55" y="926" on="1"/>
        <pt x="357" y="926" on="1"/>
        <pt x="391" y="926" on="0"/>
        <pt x="391" y="902" on="1"/>
        <pt x="391" y="890" on="0"/>
        <pt x="371" y="878" on="0"/>
        <pt x="353" y="874" on="1"/>
        <pt x="305" y="864" on="1"/>
        <pt x="248" y="852" on="0"/>
        <pt x="246" y="802" on="0"/>
        <pt x="262" y="760" on="1"/>
        <pt x="545" y="38" on="1"/>
        <pt x="535" y="37" on="1"/>
        <pt x="836" y="788" on="1"/>
        <pt x="849" y="821" on="0"/>
        <pt x="828" y="858" on="0"/>
        <pt x="791" y="864" on="1"/>
        <pt x="734" y="874" on="1"/>
        <pt x="716" y="877" on="0"/>
        <pt x="696" y="890" on="0"/>
        <pt x="696" y="902" on="1"/>
        <pt x="696" y="914" on="0"/>
        <pt x="714" y="926" on="0"/>
        <pt x="730" y="926" on="1"/>
        <pt x="1024" y="926" on="1"/>
        <pt x="1041" y="926" on="0"/>
        <pt x="1058" y="914" on="0"/>
        <pt x="1058" y="902" on="1"/>
        <pt x="1058" y="890" on="0"/>
        <pt x="1038" y="878" on="0"/>
        <pt x="1020" y="874" on="1"/>
        <pt x="970" y="864" on="1"/>
        <pt x="950" y="860" on="0"/>
        <pt x="919" y="826" on="0"/>
        <pt x="904" y="790" on="1"/>
        <pt x="586" y="19" on="1"/>
        <pt x="577" y="-3" on="0"/>
        <pt x="557" y="-22" on="0"/>
      </contour>
    </TTGlyph>
    <TTGlyph name="w" xMin="19" yMin="-22" xMax="1531" yMax="926">
      <contour>
        <pt x="488" y="-22" on="1"/>
        <pt x="469" y="-22" on="1"/>
        <pt x="453" y="-22" on="0"/>
        <pt x="430" y="0" on="0"/>
        <pt x="422" y="24" on="1"/>
        <pt x="171" y="790" on="1"/>
        <pt x="162" y="818" on="0"/>
        <pt x="132" y="860" on="0"/>
        <pt x="109" y="864" on="1"/>
        <pt x="57" y="874" on="1"/>
        <pt x="19" y="882" on="0"/>
        <pt x="19" y="902" on="1"/>
        <pt x="19" y="926" on="0"/>
        <pt x="53" y="926" on="1"/>
        <pt x="355" y="926" on="1"/>
        <pt x="372" y="926" on="0"/>
        <pt x="389" y="914" on="0"/>
        <pt x="389" y="902" on="1"/>
        <pt x="389" y="890" on="0"/>
        <pt x="369" y="878" on="0"/>
        <pt x="351" y="874" on="1"/>
        <pt x="303" y="864" on="1"/>
        <pt x="238" y="851" on="0"/>
        <pt x="240" y="803" on="0"/>
        <pt x="254" y="760" on="1"/>
        <pt x="488" y="38" on="1"/>
        <pt x="481" y="37" on="1"/>
        <pt x="748" y="823" on="1"/>
        <pt x="791" y="766" on="1"/>
        <pt x="534" y="21" on="1"/>
        <pt x="527" y="-1" on="0"/>
        <pt x="503" y="-22" on="0"/>
      </contour>
      <contour>
        <pt x="1067" y="-22" on="1"/>
        <pt x="1048" y="-22" on="1"/>
        <pt x="1020" y="-22" on="0"/>
        <pt x="1005" y="21" on="1"/>
        <pt x="746" y="812" on="1"/>
        <pt x="738" y="837" on="0"/>
        <pt x="716" y="855" on="0"/>
        <pt x="687" y="862" on="1"/>
        <pt x="637" y="874" on="1"/>
        <pt x="619" y="879" on="0"/>
        <pt x="599" y="890" on="0"/>
        <pt x="599" y="902" on="1"/>
        <pt x="599" y="926" on="0"/>
        <pt x="633" y="926" on="1"/>
        <pt x="911" y="926" on="1"/>
        <pt x="945" y="926" on="0"/>
        <pt x="945" y="902" on="1"/>
        <pt x="945" y="890" on="0"/>
        <pt x="925" y="879" on="0"/>
        <pt x="907" y="874" on="1"/>
        <pt x="857" y="862" on="1"/>
        <pt x="821" y="853" on="0"/>
        <pt x="819" y="799" on="0"/>
        <pt x="832" y="760" on="1"/>
        <pt x="1070" y="38" on="1"/>
        <pt x="1060" y="37" on="1"/>
        <pt x="1309" y="787" on="1"/>
        <pt x="1320" y="821" on="0"/>
        <pt x="1301" y="858" on="0"/>
        <pt x="1264" y="864" on="1"/>
        <pt x="1207" y="874" on="1"/>
        <pt x="1189" y="877" on="0"/>
        <pt x="1169" y="890" on="0"/>
        <pt x="1169" y="902" on="1"/>
        <pt x="1169" y="926" on="0"/>
        <pt x="1203" y="926" on="1"/>
        <pt x="1497" y="926" on="1"/>
        <pt x="1514" y="926" on="0"/>
        <pt x="1531" y="914" on="0"/>
        <pt x="1531" y="902" on="1"/>
        <pt x="1531" y="891" on="0"/>
        <pt x="1512" y="878" on="0"/>
        <pt x="1493" y="874" on="1"/>
        <pt x="1443" y="864" on="1"/>
        <pt x="1423" y="860" on="0"/>
        <pt x="1388" y="826" on="0"/>
        <pt x="1376" y="790" on="1"/>
        <pt x="1112" y="19" on="1"/>
        <pt x="1105" y="-3" on="0"/>
        <pt x="1081" y="-22" on="0"/>
      </contour>
    </TTGlyph>
    <TTGlyph name="x" xMin="44" yMin="0" xMax="966" yMax="926">
      <contour>
        <pt x="465" y="489" on="1"/>
        <pt x="509" y="454" on="1"/>
        <pt x="266" y="139" on="1"/>
        <pt x="241" y="108" on="0"/>
        <pt x="246" y="72" on="0"/>
        <pt x="274" y="67" on="1"/>
        <pt x="349" y="52" on="1"/>
        <pt x="367" y="48" on="0"/>
        <pt x="387" y="36" on="0"/>
        <pt x="387" y="24" on="1"/>
        <pt x="387" y="12" on="0"/>
        <pt x="370" y="0" on="0"/>
        <pt x="353" y="0" on="1"/>
        <pt x="78" y="0" on="1"/>
        <pt x="62" y="0" on="0"/>
        <pt x="44" y="12" on="0"/>
        <pt x="44" y="24" on="1"/>
        <pt x="44" y="36" on="0"/>
        <pt x="61" y="52" on="0"/>
        <pt x="85" y="57" on="1"/>
        <pt x="116" y="64" on="0"/>
        <pt x="153" y="89" on="0"/>
        <pt x="192" y="138" on="0"/>
        <pt x="224" y="180" on="1"/>
      </contour>
      <contour>
        <pt x="287" y="793" on="1"/>
        <pt x="517" y="499" on="1"/>
        <pt x="534" y="494" on="1"/>
        <pt x="810" y="144" on="1"/>
        <pt x="845" y="101" on="0"/>
        <pt x="878" y="67" on="0"/>
        <pt x="913" y="60" on="1"/>
        <pt x="947" y="53" on="0"/>
        <pt x="966" y="35" on="0"/>
        <pt x="966" y="24" on="1"/>
        <pt x="966" y="13" on="0"/>
        <pt x="949" y="0" on="0"/>
        <pt x="932" y="0" on="1"/>
        <pt x="662" y="0" on="1"/>
        <pt x="646" y="0" on="0"/>
        <pt x="628" y="12" on="0"/>
        <pt x="628" y="24" on="1"/>
        <pt x="628" y="36" on="0"/>
        <pt x="648" y="48" on="0"/>
        <pt x="666" y="52" on="1"/>
        <pt x="727" y="64" on="1"/>
        <pt x="750" y="69" on="0"/>
        <pt x="759" y="99" on="0"/>
        <pt x="744" y="118" on="1"/>
        <pt x="486" y="448" on="1"/>
        <pt x="469" y="453" on="1"/>
        <pt x="207" y="786" on="1"/>
        <pt x="179" y="821" on="0"/>
        <pt x="136" y="864" on="0"/>
        <pt x="107" y="871" on="1"/>
        <pt x="62" y="883" on="0"/>
        <pt x="62" y="902" on="1"/>
        <pt x="62" y="914" on="0"/>
        <pt x="80" y="926" on="0"/>
        <pt x="96" y="926" on="1"/>
        <pt x="358" y="926" on="1"/>
        <pt x="375" y="926" on="0"/>
        <pt x="392" y="914" on="0"/>
        <pt x="392" y="902" on="1"/>
        <pt x="392" y="890" on="0"/>
        <pt x="372" y="878" on="0"/>
        <pt x="354" y="874" on="1"/>
        <pt x="304" y="864" on="1"/>
        <pt x="270" y="857" on="0"/>
        <pt x="265" y="822" on="0"/>
      </contour>
      <contour>
        <pt x="506" y="437" on="1"/>
        <pt x="474" y="481" on="1"/>
        <pt x="718" y="787" on="1"/>
        <pt x="743" y="818" on="0"/>
        <pt x="726" y="857" on="0"/>
        <pt x="687" y="864" on="1"/>
        <pt x="635" y="874" on="1"/>
        <pt x="617" y="878" on="0"/>
        <pt x="597" y="890" on="0"/>
        <pt x="597" y="902" on="1"/>
        <pt x="597" y="914" on="0"/>
        <pt x="615" y="926" on="0"/>
        <pt x="631" y="926" on="1"/>
        <pt x="898" y="926" on="1"/>
        <pt x="915" y="926" on="0"/>
        <pt x="932" y="914" on="0"/>
        <pt x="932" y="902" on="1"/>
        <pt x="932" y="890" on="0"/>
        <pt x="909" y="876" on="0"/>
        <pt x="881" y="869" on="1"/>
        <pt x="861" y="865" on="0"/>
        <pt x="826" y="833" on="0"/>
        <pt x="812" y="816" on="1"/>
      </contour>
    </TTGlyph>
    <TTGlyph name="y" xMin="21" yMin="-466" xMax="1034" yMax="926">
      <contour>
        <pt x="535" y="62" on="1"/>
        <pt x="498" y="-28" on="1"/>
        <pt x="173" y="790" on="1"/>
        <pt x="155" y="836" on="0"/>
        <pt x="104" y="866" on="0"/>
        <pt x="57" y="874" on="1"/>
        <pt x="38" y="878" on="0"/>
        <pt x="21" y="892" on="0"/>
        <pt x="21" y="902" on="1"/>
        <pt x="21" y="914" on="0"/>
        <pt x="40" y="926" on="0"/>
        <pt x="55" y="926" on="1"/>
        <pt x="357" y="926" on="1"/>
        <pt x="374" y="926" on="0"/>
        <pt x="391" y="914" on="0"/>
        <pt x="391" y="902" on="1"/>
        <pt x="391" y="882" on="0"/>
        <pt x="353" y="874" on="1"/>
        <pt x="305" y="864" on="1"/>
        <pt x="257" y="854" on="0"/>
        <pt x="242" y="811" on="0"/>
        <pt x="262" y="760" on="1"/>
      </contour>
      <contour>
        <pt x="425" y="-180" on="1"/>
        <pt x="510" y="26" on="1"/>
        <pt x="521" y="48" on="1"/>
        <pt x="812" y="778" on="1"/>
        <pt x="828" y="818" on="0"/>
        <pt x="808" y="858" on="0"/>
        <pt x="772" y="864" on="1"/>
        <pt x="714" y="874" on="1"/>
        <pt x="676" y="880" on="0"/>
        <pt x="676" y="902" on="1"/>
        <pt x="676" y="914" on="0"/>
        <pt x="694" y="926" on="0"/>
        <pt x="710" y="926" on="1"/>
        <pt x="1000" y="926" on="1"/>
        <pt x="1017" y="926" on="0"/>
        <pt x="1034" y="914" on="0"/>
        <pt x="1034" y="902" on="1"/>
        <pt x="1034" y="896" on="0"/>
        <pt x="1023" y="880" on="0"/>
        <pt x="1000" y="875" on="1"/>
        <pt x="944" y="865" on="0"/>
        <pt x="899" y="834" on="0"/>
        <pt x="881" y="790" on="1"/>
        <pt x="480" y="-204" on="1"/>
        <pt x="438" y="-308" on="0"/>
        <pt x="360" y="-422" on="0"/>
        <pt x="277" y="-466" on="0"/>
        <pt x="226" y="-466" on="1"/>
        <pt x="143" y="-466" on="0"/>
        <pt x="55" y="-372" on="0"/>
        <pt x="55" y="-316" on="1"/>
        <pt x="55" y="-282" on="0"/>
        <pt x="85" y="-236" on="0"/>
        <pt x="107" y="-236" on="1"/>
        <pt x="133" y="-236" on="0"/>
        <pt x="161" y="-272" on="0"/>
        <pt x="161" y="-306" on="1"/>
        <pt x="161" y="-334" on="1"/>
        <pt x="161" y="-375" on="0"/>
        <pt x="203" y="-408" on="0"/>
        <pt x="231" y="-408" on="1"/>
        <pt x="286" y="-408" on="0"/>
        <pt x="373" y="-304" on="0"/>
      </contour>
    </TTGlyph>
</ttFont>
